{"glyphs":{"0":{"ha":1462,"x_min":26,"x_max":1440,"o":"m 868 1177 q 819 1222 849 1206 q 747 1237 788 1237 q 674 1220 706 1237 q 620 1176 641 1202 q 583 1105 598 1150 l 583 1105 q 543 770 543 985 l 543 770 q 554 506 543 564 l 554 506 q 617 325 577 380 q 727 270 656 270 l 727 270 q 884 386 840 270 l 884 386 q 921 686 921 485 l 921 686 l 921 705 q 925 851 925 766 q 923 968 925 936 q 916 1042 921 999 q 899 1116 911 1084 q 868 1177 886 1148 z m 1368 348 l 1368 348 q 931 -34 1256 46 l 931 -34 q 713 -59 831 -59 q 491 -29 594 -59 l 491 -29 q 193 169 302 26 q 50 504 83 311 l 50 504 q 31 678 41 547 l 31 678 l 26 744 q 316 1424 26 1214 l 316 1424 q 737 1571 485 1546 l 737 1571 l 751 1571 q 1268 1356 1095 1571 q 1440 727 1440 1140 l 1440 727 q 1368 348 1440 535 z"},"1":{"ha":1579,"x_min":211,"x_max":1131,"o":"m 1119 1467 l 1119 1410 l 1117 1116 q 1122 610 1117 822 l 1122 610 l 1131 -11 q 1002 -34 1106 -34 l 1002 -34 l 916 -32 l 899 -32 l 858 -33 l 817 -33 l 754 -34 q 554 -31 653 -34 l 554 -31 l 538 -6 q 528 57 528 8 q 536 706 528 106 l 536 706 l 540 980 q 220 819 376 868 l 220 819 q 212 828 213 820 l 212 828 l 212 934 l 211 979 q 215 1244 211 1242 q 245 1259 219 1245 q 303 1286 270 1273 q 343 1304 336 1299 q 358 1313 349 1309 l 358 1313 q 672 1525 615 1436 l 672 1525 l 980 1519 q 1116 1523 1072 1519 l 1116 1523 q 1119 1467 1119 1517 l 1119 1467 z"},"2":{"ha":1458,"x_min":68,"x_max":1436,"o":"m 1436 219 l 1436 219 l 1431 23 l 1431 3 q 1409 -24 1431 -22 l 1409 -24 l 997 -15 q 98 -35 567 -15 l 98 -35 l 85 -18 q 68 72 68 -6 q 70 239 68 149 l 70 239 l 70 246 q 72 371 72 328 l 72 371 q 231 492 72 387 l 231 492 l 404 607 q 678 816 584 731 l 678 816 q 842 1084 842 965 l 842 1084 q 811 1167 842 1136 q 730 1197 779 1197 q 655 1174 681 1197 q 622 1121 628 1150 l 622 1121 q 587 1028 603 1037 l 587 1028 q 494 1027 556 1027 l 494 1027 l 191 1027 l 146 1028 l 107 1028 q 68 1037 73 1028 l 68 1037 q 95 1215 76 1158 l 95 1215 q 188 1381 121 1310 q 346 1490 254 1451 l 346 1490 q 748 1564 525 1564 l 748 1564 q 1282 1406 1099 1564 l 1282 1406 q 1419 1099 1419 1290 l 1419 1099 q 1200 656 1419 857 l 1200 656 q 914 441 1092 557 l 914 441 l 844 378 l 1332 387 q 1415 345 1393 387 q 1436 219 1436 303 z"},"3":{"ha":1454,"x_min":24,"x_max":1408,"o":"m 636 608 l 636 608 l 557 607 q 516 628 527 607 q 504 730 504 648 q 510 856 504 812 q 541 900 516 900 l 541 900 l 579 900 l 600 899 l 621 899 q 767 940 715 899 q 819 1083 819 980 l 819 1083 q 788 1174 819 1138 q 696 1209 756 1209 q 614 1180 636 1209 l 614 1180 q 600 1162 604 1168 l 600 1162 q 578 1092 590 1151 l 578 1092 l 579 1093 l 575 1082 q 553 1033 565 1042 l 553 1033 q 162 1039 360 1033 l 162 1039 l 125 1039 l 108 1038 q 49 1057 55 1038 l 49 1057 q 55 1129 51 1073 q 74 1228 58 1185 l 74 1228 q 254 1469 133 1392 l 254 1469 l 254 1468 q 740 1566 425 1566 l 740 1566 q 921 1555 856 1566 q 1052 1520 986 1543 l 1052 1520 q 1280 1377 1185 1475 q 1374 1134 1374 1279 q 1284 915 1374 988 q 1061 798 1193 841 l 1061 798 q 1330 655 1251 739 q 1408 437 1408 571 l 1408 437 q 1082 -4 1408 110 l 1082 -4 q 657 -60 920 -60 l 657 -60 q 133 120 317 -60 l 133 120 q 24 446 33 207 l 24 446 q 35 459 24 459 l 35 459 l 530 467 q 547 454 545 467 l 547 454 q 696 297 568 297 l 696 297 q 799 335 762 297 q 835 427 835 373 q 820 514 835 480 l 820 514 q 735 591 792 573 q 636 608 677 608 z"},"4":{"ha":1433,"x_min":-3,"x_max":1475,"o":"m 1334 618 l 1399 618 l 1421 619 q 1446 612 1439 619 q 1454 583 1453 605 l 1454 583 l 1450 579 l 1456 327 q 1442 221 1456 221 l 1442 221 l 1384 221 l 1361 220 l 1276 220 q 1279 13 1279 127 l 1279 13 q 1259 -31 1279 -29 l 1259 -31 q 1057 -29 1125 -29 l 1057 -29 l 1020 -29 q 729 -35 830 -29 l 729 -35 l 728 -34 l 728 -35 l 704 -2 l 706 176 l 706 212 q 631 255 706 255 q 479 224 556 255 l 479 224 l 193 221 l 73 217 q -3 244 14 217 l -3 244 q 3 605 -3 467 l 3 605 q 126 862 59 745 q 299 1140 192 978 l 299 1140 l 299 1139 q 325 1182 314 1160 l 325 1182 q 531 1503 482 1423 l 531 1503 q 591 1513 541 1513 q 651 1514 641 1513 l 651 1514 l 741 1517 q 1074 1524 940 1524 l 1074 1524 l 1259 1524 l 1275 1519 q 1276 1518 1275 1518 l 1276 1518 l 1276 1470 l 1269 892 l 1270 796 l 1270 772 l 1268 717 q 1334 618 1268 618 l 1334 618 z m 1454 581 l 1454 583 l 1463 593 l 1468 581 l 1454 581 z m 1471 575 l 1471 575 l 1468 581 l 1475 581 q 1471 575 1475 575 z m 778 661 l 778 711 l 781 845 q 712 1186 781 1181 l 712 1186 q 678 1157 689 1173 l 678 1157 l 627 1066 q 589 998 616 1047 q 547 922 562 948 l 547 922 l 491 824 q 385 634 433 722 l 385 634 l 398 607 l 398 581 l 420 559 l 452 559 l 732 564 q 779 618 774 583 l 779 618 l 779 639 l 778 661 z"},"5":{"ha":1469,"x_min":76,"x_max":1412,"o":"m 184 411 l 351 411 l 626 406 q 645 363 635 399 l 645 363 q 721 296 678 309 l 721 296 q 845 491 845 296 l 845 491 q 816 652 845 607 q 717 697 786 697 q 631 624 648 697 l 631 624 l 631 623 q 628 605 629 616 q 625 584 627 593 q 605 573 623 575 l 605 573 q 398 576 534 576 l 398 576 l 168 576 q 131 673 131 576 l 131 673 l 131 715 l 132 729 l 129 949 q 127 1147 127 1083 l 127 1147 l 127 1339 q 129 1422 127 1393 l 129 1422 l 129 1458 q 147 1540 129 1513 l 147 1540 q 283 1538 196 1538 l 283 1538 l 1267 1529 l 1282 1530 q 1327 1516 1319 1530 l 1327 1516 l 1327 1258 q 1324 1183 1327 1202 q 1302 1163 1320 1163 l 1302 1163 l 1283 1163 q 626 1159 914 1163 l 626 1159 q 618 1090 618 1127 q 617 1044 618 1053 l 617 1044 l 610 948 q 610 928 610 944 q 609 908 609 911 l 609 908 q 924 1007 759 1007 l 924 1007 q 1279 872 1145 1007 q 1412 525 1412 737 l 1412 525 q 1372 296 1412 398 l 1372 296 q 1112 20 1300 113 l 1112 20 q 721 -60 949 -60 q 319 26 492 -60 l 319 26 q 155 155 217 76 l 155 155 q 76 396 101 237 l 76 396 q 161 412 83 412 l 161 412 l 184 411 z m 632 625 l 632 625 l 649 616 l 631 623 q 632 624 631 624 q 632 625 632 624 z"},"6":{"ha":1457,"x_min":53,"x_max":1435,"o":"m 779 720 l 779 720 q 584 464 584 720 l 584 464 q 681 261 584 322 l 681 261 l 693 276 q 703 275 696 275 l 703 275 l 699 255 l 714 250 l 713 251 q 791 235 763 235 q 854 250 818 235 l 854 250 q 969 491 969 300 l 969 491 q 926 659 969 600 q 779 720 883 718 z m 603 841 l 603 841 q 935 988 727 988 q 1289 853 1142 988 q 1435 512 1435 717 l 1435 512 q 1224 88 1435 247 l 1224 88 q 802 -54 1059 -36 l 802 -54 q 487 -13 611 -52 q 309 73 362 26 l 309 73 l 309 72 q 83 450 141 241 l 83 450 q 53 748 53 584 l 53 748 q 143 1167 53 983 q 400 1459 232 1351 q 788 1578 567 1567 l 788 1578 q 1272 1379 1127 1570 l 1272 1379 q 1367 1141 1348 1278 l 1367 1141 q 882 1119 1279 1119 l 882 1119 q 861 1115 862 1119 l 861 1115 l 859 1175 q 782 1209 838 1209 l 782 1209 q 635 1107 674 1209 l 635 1107 q 602 917 602 1021 l 602 917 l 602 872 q 603 841 602 861 z"},"7":{"ha":1462,"x_min":72,"x_max":1394,"o":"m 76 1141 l 76 1421 l 72 1485 q 99 1547 72 1547 l 99 1547 q 1163 1533 459 1547 l 1163 1533 l 1370 1529 q 1394 1383 1394 1528 l 1394 1383 l 1394 1336 q 1348 1012 1394 1108 q 1243 816 1302 916 l 1243 816 q 804 -17 1051 489 l 804 -17 q 777 -32 799 -32 l 777 -32 l 687 -31 l 638 -31 l 588 -30 l 499 -30 l 434 -31 q 193 -11 193 -31 l 193 -11 q 204 22 193 1 q 219 52 215 42 l 219 52 l 641 894 q 754 1113 732 1074 l 754 1113 l 684 1113 q 365 1109 587 1113 l 365 1109 l 125 1109 q 100 1115 109 1109 q 76 1141 91 1120 l 76 1141 z"},"8":{"ha":1451,"x_min":37,"x_max":1431,"o":"m 1386 1088 l 1386 1088 q 1140 776 1386 862 l 1140 776 q 1345 642 1304 694 l 1345 642 q 1431 393 1431 534 l 1431 393 q 1260 62 1431 184 l 1260 62 q 1051 -30 1169 -2 q 744 -59 933 -59 q 439 -33 554 -59 l 439 -33 q 135 137 232 14 l 135 137 q 37 391 56 237 l 37 391 q 307 764 60 641 l 307 764 q 84 1091 84 867 l 84 1091 q 124 1277 84 1194 l 124 1277 q 364 1498 195 1427 q 723 1568 532 1568 l 723 1568 q 1246 1410 1059 1568 l 1246 1410 q 1386 1088 1386 1292 z m 916 429 l 916 429 q 732 646 916 646 l 732 646 q 598 585 650 646 q 546 436 546 524 l 546 436 q 604 295 556 347 q 735 242 651 242 q 868 294 819 242 q 916 429 916 345 z m 728 1262 l 728 1262 q 613 1201 653 1262 q 573 1071 573 1139 l 573 1071 q 736 881 573 881 l 736 881 q 856 937 817 881 q 894 1074 894 992 l 894 1074 q 728 1262 894 1262 z"},"9":{"ha":1456,"x_min":50,"x_max":1430,"o":"m 113 378 l 113 378 q 142 410 129 399 l 142 410 l 603 403 q 623 365 611 400 q 653 314 634 329 q 708 298 672 298 q 769 308 744 298 q 809 332 793 317 q 838 370 825 346 l 838 370 q 881 570 872 433 l 881 570 l 881 591 q 882 612 881 596 q 882 628 882 627 l 882 628 q 601 544 761 550 l 601 544 q 294 621 436 544 q 88 837 151 697 l 88 837 q 50 1002 54 913 l 50 1002 q 363 1470 73 1313 l 363 1470 q 726 1560 529 1560 l 726 1560 q 1252 1360 1082 1560 l 1252 1360 l 1252 1361 q 1390 1102 1349 1239 q 1430 792 1430 964 l 1430 792 q 1274 191 1430 420 l 1274 191 q 621 -69 1097 -69 l 621 -69 q 257 49 402 -69 l 257 49 q 113 378 123 148 z m 505 1005 l 505 1005 q 705 787 518 787 q 892 1024 892 787 q 707 1261 892 1261 l 707 1261 q 532 1147 582 1261 l 532 1147 q 505 1005 505 1086 z"}," ":{"ha":716,"x_min":0,"x_max":0,"o":""},"!":{"ha":792,"x_min":107,"x_max":706,"o":"m 141 983 l 114 1379 l 107 1500 q 268 1516 107 1512 l 268 1516 l 324 1516 l 388 1521 q 633 1528 449 1526 l 633 1528 q 706 1506 704 1528 l 706 1506 l 692 1318 q 622 562 649 800 l 622 562 q 528 543 620 543 l 528 543 l 468 543 l 448 544 l 407 543 l 367 543 l 283 542 l 252 542 l 237 541 l 198 541 q 162 660 164 556 l 162 660 q 161 723 162 711 l 161 723 l 151 853 q 146 912 150 865 q 141 983 142 959 l 141 983 z m 656 311 l 656 311 q 656 308 656 310 q 655 173 655 305 q 659 -11 655 41 l 659 -11 q 463 -28 648 -21 l 463 -28 l 443 -28 l 241 -32 l 233 -32 q 154 -34 179 -34 l 154 -34 l 144 -19 l 127 -3 q 136 225 127 121 q 146 328 144 328 l 146 328 q 579 326 502 328 q 656 311 656 323 z"},"\"":{"ha":1285,"x_min":193,"x_max":1152,"o":"m 543 875 l 503 875 l 484 876 q 217 871 307 874 l 217 871 l 193 892 q 198 1031 193 949 l 198 1031 l 203 1284 l 202 1315 l 208 1423 l 208 1444 l 206 1477 q 215 1530 206 1521 l 215 1530 l 252 1529 l 383 1529 l 455 1531 q 590 1517 572 1531 l 590 1517 l 589 1513 l 603 917 q 591 883 603 890 q 543 875 579 875 l 543 875 z m 1125 1519 l 1125 1519 q 1140 1058 1140 1227 q 1138 884 1140 888 l 1138 884 l 1015 880 q 822 875 927 880 l 822 875 l 757 872 q 736 938 736 900 l 736 938 l 736 1002 l 746 1293 q 748 1387 748 1323 l 748 1387 l 748 1467 l 747 1482 q 752 1531 747 1524 l 752 1531 l 810 1531 q 1128 1533 1128 1531 l 1128 1533 l 1128 1527 q 1125 1519 1125 1527 z m 1135 883 l 1136 884 l 1152 874 q 1136 863 1152 863 l 1136 863 l 1136 883 l 1135 883 z"},"#":{"ha":1548,"x_min":237,"x_max":1326,"o":"m 406 1118 l 406 1118 l 469 1116 l 474 1116 q 506 1191 494 1116 q 529 1337 518 1266 l 529 1337 l 555 1520 q 748 1530 569 1530 l 748 1530 l 761 1530 q 822 1517 812 1530 l 822 1517 q 794 1324 806 1431 l 794 1324 l 791 1298 q 761 1106 789 1279 l 761 1106 l 908 1106 q 927 1310 912 1136 q 967 1522 942 1483 l 967 1522 l 1209 1522 q 1222 1518 1218 1522 l 1222 1518 q 1179 1183 1203 1353 l 1179 1183 l 1168 1108 l 1198 1107 l 1231 1107 q 1277 1108 1265 1107 l 1277 1108 l 1298 1108 l 1317 1109 q 1325 1053 1325 1103 l 1325 1053 l 1324 1037 l 1324 945 l 1326 890 l 1326 874 q 1227 852 1326 852 l 1227 852 l 1152 855 l 1138 855 l 1124 754 q 1123 747 1124 752 q 1122 738 1122 741 l 1122 738 l 1112 651 l 1240 651 q 1268 648 1266 651 l 1268 648 l 1268 497 l 1269 470 l 1269 401 q 1262 394 1267 394 l 1262 394 l 1084 398 q 1057 166 1057 206 q 1056 105 1057 126 l 1056 105 q 1034 11 1055 50 q 955 -29 1012 -29 l 955 -29 l 865 -32 q 752 -12 769 -32 l 752 -12 q 764 89 752 -9 l 764 89 l 770 138 q 804 387 785 257 l 804 387 q 746 381 779 383 q 677 371 712 379 l 677 371 l 638 46 q 614 -27 630 -19 q 580 -36 598 -36 l 580 -36 l 359 -32 q 345 -17 352 -22 l 345 -17 l 347 -16 l 337 0 q 356 135 344 57 l 356 135 l 391 378 l 342 378 q 254 386 268 378 q 239 439 239 394 l 239 439 l 239 579 l 237 613 q 291 655 237 655 l 291 655 l 324 654 l 432 654 l 456 843 l 410 843 q 305 863 305 843 l 305 863 l 308 1100 q 406 1118 308 1118 z m 869 902 l 848 902 l 729 908 l 717 908 l 694 868 q 672 728 693 862 l 672 728 l 658 656 q 697 603 659 610 l 697 603 l 706 603 l 713 604 l 846 610 q 884 643 878 612 l 884 643 l 920 852 q 869 902 914 902 l 869 902 z m 344 -17 l 344 -17 l 329 -22 q 333 -13 329 -13 q 344 -17 336 -13 z"},"$":{"ha":1444,"x_min":28,"x_max":1487,"o":"m 1423 1091 l 1422 1089 q 1356 1090 1422 1089 l 1356 1090 q 1238 1087 1310 1090 l 1238 1087 l 1178 1085 q 976 1080 1046 1080 q 897 1087 905 1080 q 880 1123 888 1094 l 880 1123 q 750 1212 855 1211 l 750 1212 l 724 1206 q 623 1156 641 1186 l 623 1156 q 614 1119 614 1141 q 630 1078 614 1097 q 664 1048 645 1059 q 719 1024 683 1036 q 774 1008 754 1012 q 833 994 794 1003 l 833 994 l 985 960 q 1299 843 1197 904 l 1299 843 q 1487 453 1487 701 l 1487 453 q 1399 183 1487 288 q 1186 24 1311 77 q 908 -60 1060 -30 l 908 -60 l 911 -234 l 912 -251 q 889 -269 910 -269 l 889 -269 q 589 -263 739 -269 l 589 -263 l 561 -237 q 562 -172 562 -213 l 562 -172 q 542 -68 562 -89 q 441 -33 521 -47 q 278 26 360 -20 q 145 138 196 71 l 145 138 q 28 453 46 267 l 28 453 q 78 469 30 469 l 78 469 l 126 467 l 604 467 q 625 421 616 462 q 645 356 634 379 l 645 356 q 745 303 671 303 q 863 336 819 303 q 907 418 907 368 q 875 490 907 467 q 819 514 843 512 q 779 521 795 515 q 736 535 762 526 q 687 550 709 544 l 687 550 l 649 560 q 301 669 379 631 l 301 669 q 63 1042 63 776 l 63 1042 q 378 1496 63 1375 l 378 1496 q 579 1554 471 1531 l 579 1554 q 574 1686 574 1622 q 580 1761 574 1749 l 580 1761 q 658 1759 636 1759 l 658 1759 l 866 1762 q 888 1679 888 1762 l 888 1679 l 884 1551 q 1362 1335 1242 1527 l 1362 1335 q 1423 1091 1423 1237 l 1423 1091 z"},"%":{"ha":2153,"x_min":18,"x_max":2180,"o":"m 1420 832 l 1420 832 q 1731 956 1568 956 q 2014 879 1894 956 l 2014 879 l 2013 879 q 2096 783 2058 843 q 2152 669 2134 723 l 2152 669 l 2151 669 q 2180 456 2180 582 l 2180 456 q 2048 70 2180 202 q 1716 -62 1916 -62 l 1716 -62 q 1307 236 1384 -62 l 1307 236 q 1284 426 1284 326 q 1314 647 1284 525 q 1420 832 1344 769 z m 18 1003 l 18 1003 q 22 1060 18 1044 l 22 1060 q 148 1430 45 1318 l 148 1430 q 477 1553 304 1553 l 477 1553 q 854 1342 754 1553 l 854 1342 q 907 1110 907 1229 q 893 914 907 990 l 893 914 q 755 645 863 749 q 448 541 647 541 l 448 541 q 68 762 163 541 l 68 762 q 18 1003 18 878 z m 581 -89 l 573 -89 l 568 -88 l 549 -37 q 881 566 657 166 q 1213 1170 1104 966 l 1213 1170 l 1432 1564 q 1636 1571 1588 1564 l 1636 1571 l 1617 1532 q 1446 1200 1526 1361 l 1446 1200 l 1352 1015 l 1352 1017 l 1264 851 q 1109 546 1163 664 l 1109 546 l 799 -73 q 714 -91 789 -91 q 581 -89 639 -91 l 581 -89 z m 1636 1571 l 1636 1571 l 1648 1591 l 1664 1579 q 1636 1571 1659 1574 z m 1856 410 l 1856 510 l 1857 533 q 1732 745 1857 745 l 1732 745 l 1727 744 q 1640 682 1667 742 l 1640 682 q 1604 444 1604 600 l 1604 444 l 1604 408 q 1621 246 1608 279 q 1648 188 1634 212 l 1648 188 q 1737 140 1674 140 l 1737 140 q 1857 350 1857 140 l 1857 350 l 1857 379 l 1856 410 z m 586 1109 l 587 1131 q 477 1347 587 1347 l 477 1347 q 342 1144 356 1347 l 342 1144 q 338 1003 338 1095 l 338 1003 q 473 740 338 740 l 473 740 q 587 961 587 740 l 587 961 l 587 1002 l 586 1023 l 586 1109 z"},"&":{"ha":1815,"x_min":17,"x_max":1882,"o":"m 1522 792 l 1522 792 l 1682 788 l 1684 788 q 1777 790 1750 788 l 1777 790 q 1791 771 1785 785 l 1791 771 l 1786 736 q 1725 508 1776 622 q 1584 305 1673 394 l 1584 305 l 1779 103 q 1826 48 1807 73 l 1826 48 l 1846 29 q 1882 -19 1880 -4 l 1882 -19 q 1822 -35 1882 -35 l 1822 -35 l 1775 -34 l 1516 -34 q 1302 -30 1402 -34 l 1302 -30 q 1243 14 1269 -12 l 1243 14 l 1204 47 l 1151 20 q 794 -69 937 -60 l 794 -69 l 705 -72 q 349 -14 507 -72 q 104 145 191 44 q 17 370 17 246 l 17 370 q 417 811 17 664 l 417 811 q 241 977 310 880 q 171 1157 171 1074 l 171 1157 q 273 1407 171 1312 l 273 1407 q 468 1508 335 1465 q 760 1551 601 1551 l 760 1551 q 1262 1435 1096 1551 l 1262 1435 q 1388 1190 1388 1346 l 1388 1190 q 1312 981 1388 1076 q 1083 776 1235 886 l 1083 776 q 1165 699 1136 723 l 1165 699 l 1165 700 l 1273 597 q 1332 721 1328 671 q 1355 780 1335 770 l 1355 780 q 1522 792 1381 792 z m 1012 281 l 1012 281 q 945 343 969 315 q 915 377 921 371 l 915 377 l 764 521 q 745 534 751 521 q 705 579 738 546 q 645 612 671 611 l 645 612 q 547 521 591 586 q 502 395 502 456 q 542 286 502 333 l 542 286 q 739 201 617 201 q 1012 281 861 201 z m 762 975 l 762 975 l 761 976 q 788 968 774 968 q 813 973 802 968 l 813 973 q 954 1121 926 1059 l 954 1121 q 967 1193 967 1151 q 933 1269 967 1235 l 933 1269 q 789 1326 876 1326 q 648 1284 701 1326 q 595 1169 595 1241 l 595 1169 q 762 975 605 1071 z"},"'":{"ha":803,"x_min":198,"x_max":608,"o":"m 214 1424 l 214 1461 l 213 1479 q 220 1529 213 1521 l 220 1529 l 286 1529 q 595 1526 439 1529 l 595 1526 q 599 1516 599 1525 l 599 1516 l 602 1331 q 608 918 608 920 l 608 918 q 555 880 608 889 q 397 870 501 870 l 397 870 l 286 870 l 247 871 l 222 871 q 198 909 198 886 l 198 909 l 209 1230 q 214 1424 213 1357 l 214 1424 z"},"(":{"ha":832,"x_min":140,"x_max":809,"o":"m 748 -106 l 805 -306 l 782 -336 l 732 -336 q 396 -328 732 -336 l 396 -328 q 279 -37 362 -309 l 279 -37 l 260 13 q 140 616 160 277 l 140 616 q 206 975 156 759 q 308 1352 256 1190 q 383 1519 360 1514 l 383 1519 q 786 1532 409 1532 l 786 1532 q 796 1519 794 1526 l 796 1519 l 742 1314 q 615 606 615 868 l 615 606 q 748 -106 628 294 l 748 -106 z m 806 -310 l 805 -306 l 809 -300 l 806 -310 z"},")":{"ha":835,"x_min":41,"x_max":710,"o":"m 61 1543 l 379 1543 l 442 1544 q 470 1522 455 1544 l 470 1522 l 470 1524 l 525 1373 q 616 1115 584 1210 q 679 870 647 1019 q 710 597 710 721 l 710 597 q 667 292 705 435 q 555 -69 628 149 q 454 -314 482 -287 l 454 -314 q 285 -320 348 -320 l 285 -320 l 253 -320 l 223 -319 l 162 -319 q 60 -322 91 -319 l 60 -322 l 70 -294 q 71 -292 70 -293 l 71 -292 l 76 -281 q 232 594 232 246 l 232 594 q 105 1295 232 845 l 105 1295 l 41 1521 q 61 1543 50 1535 l 61 1543 z m 459 -334 l 459 -334 l 453 -323 l 453 -338 l 449 -338 l 445 -320 q 472 -311 454 -316 l 472 -311 q 457 -337 472 -333 l 457 -337 q 459 -334 457 -336 z m 59 -331 l 59 -331 l 48 -321 q 59 -322 53 -321 l 59 -322 l 60 -322 q 59 -331 59 -325 z m 456 -337 l 455 -338 l 456 -337 z"},"*":{"ha":930,"x_min":89,"x_max":860,"o":"m 584 1537 l 584 1537 q 747 1446 747 1462 q 715 1383 747 1429 q 641 1246 682 1337 l 641 1246 l 707 1252 q 797 1258 737 1258 l 797 1258 l 810 1258 q 852 1253 844 1258 q 860 1205 860 1247 q 854 1131 860 1163 l 854 1131 l 854 1073 q 648 1069 854 1069 l 648 1069 l 690 1004 l 689 1004 q 718 944 711 963 l 718 944 l 732 921 q 756 876 748 899 l 756 876 l 627 793 l 628 795 l 589 774 l 590 775 q 484 953 572 788 l 484 953 l 442 872 l 442 873 q 381 769 390 769 q 334 788 371 769 q 276 826 296 806 l 276 826 l 205 871 l 197 873 q 268 1003 204 901 l 268 1003 l 290 1048 l 193 1046 l 179 1046 q 108 1056 124 1046 q 91 1107 92 1066 q 89 1193 89 1148 q 108 1256 89 1238 l 108 1256 q 308 1250 206 1256 l 308 1250 l 252 1337 q 200 1444 207 1407 l 200 1444 q 239 1462 202 1448 l 239 1462 q 373 1538 333 1538 l 373 1538 q 382 1523 374 1538 q 405 1481 390 1508 q 429 1436 420 1453 l 429 1436 l 490 1324 l 506 1389 l 524 1430 l 534 1449 q 554 1489 537 1455 q 584 1537 570 1523 z m 759 852 l 759 869 q 758 878 759 870 l 758 878 l 781 891 q 800 844 800 867 l 800 844 l 759 852 z m 196 872 l 195 874 l 197 873 l 196 871 q 196 872 196 872 l 196 872 z m 193 875 l 193 875 l 195 874 q 193 875 193 874 z"},"+":{"ha":1271,"x_min":97,"x_max":1189,"o":"m 1189 625 l 1189 503 l 1188 465 l 1188 430 q 1187 391 1188 399 l 1187 391 l 1183 391 q 1135 390 1166 390 l 1135 390 l 866 390 l 788 391 q 792 70 792 291 l 792 70 l 792 20 q 716 -13 792 -13 l 716 -13 l 629 -12 l 579 -12 q 503 -14 503 -12 l 503 -14 l 498 372 l 470 371 l 368 371 l 346 372 q 324 371 346 372 l 324 371 l 188 371 l 149 372 l 112 372 q 97 447 97 381 l 97 447 l 98 462 l 98 531 l 97 564 l 97 628 q 103 671 97 661 q 134 681 109 681 l 134 681 q 488 683 264 681 l 488 683 l 488 749 l 491 1004 l 491 1037 q 498 1070 491 1062 q 530 1078 504 1078 l 530 1078 l 549 1077 l 658 1077 l 718 1079 q 796 1067 785 1079 l 796 1067 l 793 674 l 1180 676 q 1189 625 1189 672 l 1189 625 z"},",":{"ha":735,"x_min":9,"x_max":671,"o":"m 225 419 l 383 419 l 534 422 q 671 411 671 422 l 671 411 l 671 407 q 588 151 614 238 l 588 151 l 575 108 q 558 54 570 89 l 558 54 l 526 -49 l 461 -235 q 258 -250 442 -250 l 258 -250 l 216 -249 l 27 -249 q 9 -229 18 -242 l 9 -229 q 22 -169 13 -215 q 35 -101 30 -124 l 35 -101 l 43 -66 q 62 17 49 -39 q 83 108 75 73 q 102 193 91 143 l 102 193 q 169 417 150 398 l 169 417 q 225 419 187 419 l 225 419 z"},"-":{"ha":859,"x_min":50,"x_max":812,"o":"m 812 564 l 812 550 l 811 508 l 811 393 q 804 375 809 375 l 804 375 l 73 355 q 50 379 60 366 l 50 379 q 51 407 50 379 l 51 407 l 51 437 l 53 567 l 53 582 l 51 648 q 62 732 51 732 l 62 732 l 283 732 l 354 731 l 658 734 l 692 734 l 730 733 l 798 733 q 812 564 812 718 l 812 564 z"},".":{"ha":775,"x_min":129,"x_max":656,"o":"m 649 407 l 652 254 q 655 102 652 147 l 655 102 l 655 33 l 656 20 q 654 -18 656 -18 q 485 -26 651 -18 q 153 -35 318 -35 l 153 -35 l 130 1 q 129 25 129 10 l 129 25 l 132 129 l 132 183 q 146 417 132 402 l 146 417 q 500 415 380 415 l 500 415 l 546 415 l 569 416 q 649 407 649 416 l 649 407 z"},"/":{"ha":804,"x_min":-38,"x_max":846,"o":"m 768 1565 l 794 1565 l 804 1566 q 846 1555 846 1566 l 846 1555 q 811 1432 831 1488 l 811 1432 l 782 1355 q 602 821 693 1097 l 602 821 l 580 758 q 482 467 568 724 q 345 81 395 210 l 345 81 l 327 34 l 329 34 q 254 -61 300 -46 l 254 -61 q 192 -70 230 -69 l 192 -70 l 149 -70 q 41 -75 111 -75 l 41 -75 l -10 -75 q -38 -14 -31 -32 l -38 -14 q -10 64 -16 58 l -10 64 l 50 229 q 515 1476 225 710 l 515 1476 l 549 1563 q 629 1568 566 1568 l 629 1568 l 768 1565 z"},":":{"ha":771,"x_min":124,"x_max":654,"o":"m 333 419 l 333 419 l 389 418 l 541 418 q 645 406 630 418 l 645 406 l 645 218 l 647 124 l 647 52 q 648 -12 647 9 l 648 -12 q 323 -35 627 -35 l 323 -35 l 260 -34 l 221 -34 q 147 -35 172 -34 l 147 -35 q 124 2 124 -4 l 124 2 l 124 35 q 135 408 124 212 l 135 408 q 333 419 135 419 z m 648 974 l 648 974 l 647 939 l 647 931 l 652 795 l 645 748 q 654 676 654 711 q 642 641 654 641 l 642 641 q 152 626 367 626 l 152 626 l 129 662 q 128 717 128 682 l 128 717 l 128 737 l 130 807 l 130 867 q 145 1078 130 1062 l 145 1078 q 255 1077 183 1077 l 255 1077 l 327 1078 l 396 1078 l 511 1079 q 646 1068 646 1079 l 646 1068 q 648 974 648 1006 z"},";":{"ha":733,"x_min":10,"x_max":673,"o":"m 226 437 l 288 437 l 538 440 q 670 429 670 440 l 670 429 l 670 417 q 574 132 634 316 l 574 132 l 527 -15 l 513 -64 l 491 -118 q 474 -161 486 -133 q 456 -203 461 -189 l 456 -203 q 236 -219 446 -219 l 236 -219 l 77 -217 l 27 -217 q 10 -196 9 -199 l 10 -196 l 16 -164 q 42 -41 34 -71 l 42 -41 q 91 212 42 -14 q 165 438 140 438 l 165 438 l 195 438 l 226 437 z m 278 1060 l 352 1060 l 472 1061 q 666 1058 666 1061 l 666 1058 q 673 649 673 811 l 673 649 l 673 615 l 669 616 q 499 608 661 608 l 499 608 l 173 595 q 150 634 154 621 q 145 671 145 647 l 145 671 l 145 684 q 146 689 146 688 l 146 689 l 149 781 q 153 920 150 793 q 167 1059 155 1046 l 167 1059 l 204 1059 l 278 1060 z"},"<":{"ha":1271,"x_min":89,"x_max":1199,"o":"m 90 531 l 90 577 l 89 594 q 119 693 89 656 l 119 693 l 1042 1041 q 1176 1091 1112 1070 l 1176 1091 l 1180 1091 q 1195 1022 1195 1091 l 1195 1022 l 1195 1010 q 1182 807 1195 830 l 1182 807 q 464 524 916 706 l 464 524 q 889 362 606 469 q 1180 247 1171 254 l 1180 247 q 1199 144 1199 231 q 1191 -10 1199 56 l 1191 -10 l 1191 -12 q 1180 -38 1191 -38 l 1180 -38 q 1169 -36 1179 -38 l 1169 -36 l 211 341 q 200 346 208 342 q 178 353 192 349 l 178 353 q 119 383 149 362 q 89 452 89 403 l 89 452 l 89 510 l 90 531 z m 1185 1094 l 1175 1091 l 1175 1112 l 1182 1113 l 1185 1094 z"},"=":{"ha":1273,"x_min":94,"x_max":1195,"o":"m 1187 276 l 1187 173 l 1188 160 q 1175 124 1188 124 l 1175 124 l 890 120 l 118 105 l 97 131 q 94 214 94 179 q 95 261 94 249 l 95 261 l 95 280 q 96 300 95 280 l 96 300 l 96 325 l 95 340 l 95 355 q 107 431 95 404 l 107 431 l 109 430 q 111 431 110 431 l 111 431 l 133 431 q 891 403 578 403 l 891 403 l 929 404 q 1178 411 1163 410 l 1178 411 q 1187 276 1187 395 l 1187 276 z m 107 933 l 209 933 l 1178 929 q 1185 786 1185 913 l 1185 786 l 1185 661 q 1184 662 1184 661 l 1184 662 l 898 652 q 508 638 767 646 q 118 623 249 629 l 118 623 l 97 650 l 97 656 q 95 713 95 694 l 95 713 l 95 797 l 96 825 l 96 849 l 95 863 l 95 875 q 107 933 95 933 l 107 933 z m 1185 661 l 1195 650 l 1185 639 l 1185 661 z"},">":{"ha":1269,"x_min":89,"x_max":1198,"o":"m 103 843 l 103 843 l 104 853 l 104 883 q 101 1083 104 1058 l 101 1083 q 524 920 113 1074 l 524 920 l 635 878 q 1064 713 888 783 l 1064 713 l 1186 663 q 1198 522 1198 637 q 1196 404 1198 406 l 1196 404 l 1185 394 l 1182 391 l 1185 391 q 494 108 719 206 l 494 108 l 357 51 q 120 -42 191 -17 l 120 -42 l 89 -8 q 99 240 89 121 l 99 240 q 530 428 114 274 l 530 428 l 562 441 q 801 532 715 496 l 801 532 q 512 654 724 563 q 107 812 299 744 l 107 812 q 103 843 103 820 z m 98 1085 l 104 1083 l 102 1082 q 98 1085 100 1082 l 98 1085 z"},"?":{"ha":1121,"x_min":52,"x_max":1105,"o":"m 715 493 l 721 493 q 689 485 700 485 l 689 485 l 569 483 q 202 475 436 483 l 202 475 q 191 540 191 481 q 203 640 191 598 q 248 725 215 681 q 318 805 280 769 q 394 876 356 840 l 394 876 q 498 1048 481 962 l 498 1048 q 455 1122 491 1103 q 361 1141 418 1141 l 361 1141 l 356 1140 q 85 1080 232 1136 l 85 1080 l 52 1107 l 52 1123 q 54 1480 54 1361 l 54 1480 q 435 1568 54 1549 l 435 1568 l 474 1570 q 872 1497 713 1570 l 872 1497 l 917 1474 l 916 1475 q 1043 1354 1000 1421 l 1043 1354 l 1055 1329 q 1094 1201 1090 1246 l 1094 1201 l 1094 1196 q 1105 1141 1098 1165 l 1105 1141 q 1045 936 1099 1015 l 1045 936 q 873 785 984 861 q 735 668 761 709 q 706 586 708 626 l 706 586 q 715 493 715 549 l 715 493 z m 707 276 l 709 78 l 710 46 l 710 -14 q 606 -18 675 -18 q 511 -20 536 -18 l 511 -20 l 457 -23 q 354 -30 417 -27 l 354 -30 l 279 -33 q 208 -35 231 -35 l 208 -35 q 186 8 186 -4 l 186 8 l 186 98 l 187 117 l 187 200 l 186 221 q 204 342 186 317 l 204 342 l 290 339 q 502 333 368 336 q 671 322 636 330 q 707 276 706 314 l 707 276 z m 709 -36 l 709 -36 l 709 -15 l 711 -15 l 709 -15 l 710 -14 l 712 -14 l 711 -15 l 724 -13 q 719 -28 724 -21 q 709 -36 714 -36 z"},"@":{"ha":1671,"x_min":79,"x_max":1618,"o":"m 1286 445 l 1286 445 q 1486 862 1486 529 l 1486 862 q 1453 1050 1486 952 l 1453 1050 q 1241 1313 1392 1232 q 892 1394 1090 1394 l 892 1394 q 436 1224 626 1394 l 436 1224 q 290 1010 344 1141 q 235 732 235 879 l 235 732 q 432 284 235 449 q 889 118 628 118 l 889 118 q 1125 146 1026 118 l 1125 146 q 1131 125 1128 136 q 1136 106 1133 114 l 1136 106 l 1159 35 q 851 -12 1021 -12 q 543 45 680 -12 q 304 200 406 102 q 141 436 202 297 q 79 743 79 575 q 147 1063 79 911 q 326 1313 214 1214 q 579 1467 437 1412 q 869 1522 721 1522 q 1151 1481 1017 1522 q 1389 1364 1284 1439 q 1556 1173 1493 1289 q 1618 917 1618 1057 q 1563 643 1618 777 q 1422 424 1508 508 q 1245 329 1336 339 l 1245 329 q 1068 499 1129 337 l 1068 499 l 1035 499 q 910 387 976 425 q 734 349 844 349 q 534 437 623 349 q 445 647 445 524 l 445 647 l 445 682 q 551 965 445 840 l 551 965 q 866 1097 663 1097 l 866 1097 q 1055 1021 976 1097 l 1055 1021 l 1127 914 l 1137 950 q 1155 1015 1141 965 q 1175 1088 1169 1064 l 1175 1088 l 1259 1085 l 1191 703 q 1176 582 1176 646 q 1200 482 1176 518 q 1286 445 1223 445 z m 1058 758 l 1058 758 q 1012 890 1058 829 q 867 950 966 950 q 701 879 767 950 q 620 703 635 807 l 620 703 q 665 547 620 604 q 777 487 710 489 l 777 487 q 980 569 902 487 q 1058 758 1058 650 z"},"A":{"ha":1639,"x_min":-38,"x_max":1697,"o":"m 1697 -11 l 1697 -11 q 1642 -24 1696 -24 l 1642 -24 l 1550 -24 l 1488 -25 l 1427 -25 l 1330 -26 q 1089 -19 1185 -26 l 1089 -19 q 1082 -7 1086 -18 l 1082 -7 l 1077 14 q 1030 213 1068 117 l 1030 213 l 602 209 q 576 108 598 192 q 543 -19 554 24 l 543 -19 q 448 -29 533 -29 l 448 -29 l 423 -28 l 365 -28 l 105 -34 l 75 -34 l 47 -35 l -23 -35 q -38 -17 -30 -28 l -38 -17 q 233 841 62 329 l 233 841 l 256 912 l 255 912 l 282 995 q 357 1217 295 1035 q 434 1452 418 1399 q 452 1507 449 1505 l 452 1507 l 618 1507 l 973 1512 l 1069 1507 l 1148 1512 q 1208 1488 1208 1512 l 1208 1488 q 1475 685 1308 1209 q 1663 96 1642 161 l 1663 96 l 1677 46 q 1697 -11 1684 19 z m 648 535 l 707 535 l 748 534 l 987 535 q 964 710 972 654 l 964 710 l 926 881 q 864 1151 866 1146 q 861 1161 862 1156 q 858 1167 859 1165 q 856 1172 857 1168 q 853 1178 854 1176 q 849 1182 851 1179 l 849 1182 q 820 1203 842 1194 l 820 1203 q 659 601 793 1197 l 659 601 l 648 535 z"},"B":{"ha":1571,"x_min":104,"x_max":1537,"o":"m 109 1116 l 109 1116 l 108 1136 l 108 1198 q 113 1494 108 1327 l 113 1494 l 111 1496 l 165 1499 q 504 1513 426 1513 l 504 1513 l 970 1513 q 1367 1414 1209 1513 l 1367 1414 q 1458 1285 1423 1366 q 1493 1102 1493 1204 l 1493 1102 q 1229 767 1493 905 l 1229 767 q 1458 636 1378 726 q 1537 414 1537 545 l 1537 414 q 1329 62 1537 182 l 1329 62 q 942 -28 1176 -28 l 942 -28 l 644 -24 q 132 -33 451 -24 l 132 -33 q 104 434 104 26 q 109 1116 104 842 z m 694 279 l 731 279 q 990 460 990 279 l 990 460 q 920 614 990 575 l 920 614 q 727 652 857 648 l 727 652 l 698 652 l 680 596 q 673 394 673 493 q 694 279 673 294 l 694 279 z m 946 948 l 946 948 q 966 1040 966 986 l 966 1040 q 891 1181 966 1145 q 734 1217 816 1217 q 652 1157 652 1217 l 652 1157 q 657 938 652 1050 l 657 938 l 659 885 q 703 840 661 847 l 703 840 l 752 846 q 946 948 904 864 z"},"C":{"ha":1556,"x_min":49,"x_max":1538,"o":"m 49 797 l 49 797 q 129 1140 73 1025 l 129 1140 q 448 1455 236 1362 l 448 1455 q 859 1538 637 1538 l 859 1538 q 1402 1334 1231 1538 l 1402 1334 q 1521 1033 1505 1213 l 1521 1033 l 1530 939 q 1315 923 1513 923 l 1315 923 l 1156 925 l 1143 925 l 1056 927 l 1032 926 l 1012 926 q 970 1008 984 926 q 926 1117 955 1090 q 857 1143 896 1143 q 789 1129 818 1143 q 740 1096 759 1115 q 708 1040 721 1076 l 708 1040 q 679 909 684 978 q 674 753 674 839 l 674 753 l 674 729 l 670 628 q 826 346 670 352 l 826 346 q 882 360 866 346 l 882 360 q 957 513 925 398 l 957 513 q 974 552 964 537 l 974 552 l 1012 552 l 1058 551 l 1220 551 l 1269 552 l 1364 551 l 1422 551 l 1481 550 l 1521 550 q 1538 529 1533 549 l 1538 529 l 1535 496 q 1480 282 1526 378 l 1480 282 q 1213 21 1395 106 q 812 -65 1030 -65 l 812 -65 q 240 160 431 -65 q 49 797 49 385 z"},"D":{"ha":1648,"x_min":115,"x_max":1625,"o":"m 400 1512 l 514 1512 l 701 1515 q 1388 1353 1190 1515 l 1388 1353 q 1480 1249 1430 1322 l 1480 1249 q 1625 783 1625 1038 l 1625 783 q 1312 110 1625 328 l 1312 110 q 882 -23 1125 -21 l 882 -23 l 878 -27 l 853 -27 l 587 -24 q 134 -33 406 -24 l 134 -33 q 115 52 115 3 l 115 52 l 116 88 l 116 244 l 118 466 l 118 832 q 116 1020 116 958 l 116 1020 l 116 1184 l 117 1207 l 117 1493 q 226 1507 117 1501 q 400 1512 335 1512 l 400 1512 z m 938 1166 l 938 1166 q 812 1212 881 1207 l 812 1212 q 747 1214 788 1213 q 686 1216 705 1215 l 686 1216 q 662 1176 668 1189 l 662 1176 l 644 1139 l 644 1083 q 652 614 644 910 l 652 614 l 658 325 q 698 288 664 294 l 698 288 q 857 302 801 290 l 857 302 q 1054 781 1054 372 l 1054 781 q 938 1166 1054 1084 z"},"E":{"ha":1306,"x_min":107,"x_max":1294,"o":"m 113 1093 l 114 1238 l 109 1501 q 116 1498 110 1501 l 116 1498 q 1261 1512 876 1511 l 1261 1512 q 1267 1506 1265 1510 l 1267 1506 l 1267 1224 q 1265 1157 1267 1183 l 1265 1157 q 1206 1141 1260 1141 l 1206 1141 l 1199 1141 q 695 1149 957 1141 l 695 1149 q 693 1117 695 1140 q 689 1084 690 1094 l 689 1084 l 684 1046 q 677 914 679 1008 l 677 914 l 987 921 q 1103 923 1067 923 l 1103 923 l 1119 923 q 1199 920 1180 923 q 1218 899 1218 916 l 1218 899 l 1217 891 l 1217 867 l 1222 610 l 1221 609 l 1221 610 q 735 595 917 595 l 735 595 l 688 595 l 688 353 l 1231 370 q 1288 357 1276 370 l 1288 357 q 1287 283 1287 331 l 1287 283 l 1294 11 q 1272 -18 1294 -14 l 1272 -18 l 940 -15 q 550 -22 842 -15 l 550 -22 l 386 -26 q 128 -32 212 -32 l 128 -32 l 125 -30 l 126 -30 q 107 -11 116 -20 l 107 -11 l 107 24 l 113 1093 z"},"F":{"ha":1265,"x_min":113,"x_max":1270,"o":"m 1270 1463 l 1270 1463 l 1269 1370 q 1265 1126 1269 1233 l 1265 1126 q 945 1116 1148 1116 l 945 1116 l 714 1115 l 714 1086 l 712 998 q 715 930 712 963 l 715 930 q 1086 951 965 951 q 1233 933 1206 951 l 1233 933 l 1233 598 q 1220 554 1233 565 q 1180 543 1207 543 l 1180 543 l 1167 543 l 1113 545 q 716 530 934 535 l 716 530 l 723 132 l 722 98 l 722 4 q 704 -28 722 -26 l 704 -28 l 132 -33 q 117 -6 130 -27 l 117 -6 q 113 106 113 60 l 113 106 l 119 1497 q 255 1510 119 1510 l 255 1510 l 280 1509 l 348 1509 l 831 1514 l 1174 1510 l 1208 1510 l 1223 1511 q 1261 1499 1251 1511 q 1270 1463 1270 1486 z"},"G":{"ha":1681,"x_min":52,"x_max":1625,"o":"m 1613 72 l 1613 58 q 1614 54 1613 57 l 1614 54 l 1611 46 l 1612 46 l 1612 44 q 1611 41 1612 42 l 1611 41 q 1382 -25 1564 5 q 1131 -55 1199 -55 q 1054 -54 1062 -55 l 1054 -54 l 1003 -57 q 911 -62 923 -62 l 911 -62 q 272 149 491 -62 q 52 749 52 360 q 289 1338 52 1137 q 929 1539 525 1539 l 929 1539 q 1112 1525 1003 1539 q 1302 1484 1220 1511 l 1302 1484 q 1474 1366 1402 1443 q 1567 1194 1545 1288 l 1567 1194 q 1577 1113 1571 1168 q 1586 1031 1582 1057 l 1586 1031 q 1543 1016 1580 1016 l 1543 1016 l 1035 1025 q 1025 1052 1031 1027 l 1025 1052 l 1025 1049 q 954 1148 1007 1130 l 954 1148 q 891 1157 930 1157 q 818 1144 852 1157 q 760 1108 783 1131 q 719 1055 737 1085 q 692 989 701 1024 q 676 917 683 954 q 668 844 669 880 q 665 775 666 808 q 664 721 663 742 q 665 692 665 699 l 665 692 l 665 623 q 671 533 665 558 q 685 477 677 507 q 704 430 693 446 l 704 430 q 789 354 743 375 q 931 332 834 332 q 1114 361 1027 332 l 1114 361 l 1119 519 l 1047 525 l 1037 520 l 933 520 l 921 519 l 896 545 q 894 599 894 562 l 894 599 l 894 823 q 918 857 894 840 l 918 857 l 985 857 q 1180 855 1072 857 l 1180 855 l 1190 855 q 1339 853 1288 853 l 1339 853 l 1399 853 l 1422 854 q 1625 831 1600 854 l 1625 831 l 1613 72 z"},"H":{"ha":1654,"x_min":102,"x_max":1565,"o":"m 1564 365 l 1564 342 l 1563 223 q 1565 -14 1563 148 l 1565 -14 q 1343 -33 1551 -33 q 971 -27 1135 -33 l 971 -27 q 952 -2 969 -25 l 952 -2 l 952 158 l 954 465 q 944 518 954 510 q 883 526 934 526 l 883 526 l 869 526 q 719 517 774 526 l 719 517 l 719 377 l 717 -10 q 466 -26 702 -26 l 466 -26 l 418 -26 q 121 -20 214 -26 l 121 -20 q 102 122 102 -14 l 102 122 l 108 343 l 118 1239 l 118 1287 q 119 1392 119 1302 q 130 1505 119 1481 l 130 1505 l 135 1505 q 232 1503 201 1503 l 232 1503 l 344 1503 l 465 1505 l 503 1505 q 701 1466 673 1505 l 701 1466 q 715 1405 715 1446 l 715 1405 l 712 1280 l 712 1233 l 706 1035 q 709 977 706 1013 l 709 977 l 771 977 l 796 976 l 876 976 q 966 983 920 976 l 966 983 l 966 1220 l 967 1294 l 967 1363 l 966 1379 l 966 1430 q 972 1502 966 1489 q 1000 1515 977 1515 l 1000 1515 l 1020 1514 l 1085 1514 l 1301 1520 q 1559 1479 1559 1520 l 1559 1479 l 1559 1408 l 1560 1384 l 1559 1332 l 1559 1177 l 1564 539 q 1562 497 1564 523 l 1562 497 l 1562 449 q 1564 365 1562 417 l 1564 365 z"},"I":{"ha":842,"x_min":99,"x_max":737,"o":"m 100 -3 l 103 107 q 114 389 103 310 l 114 389 q 126 1266 114 824 l 126 1266 q 123 1393 123 1329 l 123 1393 l 123 1426 q 119 1481 119 1457 q 124 1512 119 1505 l 124 1512 q 499 1499 338 1499 q 720 1505 660 1499 l 720 1505 q 723 1488 722 1502 l 723 1488 l 716 1488 l 716 1126 l 723 312 q 726 297 723 303 l 726 297 l 726 295 q 729 282 729 289 l 729 282 l 737 -9 q 719 -26 732 -20 l 719 -26 l 685 -26 l 125 -35 q 99 -20 115 -30 l 99 -20 l 100 -3 z"},"J":{"ha":1383,"x_min":-11,"x_max":1300,"o":"m 1 501 l 130 497 l 250 496 l 285 496 l 298 497 l 467 494 q 517 438 512 491 l 517 438 q 522 396 519 417 l 522 396 q 595 346 529 346 q 678 408 660 346 l 678 408 q 691 522 691 456 l 691 522 l 691 548 l 688 548 l 684 690 q 680 1101 680 829 q 684 1495 680 1373 l 684 1495 l 683 1496 q 689 1508 683 1504 l 689 1508 l 702 1510 l 751 1509 l 1117 1509 l 1190 1510 l 1288 1510 q 1300 1501 1296 1510 l 1300 1501 q 1298 1434 1298 1479 l 1298 1434 l 1298 1418 l 1297 1401 l 1295 1350 q 1288 786 1288 1160 l 1288 786 l 1288 676 q 1287 441 1288 535 q 1241 252 1286 346 q 1127 101 1195 157 q 968 7 1058 44 l 968 7 q 636 -58 809 -58 q 347 -23 463 -58 l 347 -23 q 177 57 244 3 q 72 158 109 110 l 72 158 q -10 424 -10 266 l -10 424 l -10 450 l -11 462 q 1 501 -11 501 l 1 501 z"},"K":{"ha":1646,"x_min":110,"x_max":1692,"o":"m 112 865 l 115 1360 l 112 1446 q 123 1514 112 1501 l 123 1514 q 226 1515 150 1515 q 356 1514 301 1515 l 356 1514 l 497 1512 q 610 1515 536 1515 q 704 1495 684 1515 l 704 1495 q 699 915 699 1251 l 699 915 l 734 909 q 789 1026 749 948 q 834 1117 828 1104 l 834 1117 l 845 1141 q 882 1219 849 1150 q 948 1373 914 1287 q 1021 1507 982 1458 l 1021 1507 q 1192 1508 1091 1508 q 1426 1505 1292 1508 q 1627 1501 1560 1501 l 1627 1501 q 1222 788 1342 986 l 1222 788 l 1245 751 q 1424 460 1286 700 q 1624 119 1562 220 l 1624 119 l 1648 80 q 1692 -3 1692 7 q 1686 -21 1692 -13 l 1686 -21 l 1680 -21 q 1590 -19 1624 -19 q 1499 -21 1555 -19 l 1499 -21 l 1050 -21 q 730 604 896 267 l 730 604 q 706 226 722 524 l 706 226 l 706 213 l 708 -14 q 603 -32 696 -32 l 603 -32 l 582 -31 l 528 -31 l 245 -33 l 153 -33 q 113 -12 125 -33 l 113 -12 l 110 -9 l 110 143 l 112 300 l 112 865 z"},"L":{"ha":1265,"x_min":116,"x_max":1270,"o":"m 1270 384 l 1270 384 q 1263 324 1263 356 l 1263 324 l 1263 301 q 1270 225 1263 248 l 1270 225 q 1269 -8 1270 74 l 1269 -8 q 282 -34 1263 -34 l 282 -34 q 133 -32 237 -34 l 133 -32 q 117 67 117 -2 l 117 67 l 119 132 l 119 359 l 120 549 l 120 737 l 121 1040 q 119 1198 121 1124 l 119 1198 l 119 1209 l 116 1353 q 137 1518 116 1480 l 137 1518 q 192 1517 157 1517 l 192 1517 l 240 1517 l 408 1519 q 724 1483 695 1519 l 724 1483 l 716 1134 l 713 841 l 712 829 l 708 413 l 748 390 q 1099 401 929 401 q 1270 384 1268 401 z"},"M":{"ha":2193,"x_min":130,"x_max":2131,"o":"m 668 862 l 631 860 q 619 278 619 577 l 619 278 l 619 -20 l 546 -20 l 521 -19 l 166 -22 q 130 -23 132 -22 l 130 -23 q 134 -6 130 -22 l 134 -6 l 134 0 l 135 4 q 130 179 130 76 l 130 179 l 134 1296 l 133 1348 l 133 1398 l 131 1492 q 142 1513 131 1502 l 142 1513 l 279 1513 l 359 1514 q 763 1506 641 1514 q 937 1498 884 1498 l 937 1498 q 1023 1042 966 1326 l 1023 1042 l 1094 684 l 1129 684 l 1257 1338 q 1271 1426 1260 1353 q 1288 1506 1282 1498 l 1288 1506 l 1292 1506 l 1943 1512 l 1982 1511 l 2094 1511 q 2104 1474 2103 1507 l 2104 1474 l 2114 1096 q 2131 364 2126 626 l 2131 364 q 2125 -15 2131 162 l 2125 -15 q 2085 -29 2122 -27 l 2085 -29 l 2040 -31 q 1960 -33 1986 -33 l 1960 -33 l 1908 -33 q 1622 -34 1811 -34 l 1622 -34 q 1587 234 1587 -3 l 1587 234 l 1589 548 l 1589 629 q 1588 787 1589 736 l 1588 787 l 1550 794 q 1423 255 1517 673 l 1423 255 l 1414 215 q 1391 105 1407 184 q 1364 -16 1374 25 l 1364 -16 q 1258 -30 1352 -30 l 1258 -30 l 1245 -30 l 1133 -27 l 1072 -28 l 1025 -28 l 946 -29 l 918 -29 q 867 -8 872 -29 l 867 -8 l 868 -9 l 777 388 q 759 454 773 403 q 743 538 745 504 l 743 538 l 668 862 z"},"N":{"ha":1727,"x_min":90,"x_max":1629,"o":"m 1627 700 l 1627 700 l 1626 633 l 1626 263 l 1628 87 l 1628 37 l 1629 -10 q 1580 -18 1623 -18 l 1580 -18 l 1554 -18 l 1240 -22 q 942 -21 1040 -22 l 942 -21 q 833 270 927 -5 l 833 270 l 642 777 l 606 772 l 605 670 l 605 399 l 609 128 l 609 16 q 589 -31 609 -29 l 589 -31 q 400 -28 490 -28 l 400 -28 l 369 -28 l 218 -32 l 198 -32 l 126 -34 l 123 -32 q 90 13 90 -1 l 90 13 l 90 31 l 91 51 l 96 441 q 108 1412 96 1083 l 108 1412 l 110 1495 q 799 1511 110 1504 l 799 1511 q 817 1467 805 1507 l 817 1467 l 817 1470 l 823 1450 q 1003 964 897 1238 q 1111 683 1109 689 l 1111 683 l 1145 685 l 1149 1500 q 1295 1508 1149 1508 l 1295 1508 l 1546 1503 l 1620 1503 q 1627 700 1627 1172 z"},"O":{"ha":1645,"x_min":35,"x_max":1608,"o":"m 614 811 l 610 760 q 609 755 610 759 l 609 755 l 609 752 q 605 658 605 710 q 614 548 605 606 q 642 432 622 490 q 702 338 661 374 l 702 338 q 801 300 746 300 q 893 316 855 300 q 956 355 930 331 q 1000 420 981 379 l 1000 420 q 1048 758 1048 529 l 1048 758 q 995 1085 1048 991 q 833 1178 941 1178 l 833 1178 q 739 1152 779 1178 q 678 1098 698 1126 q 636 979 657 1070 q 614 811 614 888 l 614 811 z m 35 752 l 35 752 l 37 774 q 69 996 49 899 q 134 1176 89 1092 l 134 1176 q 433 1457 241 1361 q 846 1552 624 1552 q 1248 1463 1067 1552 l 1248 1463 q 1417 1329 1356 1410 l 1417 1329 q 1571 1060 1534 1183 q 1608 776 1608 937 l 1608 776 q 1460 230 1608 418 l 1460 230 l 1414 169 q 1151 3 1321 61 q 814 -58 981 -56 l 814 -58 q 345 62 528 -58 l 345 62 q 35 752 35 263 z"},"P":{"ha":1527,"x_min":117,"x_max":1531,"o":"m 117 120 l 117 661 l 119 1072 l 119 1489 q 138 1490 121 1490 l 138 1490 l 175 1490 q 207 1492 196 1490 l 207 1492 l 331 1497 q 405 1499 379 1499 l 405 1499 l 564 1499 l 858 1506 q 990 1501 918 1506 l 990 1501 l 997 1501 q 1040 1503 1031 1503 l 1040 1503 q 1382 1376 1240 1503 l 1382 1376 q 1491 1219 1451 1315 q 1531 1021 1531 1123 q 1510 846 1531 918 q 1456 724 1489 774 l 1456 724 q 945 488 1324 522 l 945 488 l 729 479 q 719 106 719 239 l 719 106 l 720 75 l 720 -6 q 705 -25 716 -20 l 705 -25 l 134 -34 q 117 120 117 14 l 117 120 z m 992 1090 l 992 1090 q 780 1202 952 1195 l 780 1202 q 711 1203 755 1203 l 711 1203 q 696 908 699 1203 l 696 908 l 694 833 l 697 773 q 914 825 820 775 q 1007 1007 1007 875 l 1007 1007 q 992 1090 1007 1063 z"},"Q":{"ha":1642,"x_min":49,"x_max":1662,"o":"m 1474 366 l 1529 366 l 1594 368 q 1662 324 1662 365 l 1662 324 q 1661 313 1662 324 l 1661 313 l 1661 303 q 1660 279 1660 296 l 1660 279 l 1660 242 l 1661 229 l 1662 132 l 1661 106 l 1661 57 l 1660 22 l 1661 5 l 1661 -23 q 1638 -46 1657 -37 l 1638 -46 q 1381 -30 1510 -30 q 1071 -50 1252 -30 q 802 -70 890 -70 l 802 -70 q 446 13 591 -70 q 199 251 300 95 l 199 251 q 186 249 186 251 l 186 249 l 172 263 q 49 747 49 455 l 49 747 q 95 1055 49 917 l 95 1055 q 404 1436 179 1307 l 404 1436 q 869 1552 604 1552 l 869 1552 q 1186 1493 1043 1552 q 1422 1330 1328 1434 l 1422 1330 q 1617 787 1617 1114 l 1617 787 q 1579 570 1617 683 q 1474 366 1541 457 l 1474 366 z m 816 288 l 816 288 l 828 289 l 846 289 l 866 287 q 967 332 929 287 q 1015 420 1005 377 l 1015 420 q 1046 664 1042 526 l 1046 664 l 1046 682 l 1049 812 q 1013 1072 1049 989 q 916 1182 977 1155 l 916 1182 q 822 1199 880 1199 q 715 1154 763 1199 q 636 1002 667 1108 q 605 733 605 896 q 618 512 605 570 l 618 512 q 690 340 644 392 q 816 288 735 288 z"},"R":{"ha":1561,"x_min":103,"x_max":1576,"o":"m 421 1502 l 559 1504 l 880 1507 q 1065 1503 982 1507 l 1065 1503 q 1405 1398 1288 1497 q 1521 1119 1521 1299 l 1521 1119 q 1448 906 1521 994 q 1235 750 1375 817 l 1235 750 q 1504 410 1457 680 l 1504 410 q 1522 275 1515 351 q 1532 173 1528 199 l 1532 173 l 1542 122 q 1570 -8 1558 32 l 1570 -8 l 1566 -11 q 1256 -22 1396 -22 q 1007 -17 1115 -22 l 1007 -17 l 1001 -17 q 935 278 970 -17 l 935 278 l 930 321 q 892 469 926 431 q 772 507 857 507 l 772 507 l 759 506 l 706 506 l 706 202 l 707 170 l 707 -13 q 692 -25 704 -23 l 692 -25 q 382 -29 582 -29 q 117 -30 181 -29 l 117 -30 l 111 -28 l 109 -29 q 103 -26 107 -29 l 103 -26 l 105 64 l 104 94 l 108 509 l 108 582 l 109 657 l 110 916 l 111 950 l 108 1177 q 112 1496 108 1177 l 112 1496 q 169 1504 112 1504 l 169 1504 l 233 1503 l 294 1503 l 421 1502 z m 1576 -5 l 1576 -5 l 1571 -8 l 1571 -6 q 1576 -5 1571 -5 z m 1570 -8 l 1571 -8 l 1571 -9 q 1570 -8 1570 -9 l 1570 -8 z m 929 1178 l 929 1178 q 769 1204 869 1204 l 769 1204 l 711 1204 q 700 1036 700 1188 q 705 831 700 883 l 705 831 q 1018 1047 1018 838 l 1018 1047 q 929 1178 1018 1136 z"},"S":{"ha":1484,"x_min":53,"x_max":1473,"o":"m 62 413 l 62 413 l 591 422 q 625 388 611 422 q 651 334 638 354 l 651 334 q 754 286 682 286 q 869 320 825 286 q 913 406 913 353 q 886 479 913 459 q 827 517 859 498 q 733 545 795 535 q 664 557 670 555 l 664 557 l 666 557 l 609 572 q 517 594 554 582 l 517 594 q 172 755 278 658 q 65 1016 65 852 l 65 1016 q 109 1230 65 1135 q 224 1385 153 1325 l 224 1385 q 790 1558 429 1558 l 790 1558 q 1241 1454 1077 1558 l 1241 1454 l 1240 1454 q 1384 1305 1345 1378 q 1433 1123 1423 1231 l 1433 1123 l 1407 1097 q 941 1087 1144 1087 l 941 1087 q 868 1123 880 1087 l 868 1123 q 857 1153 863 1138 l 857 1153 q 767 1189 843 1189 l 767 1189 l 763 1189 q 662 1162 704 1189 q 620 1108 620 1134 q 631 1065 619 1082 q 655 1038 642 1048 q 695 1018 668 1028 q 736 1004 722 1007 q 778 992 749 1000 l 778 992 l 813 983 q 936 953 834 977 q 1105 907 1037 929 l 1105 907 l 1105 908 q 1396 729 1318 836 q 1473 478 1473 621 l 1473 478 q 1018 -16 1473 97 l 1018 -16 q 736 -63 886 -49 l 736 -63 q 372 -9 552 -63 q 131 167 192 45 l 131 167 q 76 276 90 226 q 53 414 62 325 l 53 414 q 62 413 56 413 z"},"T":{"ha":1318,"x_min":-4,"x_max":1337,"o":"m 1336 1215 l 1337 1135 q 1330 1102 1337 1102 l 1330 1102 q 968 1105 1330 1102 l 968 1105 q 966 802 966 1008 q 967 516 966 596 l 967 516 l 971 -14 q 951 -29 966 -28 l 951 -29 l 740 -26 l 739 -27 l 673 -26 l 490 -26 q 379 -27 416 -26 l 379 -27 l 362 -12 q 349 4 361 -11 l 349 4 q 356 395 349 92 l 356 395 l 367 927 l 365 952 q 352 1070 358 1051 q 326 1090 345 1088 q 298 1091 307 1091 l 298 1091 l 258 1089 l 10 1093 q -3 1210 -3 1119 l -3 1210 l -1 1298 l -1 1325 q -4 1496 -2 1485 l -4 1496 q 4 1494 -2 1496 l 4 1494 l 1277 1505 q 1326 1500 1316 1505 q 1336 1479 1336 1494 l 1336 1479 l 1336 1215 z"},"U":{"ha":1615,"x_min":104,"x_max":1553,"o":"m 1545 834 l 1546 775 l 1543 494 q 1502 266 1543 365 q 1392 106 1460 167 l 1392 106 q 845 -62 1207 -62 q 282 114 483 -62 l 282 114 q 163 273 211 175 q 104 493 114 370 l 104 493 q 109 1266 109 911 l 109 1266 q 104 1371 104 1266 q 113 1501 104 1476 l 113 1501 l 134 1501 q 535 1509 281 1509 l 535 1509 q 601 1504 553 1505 q 666 1501 648 1503 l 666 1501 l 697 1497 q 706 952 704 1299 l 706 952 l 700 550 q 816 350 700 350 l 816 350 q 899 393 865 350 q 934 490 932 436 l 934 490 l 938 500 l 941 837 l 942 867 q 936 1315 942 1099 l 936 1315 l 934 1388 q 932 1467 932 1432 q 943 1515 932 1502 l 943 1515 q 1525 1512 1329 1515 l 1525 1512 q 1543 1499 1532 1505 l 1543 1499 l 1542 1499 l 1553 1492 q 1545 1006 1545 1303 l 1545 1006 l 1545 834 z"},"V":{"ha":1555,"x_min":-21,"x_max":1594,"o":"m 1073 -25 l 1068 -25 l 942 -22 l 867 -22 q 729 -26 835 -26 q 412 -31 622 -26 l 412 -31 q 339 172 373 4 q 253 516 305 339 q 187 738 200 692 l 187 738 l 157 844 q 112 1001 144 890 l 112 1001 q -21 1500 11 1344 l -21 1500 q 565 1508 -21 1508 l 565 1508 q 593 1495 583 1508 l 593 1495 q 771 473 672 1026 l 771 473 l 779 420 l 819 420 l 828 472 q 946 1101 859 667 l 946 1101 l 970 1214 q 1025 1498 982 1271 l 1025 1498 q 1534 1510 1071 1510 l 1534 1510 l 1579 1510 q 1594 1497 1591 1503 l 1594 1497 l 1393 770 q 1367 669 1371 691 l 1367 669 l 1320 485 q 1158 -27 1207 4 l 1158 -27 q 1073 -25 1131 -27 l 1073 -25 z"},"W":{"ha":2130,"x_min":-41,"x_max":2193,"o":"m 815 1506 l 815 1506 l 989 1507 l 1378 1507 q 1384 1505 1382 1507 l 1384 1505 l 1420 1271 q 1466 964 1434 1169 q 1505 704 1497 758 l 1505 704 l 1513 650 l 1551 650 q 1649 1411 1577 939 l 1649 1411 l 1653 1434 q 1654 1456 1654 1442 l 1654 1456 q 1664 1496 1655 1480 q 1716 1511 1672 1511 l 1716 1511 q 2185 1493 2037 1511 l 2185 1493 q 2193 1470 2189 1489 l 2193 1470 q 2114 1121 2169 1358 q 2032 760 2059 884 l 2032 760 l 2024 723 q 2012 687 2022 717 q 2002 645 2001 657 l 2002 645 l 1932 328 l 1900 171 q 1863 -20 1873 38 l 1863 -20 l 1858 -18 q 1645 -22 1788 -22 l 1645 -22 l 1489 -22 l 1435 -21 q 1229 -25 1322 -21 l 1229 -25 q 1200 133 1220 -25 q 1178 302 1180 291 l 1178 302 l 1169 352 q 1105 795 1137 562 l 1105 795 l 1068 796 q 967 82 1011 502 l 967 82 q 924 -33 956 -28 l 924 -33 q 647 -28 781 -28 q 303 -35 513 -28 l 303 -35 q 259 86 274 -12 l 259 86 l 253 125 q 95 869 215 327 l 95 869 l 74 966 q 24 1196 62 1024 q -41 1500 -14 1367 l -41 1500 q -27 1514 -40 1508 l -27 1514 q 22 1511 -4 1511 l 22 1511 l 34 1511 l 129 1514 l 267 1517 q 372 1514 335 1517 l 372 1514 l 435 1514 q 468 1512 444 1514 l 468 1512 l 482 1512 q 572 1012 514 1512 l 572 1012 q 603 748 598 786 l 603 748 l 610 691 l 649 690 q 731 1232 686 922 l 731 1232 q 747 1375 731 1268 q 780 1507 763 1482 l 780 1507 q 815 1506 791 1506 z"},"X":{"ha":1600,"x_min":-27,"x_max":1651,"o":"m 1632 1488 l 1632 1488 l 1631 1480 l 1395 1102 q 1339 1013 1393 1098 l 1339 1013 l 1167 740 l 1189 700 l 1220 657 l 1306 526 l 1330 484 q 1357 442 1338 470 q 1378 411 1376 414 l 1378 411 l 1378 412 l 1558 134 l 1558 135 l 1648 -8 q 1651 -15 1651 -11 l 1651 -15 q 1601 -32 1651 -29 l 1601 -32 l 1088 -36 q 1005 -22 1028 -36 l 1005 -22 q 981 29 998 -4 q 959 73 964 62 l 959 73 l 798 410 q 719 252 739 298 l 719 252 q 563 -30 610 15 l 563 -30 q 230 -26 411 -26 l 230 -26 q 165 -27 230 -26 l 165 -27 l -22 -27 q -27 -21 -27 -24 l -27 -21 q 69 150 -27 8 l 69 150 q 79 165 76 157 l 79 165 l 455 754 l 363 905 q 150 1272 254 1099 l 150 1272 l 11 1502 q 10 1506 10 1504 l 10 1506 l 169 1506 q 481 1498 364 1506 l 481 1498 q 622 1499 573 1498 l 622 1499 q 779 1174 660 1462 l 779 1174 l 794 1134 l 828 1067 l 859 1137 q 951 1343 889 1209 q 1031 1498 1013 1477 l 1031 1498 l 1036 1495 l 1150 1499 q 1623 1511 1484 1511 l 1623 1511 q 1632 1488 1632 1506 z m 1648 -5 l 1650 -8 l 1648 -8 l 1648 -5 z m 1647 -2 l 1647 -2 l 1648 -5 q 1647 -2 1647 -4 z"},"Y":{"ha":1524,"x_min":-33,"x_max":1578,"o":"m 1357 1507 l 1530 1507 l 1563 1508 q 1578 1483 1573 1503 l 1578 1483 l 1548 1424 l 1548 1425 l 1483 1300 q 1293 937 1336 1028 l 1293 937 l 1259 872 q 1072 498 1204 766 l 1072 498 q 1070 396 1070 464 l 1070 396 l 1070 -17 q 1050 -33 1065 -33 l 1050 -33 l 477 -37 q 455 27 455 -9 l 455 27 l 457 152 l 457 181 l 458 211 l 459 284 q 352 732 459 493 l 352 732 q 285 873 329 782 l 285 873 l 136 1171 q 104 1232 130 1182 q 47 1340 78 1282 l 47 1340 l 47 1339 q -33 1501 -33 1461 l -33 1501 q -1 1506 -33 1506 l -1 1506 l 256 1506 q 577 1503 469 1506 l 577 1503 q 744 1022 609 1497 l 744 1022 l 789 863 q 1004 1501 891 1135 l 1004 1501 q 1152 1509 1005 1509 l 1152 1509 l 1280 1509 q 1357 1507 1326 1509 l 1357 1507 z"},"Z":{"ha":1395,"x_min":19,"x_max":1379,"o":"m 1351 1389 l 1351 1379 l 1348 1179 l 1348 1166 q 1129 844 1333 1066 l 1129 844 l 1052 760 q 843 510 923 608 l 843 510 l 729 371 l 782 371 l 1362 379 q 1377 201 1377 379 l 1377 201 l 1377 89 l 1379 24 q 1367 -16 1379 -8 q 1322 -25 1354 -25 l 1322 -25 l 1296 -25 l 97 -35 q 55 -29 69 -35 q 26 -1 41 -23 l 26 -1 q 19 339 26 272 l 19 339 l 35 352 l 176 523 q 657 1116 486 911 l 657 1116 l 362 1113 l 288 1111 q 69 1108 179 1108 l 69 1108 q 60 1138 58 1114 q 59 1176 61 1162 l 59 1176 l 59 1195 l 60 1203 l 60 1262 l 51 1491 l 52 1497 q 61 1493 54 1497 l 61 1493 q 258 1493 87 1493 q 1070 1503 428 1493 l 1070 1503 l 1287 1506 q 1337 1494 1321 1505 q 1353 1445 1353 1482 l 1353 1445 l 1351 1389 z"},"[":{"ha":1035,"x_min":172,"x_max":992,"o":"m 342 1529 l 380 1529 l 876 1537 q 966 1507 944 1537 q 988 1431 988 1476 l 988 1431 q 985 1194 988 1215 l 985 1194 q 862 1192 927 1192 q 647 1204 797 1192 l 647 1204 q 641 490 641 786 q 646 27 641 194 l 646 27 l 936 31 l 973 31 q 992 -112 992 12 l 992 -112 l 990 -212 l 990 -237 l 992 -266 q 969 -330 992 -327 l 969 -330 l 210 -339 l 197 -325 q 172 -246 172 -299 l 172 -246 l 174 -189 l 174 -112 l 175 -85 l 175 49 q 198 1523 175 1032 l 198 1523 q 228 1531 198 1531 l 228 1531 l 342 1529 z m 985 1193 l 985 1193 l 987 1194 q 985 1193 986 1193 z"},"\\":{"ha":809,"x_min":-26,"x_max":859,"o":"m 266 1565 l 268 1564 q 267 1547 267 1559 q 540 813 267 1534 l 540 813 l 598 656 q 728 306 641 539 q 857 -44 814 73 l 857 -44 q 859 -56 857 -51 l 859 -56 q 838 -72 859 -72 l 838 -72 l 798 -72 l 776 -73 l 659 -73 l 628 -72 l 600 -72 q 521 -74 535 -72 l 521 -74 l 422 222 q -26 1565 137 1088 l -26 1565 l -20 1569 q 152 1563 85 1563 q 266 1565 218 1563 l 266 1565 z"},"]":{"ha":1036,"x_min":64,"x_max":890,"o":"m 870 628 l 866 452 l 856 -214 l 856 -293 q 845 -326 856 -314 l 845 -326 q 698 -330 777 -330 l 698 -330 l 665 -330 l 362 -327 q 87 -324 109 -324 l 87 -324 q 77 -302 79 -322 l 77 -302 l 77 -299 q 72 -79 72 -159 q 78 12 72 1 q 99 22 83 22 l 99 22 l 131 22 q 416 25 329 22 l 416 25 l 416 140 q 402 1173 416 489 l 402 1173 l 252 1173 l 86 1170 q 64 1195 68 1188 l 64 1195 l 64 1394 l 65 1447 l 65 1479 l 64 1492 q 76 1547 64 1533 l 76 1547 l 158 1547 l 348 1545 l 490 1546 l 560 1546 l 633 1547 l 880 1537 l 880 1466 l 879 1417 l 879 1242 q 870 628 879 1089 l 870 628 z m 890 1537 l 880 1537 l 880 1547 l 890 1537 z"},"^":{"ha":1275,"x_min":133,"x_max":1158,"o":"m 1007 756 l 1007 756 l 904 759 l 882 759 q 844 808 867 759 q 810 880 821 856 q 794 913 799 904 l 794 913 l 754 995 q 647 1218 699 1117 l 647 1218 l 439 781 q 429 772 432 774 l 429 772 l 409 772 l 197 770 l 170 771 q 155 769 159 771 l 155 769 q 307 1087 211 895 l 307 1087 l 384 1248 q 453 1392 407 1295 q 522 1535 499 1488 l 522 1535 l 524 1537 q 688 1536 605 1536 q 776 1537 770 1536 l 776 1537 q 780 1518 777 1536 l 780 1518 q 969 1150 842 1395 q 1158 782 1096 904 l 1158 782 q 1007 756 1146 756 z m 137 769 l 154 768 l 151 761 l 145 761 l 137 769 z m 134 771 l 137 768 l 133 768 l 134 771 z m 151 761 l 154 767 q 151 761 154 762 l 151 761 z m 155 769 l 155 769 l 154 768 q 155 769 154 769 z"},"_":{"ha":1050,"x_min":-15,"x_max":1091,"o":"m 0 -168 l 326 -168 l 700 -166 q 985 -169 924 -166 q 1061 -182 1046 -172 q 1076 -232 1076 -192 l 1076 -232 l 1075 -262 q 1060 -279 1075 -279 l 1060 -279 l 1048 -279 l 980 -278 l 938 -278 l 894 -277 q 14 -302 473 -277 l 14 -302 l -9 -272 l -9 -269 q -15 -203 -15 -239 q 0 -168 -15 -168 l 0 -168 z m 1074 -275 l 1091 -286 l 1073 -277 l 1074 -275 z"},"`":{"ha":633,"x_min":-117,"x_max":593,"o":"m 532 1430 l 214 1430 l 205 1426 q 169 1470 203 1428 l 169 1470 l 169 1469 l 138 1507 q -34 1698 49 1614 q -117 1806 -117 1781 l -117 1806 q -108 1819 -117 1811 l -108 1819 q 332 1801 97 1801 l 332 1801 l 362 1801 l 368 1802 q 472 1649 390 1786 q 573 1483 553 1511 q 593 1442 593 1454 q 532 1430 593 1430 l 532 1430 z"},"a":{"ha":1575,"x_min":35,"x_max":1514,"o":"m 518 657 l 564 664 l 574 663 l 598 663 q 651 668 632 663 l 651 668 l 705 675 q 871 749 843 685 l 871 749 q 885 830 885 781 l 885 830 q 879 868 879 840 q 851 927 879 896 q 783 958 822 958 l 783 958 l 778 958 q 682 795 682 958 l 682 795 q 666 789 677 787 q 610 791 654 791 l 610 791 l 94 791 q 130 940 99 860 l 130 940 q 359 1162 189 1094 q 695 1235 528 1229 l 695 1235 l 755 1238 l 787 1241 q 799 1238 793 1241 l 799 1238 l 812 1238 l 857 1240 q 920 1233 871 1240 l 920 1233 l 949 1229 q 971 1228 956 1228 q 1034 1222 986 1228 q 1154 1187 1082 1215 l 1154 1187 q 1450 819 1398 1091 l 1450 819 q 1472 564 1472 704 l 1472 564 q 1479 522 1479 541 l 1479 522 l 1474 453 l 1474 337 q 1475 320 1475 335 l 1475 320 l 1473 252 l 1473 243 q 1476 229 1476 238 l 1476 229 l 1475 220 l 1475 199 q 1504 19 1475 104 l 1504 19 l 1514 -3 l 1062 -3 l 1026 -2 q 965 -3 986 -2 l 965 -3 q 904 161 933 57 l 904 161 q 860 100 891 134 q 813 65 828 65 l 813 65 q 588 -17 665 -7 l 588 -17 q 466 -36 474 -36 q 457 -36 457 -36 l 457 -36 q 96 130 218 -36 l 96 130 q 35 327 35 215 l 35 327 q 261 625 35 570 l 261 625 q 485 654 319 639 l 485 654 l 518 657 z m 892 402 l 892 432 l 893 464 q 885 560 893 514 l 885 560 q 821 533 863 548 q 754 508 779 518 q 709 471 729 497 q 688 398 688 444 q 718 314 688 352 q 782 276 747 276 l 782 276 q 889 330 857 276 l 889 330 l 891 340 l 892 402 z"},"b":{"ha":1524,"x_min":38,"x_max":1478,"o":"m 1476 677 l 1476 677 l 1478 659 l 1478 653 l 1477 602 q 1172 2 1472 128 l 1172 2 q 960 -36 1080 -36 l 960 -36 q 640 111 796 -36 l 640 111 l 594 79 l 551 -5 l 39 -5 l 38 775 l 38 1555 q 637 1557 243 1557 l 637 1557 q 639 1331 639 1463 q 637 1080 639 1198 l 637 1080 q 824 1197 725 1155 q 1012 1239 923 1239 l 1012 1239 q 1299 1123 1183 1239 l 1299 1123 q 1334 1085 1322 1104 q 1352 1061 1346 1066 l 1352 1061 l 1352 1062 l 1362 1054 q 1459 842 1423 973 l 1459 842 q 1477 726 1477 765 q 1476 677 1477 687 z m 858 546 l 858 559 q 839 734 858 655 l 839 734 q 729 882 803 882 l 729 882 q 636 788 669 882 q 603 524 603 694 l 603 524 q 662 322 603 408 l 662 322 q 730 277 694 277 q 791 304 765 277 q 838 392 817 330 q 858 492 858 453 q 857 533 858 530 l 857 533 l 857 535 q 858 546 858 539 l 858 546 z"},"c":{"ha":1520,"x_min":0,"x_max":1492,"o":"m 786 -31 l 786 -31 l 706 -36 q 586 -22 645 -36 l 586 -22 q 478 -1 546 -22 l 478 -1 q 138 186 250 53 l 138 186 l 120 207 q 7 508 33 319 l 7 508 l 4 529 q 0 606 0 561 q 17 726 0 650 l 17 726 q 282 1114 80 1007 l 282 1114 l 417 1186 q 791 1240 567 1240 l 791 1240 q 948 1218 876 1240 l 948 1218 l 968 1212 q 967 1213 967 1212 l 967 1213 l 969 1213 q 1420 915 1308 1123 l 1420 915 l 1422 908 q 1489 682 1472 807 l 1489 682 l 1466 690 l 840 690 l 835 727 q 781 880 819 842 l 781 880 l 761 892 q 662 652 673 886 l 662 652 q 659 614 661 620 l 659 614 l 660 582 l 663 524 q 664 509 663 517 l 664 509 l 674 499 l 663 499 q 695 384 668 424 q 748 344 721 344 l 748 344 q 818 406 799 344 q 837 519 837 468 l 837 519 q 1069 523 914 523 l 1069 523 l 1107 523 l 1203 522 l 1299 522 l 1492 521 q 1189 67 1461 200 l 1189 67 q 1134 44 1169 60 l 1134 44 l 1096 26 q 805 -35 937 -35 l 805 -35 q 786 -31 791 -35 z"},"d":{"ha":1528,"x_min":33,"x_max":1473,"o":"m 871 1182 l 871 1188 l 874 1289 l 874 1554 l 1172 1554 l 1472 1555 q 1473 -6 1472 1555 l 1473 -6 l 963 -6 q 932 57 942 28 l 932 57 l 892 127 q 712 3 796 42 q 504 -36 627 -36 l 504 -36 q 169 122 305 -36 q 33 527 33 280 l 33 527 q 70 835 33 690 l 70 835 q 199 1097 110 975 q 431 1234 288 1218 l 431 1234 l 446 1233 l 531 1239 q 808 1132 653 1239 l 808 1132 l 829 1119 l 828 1120 q 857 1098 851 1105 l 857 1098 l 888 1112 q 871 1182 871 1163 l 871 1182 z m 657 573 l 657 573 l 656 538 l 656 510 q 677 397 656 455 l 677 397 l 676 398 q 716 322 683 368 q 783 275 749 275 l 783 275 q 804 280 796 275 l 804 280 q 908 560 908 325 l 908 560 q 854 820 908 723 l 854 820 q 782 880 821 880 q 712 820 742 880 l 712 820 q 657 573 657 711 z"},"e":{"ha":1475,"x_min":-11,"x_max":1427,"o":"m 554 1227 l 553 1226 q 649 1239 598 1239 q 746 1235 700 1239 l 746 1235 l 788 1231 q 940 1208 887 1222 l 940 1208 l 940 1209 l 961 1200 q 1288 1002 1171 1135 l 1288 1002 l 1288 1003 q 1355 907 1315 971 q 1394 817 1394 842 l 1394 817 l 1402 790 l 1407 761 q 1426 649 1426 694 q 1427 580 1426 604 l 1427 580 l 603 580 l 603 547 q 609 499 609 524 q 610 460 609 474 q 612 432 610 445 q 615 410 614 418 q 619 390 615 401 q 624 374 623 378 q 630 358 624 370 q 639 336 635 346 q 652 315 642 325 l 652 315 l 652 316 l 663 295 q 715 265 682 274 l 715 265 q 790 322 770 277 q 822 434 809 367 l 822 434 q 924 444 858 444 l 924 444 l 1052 441 l 1421 441 q 1349 217 1409 319 l 1349 217 l 1350 217 q 1188 76 1298 135 l 1188 76 q 789 -33 877 -33 l 789 -33 q 763 -31 773 -33 l 763 -31 l 740 -31 l 731 -32 l 722 -32 q 702 -30 714 -32 l 702 -30 q 678 -36 692 -36 l 678 -36 l 591 -26 q 563 -29 584 -29 q 450 -2 541 -29 l 450 -2 l 450 -3 l 426 4 l 402 12 q 145 167 252 56 q 8 424 38 277 l 8 424 q -3 479 5 442 q -11 528 -11 515 l -11 528 l -11 576 q -10 602 -11 593 l -10 602 l -10 617 q 116 984 -10 829 q 454 1201 242 1138 l 454 1201 l 478 1208 q 554 1227 531 1217 l 554 1227 z m 722 712 l 852 712 l 873 725 q 841 864 856 833 q 812 916 826 894 l 812 916 q 744 958 786 958 q 671 916 701 958 l 671 916 q 604 708 618 842 l 604 708 q 722 712 668 712 l 722 712 z"},"f":{"ha":893,"x_min":46,"x_max":832,"o":"m 164 1135 l 164 1173 l 162 1253 q 196 1392 162 1301 q 286 1533 229 1483 l 286 1533 q 498 1571 339 1571 q 832 1568 656 1571 l 832 1568 l 832 1355 l 798 1355 q 746 1356 762 1355 l 746 1356 q 667 1190 667 1327 l 667 1190 q 669 1182 669 1184 q 668 1175 669 1179 l 668 1175 l 668 1147 q 742 1141 700 1141 l 742 1141 l 787 1141 q 828 1140 813 1141 l 828 1140 l 828 833 l 665 833 l 665 -1 l 456 -2 q 161 0 363 -2 l 161 0 l 161 834 l 47 834 l 46 985 l 46 1135 l 164 1135 z"},"g":{"ha":1599,"x_min":38,"x_max":1530,"o":"m 932 126 l 932 126 l 936 184 q 927 265 936 199 l 927 265 q 892 219 914 242 q 854 192 869 196 l 854 192 q 590 144 745 144 q 311 208 434 144 q 113 391 187 271 q 38 647 38 511 q 79 889 38 783 q 192 1072 119 994 q 371 1195 264 1150 q 605 1240 478 1240 l 605 1240 q 944 1127 808 1240 l 944 1127 q 996 1082 969 1100 l 996 1082 l 1010 1126 l 1010 1196 l 1269 1196 l 1529 1197 l 1530 264 q 1528 211 1530 247 l 1528 211 l 1528 207 q 1527 147 1527 188 l 1527 147 l 1527 136 l 1529 83 l 1523 27 q 1524 21 1523 22 q 1515 -24 1524 20 q 1493 -102 1506 -68 l 1493 -102 q 1330 -302 1452 -212 q 1118 -406 1208 -393 l 1118 -406 q 1079 -421 1108 -416 q 1044 -429 1050 -427 l 1044 -429 l 1044 -428 q 859 -460 947 -460 q 767 -458 770 -460 l 767 -458 l 737 -458 q 690 -461 728 -461 q 549 -438 651 -461 l 549 -438 l 517 -431 q 384 -388 444 -416 l 384 -388 q 161 -236 242 -331 q 51 27 80 -141 l 51 27 l 49 36 q 143 34 81 34 l 143 34 l 307 37 l 750 37 l 749 33 q 772 -61 749 -19 q 831 -104 794 -104 l 831 -104 q 919 -30 896 -104 l 919 -30 q 937 93 937 28 l 937 93 l 937 113 q 934 109 934 113 l 934 109 q 932 126 932 112 z m 960 638 l 960 670 l 961 682 q 833 972 952 972 l 833 972 q 773 947 799 972 l 773 947 q 716 827 731 907 q 700 688 700 747 l 700 688 l 703 653 l 703 644 l 702 637 l 702 631 q 741 472 702 549 q 840 394 780 394 l 840 394 q 950 558 906 394 l 950 558 l 945 558 q 960 638 960 597 l 960 638 z"},"h":{"ha":1438,"x_min":40,"x_max":1375,"o":"m 1375 764 l 1373 665 l 1374 354 l 1374 171 l 1375 -1 l 807 -1 l 806 511 l 809 622 q 783 758 809 713 q 717 802 756 802 l 717 802 q 625 728 643 802 l 625 728 q 612 592 612 676 l 612 592 l 612 464 l 613 422 l 613 0 l 326 -1 l 41 -1 l 40 783 l 40 1568 q 619 1570 241 1570 l 619 1570 l 620 1066 q 791 1192 690 1145 q 974 1239 891 1239 q 1137 1199 1057 1239 q 1269 1093 1217 1159 l 1269 1093 q 1344 927 1313 1024 q 1375 764 1375 829 l 1375 764 z"},"i":{"ha":764,"x_min":52,"x_max":686,"o":"m 62 1576 l 680 1578 l 681 1304 l 65 1304 q 63 1441 65 1400 l 63 1441 l 62 1576 z m 62 1576 l 52 1576 l 62 1586 l 62 1576 z m 684 348 l 684 317 l 685 308 l 686 158 q 682 60 686 117 q 675 1 678 3 l 675 1 l 657 -1 l 293 -1 l 251 -5 q 61 -1 95 -5 l 61 -1 l 61 6 l 60 25 l 60 70 q 66 397 60 267 l 66 397 l 77 1167 l 77 1197 l 155 1198 l 172 1197 l 201 1197 l 226 1196 l 239 1197 l 311 1197 l 326 1198 l 667 1194 q 673 1195 671 1195 q 675 1189 675 1195 l 675 1189 l 676 1094 q 680 840 677 999 q 683 614 683 680 l 683 614 l 682 489 l 682 436 l 685 383 l 685 352 q 684 348 685 351 l 684 348 z"},"j":{"ha":918,"x_min":39,"x_max":841,"o":"m 836 1294 l 254 1294 l 251 1554 l 543 1554 l 835 1555 l 836 1294 z m 64 -532 l 64 -532 q 41 -487 35 -512 l 41 -487 l 41 -484 q 44 -469 44 -472 l 44 -469 l 44 -450 l 47 -354 l 47 -126 l 80 -126 q 234 -40 206 -126 l 234 -40 q 248 66 248 1 l 248 66 l 248 81 l 250 208 l 250 1196 l 542 1196 l 835 1197 q 838 -108 838 552 l 838 -108 l 838 -112 q 841 -151 841 -132 l 841 -151 q 807 -323 841 -234 q 717 -451 772 -413 l 717 -451 l 718 -451 q 340 -535 590 -535 l 340 -535 l 234 -532 l 228 -532 l 222 -533 l 204 -533 q 194 -531 198 -533 l 194 -531 l 176 -531 q 143 -536 161 -536 q 101 -534 125 -536 l 101 -534 l 95 -534 q 64 -532 77 -532 z m 47 -116 l 47 -126 l 39 -126 l 47 -116 z"},"k":{"ha":1632,"x_min":20,"x_max":1559,"o":"m 831 1198 l 1367 1198 l 1386 1197 l 1463 1197 q 1481 1198 1469 1197 q 1500 1199 1492 1199 l 1500 1199 q 1441 1073 1491 1152 l 1441 1073 q 1410 1025 1424 1053 l 1410 1025 l 1410 1026 q 1218 704 1359 949 l 1218 704 q 1348 431 1290 549 q 1438 246 1406 312 l 1438 246 l 1559 -1 l 871 -1 l 802 205 q 699 527 760 327 l 699 527 l 661 441 l 661 1 q 352 -2 564 -2 q 20 0 140 -2 l 20 0 l 20 1569 l 338 1569 l 656 1570 q 659 1135 656 1449 q 661 694 661 821 l 661 694 l 699 806 q 831 1198 735 921 l 831 1198 z"},"l":{"ha":770,"x_min":62,"x_max":676,"o":"m 64 -1 l 62 1570 l 316 1571 q 676 1569 432 1571 l 676 1569 l 676 -1 l 64 -1 z"},"m":{"ha":2224,"x_min":31,"x_max":2176,"o":"m 1349 996 l 1349 996 q 1720 1239 1535 1239 q 2046 1102 1905 1239 l 2046 1102 q 2139 951 2115 1034 l 2139 951 l 2146 924 q 2173 808 2173 830 q 2169 771 2173 785 l 2169 771 q 2176 753 2176 765 l 2176 753 l 2174 714 q 2176 613 2176 642 l 2176 613 l 2176 -1 l 1570 -1 l 1569 587 l 1570 609 q 1489 754 1570 754 l 1489 754 q 1398 594 1398 754 l 1398 594 l 1400 525 l 1400 0 l 1122 -1 l 845 -1 l 844 536 l 846 601 q 766 755 846 731 l 766 755 q 672 610 672 750 l 672 610 l 674 550 l 674 0 l 352 -1 l 32 -1 l 31 600 l 31 1197 l 305 1198 l 580 1198 l 587 1174 q 643 970 624 1043 l 643 970 q 795 1161 708 1082 q 967 1239 881 1239 l 967 1239 q 1021 1239 994 1239 l 1021 1239 q 1199 1168 1108 1239 q 1349 996 1290 1096 z"},"n":{"ha":1460,"x_min":50,"x_max":1399,"o":"m 50 1197 l 316 1196 l 584 1197 q 602 1131 589 1176 q 627 1041 615 1086 l 627 1041 l 646 966 q 695 1078 686 1067 l 695 1078 l 711 1098 q 1021 1240 812 1240 l 1021 1240 q 1210 1181 1120 1240 q 1349 1026 1299 1121 q 1399 824 1399 930 l 1399 824 q 1396 805 1399 812 l 1396 805 l 1396 190 l 1397 -1 l 812 -1 l 810 499 l 814 601 q 733 754 814 754 l 733 754 q 646 609 646 754 l 646 609 q 647 565 646 577 l 647 565 l 647 550 l 648 533 l 648 0 l 350 -1 l 51 -1 l 50 599 l 50 1197 z"},"o":{"ha":1569,"x_min":22,"x_max":1513,"o":"m 1513 605 l 1513 605 q 1511 593 1511 595 l 1511 593 l 1511 585 q 1435 288 1508 420 l 1435 288 l 1436 288 q 1152 48 1334 132 q 792 -36 969 -36 q 499 -1 615 -36 q 283 99 382 33 q 136 226 184 165 l 136 226 q 22 633 22 370 l 22 633 q 25 648 22 642 l 25 648 l 25 664 q 22 672 22 668 l 22 672 l 24 683 l 23 683 q 97 913 42 858 l 97 913 q 111 938 97 924 l 111 938 l 111 937 l 126 961 q 396 1168 244 1112 l 396 1168 l 431 1181 q 616 1229 497 1213 l 616 1229 l 648 1232 q 677 1234 655 1233 q 707 1238 698 1235 l 707 1238 l 750 1237 q 757 1238 753 1238 q 766 1237 761 1238 l 766 1237 l 765 1238 q 783 1235 771 1235 l 783 1235 q 797 1239 787 1239 l 797 1239 q 1166 1150 1014 1239 l 1166 1150 l 1186 1141 q 1513 605 1513 984 z m 891 599 l 891 599 q 834 868 887 798 l 834 868 q 781 897 812 897 q 725 861 749 897 q 687 746 701 824 q 672 608 672 668 q 678 504 672 547 q 694 412 683 460 q 728 331 705 363 q 780 298 751 298 l 780 298 q 891 599 891 298 z"},"p":{"ha":1552,"x_min":34,"x_max":1497,"o":"m 34 439 l 34 1196 l 292 1197 l 553 1197 q 587 1131 572 1158 l 587 1131 l 625 1061 q 821 1199 731 1158 q 1016 1239 910 1239 q 1206 1200 1122 1239 l 1206 1200 q 1426 966 1354 1131 q 1497 614 1497 801 l 1497 614 q 1493 570 1497 590 l 1493 570 q 1433 282 1477 396 q 1276 64 1388 167 l 1276 64 l 1276 65 q 1086 -21 1176 -21 l 1086 -21 q 1034 -33 1060 -33 q 960 -26 1007 -33 q 897 -12 912 -20 l 897 -12 q 672 106 758 18 l 672 106 l 634 105 q 643 7 643 48 l 643 7 l 642 -11 l 642 -317 l 338 -318 l 35 -318 l 34 439 z m 871 503 l 871 503 l 876 566 q 875 570 875 567 q 876 575 875 573 l 876 575 l 876 592 q 872 673 876 641 l 872 673 l 866 715 q 855 776 864 725 l 855 776 q 754 905 831 905 l 754 905 q 630 579 630 905 l 630 579 q 685 318 630 400 l 685 318 q 749 271 711 280 l 749 271 q 871 503 853 280 z"},"q":{"ha":1556,"x_min":33,"x_max":1498,"o":"m 1492 1197 l 1493 858 q 1498 -319 1493 858 l 1498 -319 l 890 -319 l 889 120 q 804 69 837 96 l 804 69 q 670 -3 760 25 q 504 -32 580 -32 l 504 -32 q 265 49 373 -32 q 98 254 156 130 q 40 511 40 377 l 40 511 q 33 541 33 524 q 39 579 33 558 l 39 579 q 34 593 34 588 l 34 593 q 71 844 34 718 q 178 1062 108 970 l 178 1062 q 564 1240 331 1240 l 564 1240 q 669 1222 605 1236 q 750 1190 733 1208 l 750 1190 q 873 1089 806 1164 l 873 1089 l 885 1078 l 912 1061 q 943 1130 929 1104 q 960 1164 956 1155 l 960 1164 l 970 1185 q 976 1195 970 1186 q 982 1207 981 1204 l 982 1207 q 1492 1197 1050 1197 l 1492 1197 z m 910 533 l 909 547 l 911 592 q 789 906 911 880 l 789 906 q 713 856 732 898 q 686 774 693 814 q 670 699 678 734 q 661 617 661 663 l 661 617 l 661 570 q 780 271 661 304 l 780 271 q 845 296 827 275 l 845 296 q 893 411 876 334 l 893 411 l 910 533 z"},"r":{"ha":1186,"x_min":44,"x_max":1123,"o":"m 44 596 l 44 1197 l 310 1198 l 576 1198 l 598 1064 q 625 904 621 923 l 625 904 l 660 904 q 802 1147 697 1075 l 802 1147 l 842 1170 q 878 1192 845 1176 l 878 1192 l 874 1191 l 897 1200 q 1066 1240 995 1239 l 1066 1240 q 1086 1238 1081 1240 l 1086 1238 l 1123 1238 l 1123 680 q 1057 685 1102 685 q 965 672 1012 685 q 885 639 917 659 q 828 586 852 618 l 828 586 q 754 289 754 487 l 754 289 l 756 184 l 756 0 l 400 -1 l 45 -1 l 44 596 z"},"s":{"ha":1638,"x_min":37,"x_max":1586,"o":"m 1493 947 l 1273 937 l 1182 938 q 931 936 1101 938 l 931 936 q 883 992 919 969 q 802 1015 846 1015 q 730 996 758 1015 q 702 941 702 976 q 729 878 702 906 q 803 839 755 850 q 899 823 851 827 q 1010 815 946 819 q 1106 806 1073 811 q 1188 794 1138 800 l 1188 794 q 1346 762 1277 782 q 1489 676 1414 741 l 1489 676 q 1529 639 1504 669 l 1529 639 q 1586 439 1574 570 l 1586 439 q 1481 184 1581 295 q 1228 22 1381 72 l 1228 22 q 1198 14 1216 16 l 1198 14 l 1164 6 q 996 -22 1067 -22 l 996 -22 q 858 -36 953 -36 l 858 -36 l 833 -35 l 760 -35 l 749 -36 q 417 14 594 -36 l 417 14 l 417 13 q 39 337 40 106 l 39 337 q 186 333 92 333 q 441 335 280 333 q 684 336 601 336 l 684 336 q 683 316 683 330 l 683 316 q 728 244 683 272 q 832 216 773 216 q 925 239 891 216 q 959 299 959 262 q 940 360 959 335 q 884 396 921 384 q 816 414 847 408 q 734 423 784 419 q 660 431 684 427 q 589 442 636 435 q 507 453 542 448 q 424 466 471 457 q 340 485 376 475 q 261 510 303 494 q 188 545 219 526 l 188 545 q 37 819 37 639 l 37 819 q 128 1068 37 980 l 128 1068 q 498 1210 242 1177 l 498 1210 q 572 1225 524 1214 q 638 1235 620 1235 q 662 1233 656 1235 l 662 1233 l 789 1240 l 965 1232 q 1023 1228 975 1231 l 1023 1228 q 1233 1195 1142 1219 q 1406 1099 1323 1170 q 1500 945 1488 1028 l 1500 945 l 1493 947 z"},"t":{"ha":1042,"x_min":50,"x_max":983,"o":"m 789 902 l 789 498 l 788 483 q 791 432 788 448 q 811 393 793 415 q 928 370 829 370 l 928 370 l 955 369 q 982 372 970 369 l 982 372 l 983 -1 l 436 -1 l 402 -3 l 391 -3 q 310 21 354 -3 q 245 64 266 45 q 208 111 223 82 l 208 111 q 175 218 180 165 q 169 348 169 270 l 169 348 l 169 902 l 51 902 l 50 1042 l 50 1185 l 165 1185 l 165 1516 l 474 1516 l 783 1517 l 784 1187 l 951 1187 l 952 1044 l 952 902 l 789 902 z"},"u":{"ha":1538,"x_min":54,"x_max":1479,"o":"m 691 1196 l 691 1100 l 689 465 q 762 363 689 363 l 762 363 q 823 471 823 363 l 823 471 l 823 1195 l 1152 1196 l 1478 1196 l 1479 1 l 919 1 l 872 163 q 521 -36 744 -36 l 521 -36 q 198 74 329 -36 l 198 74 l 199 81 q 157 118 182 86 q 119 172 132 149 l 119 172 q 54 519 54 290 l 54 519 l 55 551 l 55 1195 l 373 1195 l 691 1196 z"},"v":{"ha":1663,"x_min":-5,"x_max":1639,"o":"m -5 1196 l -5 1196 l 375 1197 l 747 1197 q 757 1117 752 1168 l 757 1117 l 779 899 q 824 497 791 775 l 824 497 l 826 497 l 934 1197 l 1639 1197 l 1636 1177 l 1633 1177 q 1291 0 1467 597 l 1291 0 l 325 0 q 204 419 251 254 l 204 419 l 186 491 q -5 1196 94 844 z"},"w":{"ha":1966,"x_min":1,"x_max":1952,"o":"m 1141 1186 l 1141 1186 l 1215 708 l 1217 708 q 1253 926 1231 784 l 1253 926 l 1269 1030 l 1283 1104 q 1297 1198 1290 1172 l 1297 1198 l 1952 1198 q 1738 219 1894 927 l 1738 219 l 1682 -1 l 1046 -1 l 1024 166 q 989 430 1007 276 q 968 583 970 583 l 968 583 l 880 -1 l 203 -1 q 134 383 169 157 q 92 652 99 608 l 92 652 l 71 785 q 1 1199 71 786 l 1 1199 l 336 1199 l 669 1200 q 674 1160 671 1173 l 674 1160 l 680 1117 q 724 697 716 802 l 724 697 l 728 697 q 740 778 732 721 q 753 865 748 834 l 753 865 l 802 1158 l 804 1184 q 1141 1186 913 1186 z"},"x":{"ha":1624,"x_min":33,"x_max":1558,"o":"m 103 1197 l 411 1197 l 726 1198 q 756 1007 738 1133 q 782 841 774 881 l 782 841 l 795 775 l 830 775 l 869 965 q 888 1070 871 975 q 915 1198 905 1165 l 915 1198 l 1542 1198 l 1388 868 l 1371 828 q 1341 768 1364 811 q 1317 718 1317 724 l 1317 718 l 1290 668 q 1418 348 1346 531 q 1558 -1 1489 164 l 1558 -1 l 923 -1 q 799 540 879 176 l 799 540 l 763 540 q 743 436 759 519 q 720 311 727 353 l 720 311 l 702 203 q 665 -2 690 128 l 665 -2 l 655 -2 q 410 0 489 0 l 410 0 l 309 0 l 207 -1 l 33 -1 q 65 87 47 43 l 65 87 l 84 135 q 144 304 96 167 q 234 533 192 441 l 234 533 l 286 670 q 202 901 254 749 l 202 901 l 203 901 l 186 952 q 141 1084 170 1000 q 103 1197 112 1167 l 103 1197 z"},"y":{"ha":1403,"x_min":-16,"x_max":1375,"o":"m 238 -138 l 238 -139 q 331 42 331 -107 l 331 42 q 293 219 331 98 l 293 219 l 277 269 q -16 1195 160 644 l -16 1195 l 289 1195 l 590 1196 l 635 937 q 651 815 640 894 q 667 696 662 736 l 667 696 l 764 1196 l 1355 1196 l 1355 1198 l 1375 1196 l 1370 1176 l 1368 1176 l 1104 444 q 1043 272 1063 341 q 998 141 1023 202 q 911 -98 973 80 q 791 -379 848 -277 l 791 -379 q 504 -545 701 -532 l 504 -545 l 410 -546 l 329 -550 q 290 -547 306 -550 l 290 -547 q 269 -549 283 -549 l 269 -549 l 208 -546 l 169 -549 q 144 -547 164 -549 l 144 -547 q 60 -547 102 -547 l 60 -547 l 41 -496 q 39 -480 39 -490 q 40 -467 39 -471 l 40 -467 l 40 -460 l 41 -450 l 41 -336 q 40 -161 41 -218 l 40 -161 q 71 -159 54 -159 q 97 -162 87 -159 l 97 -162 q 134 -159 111 -159 l 134 -159 l 142 -159 q 178 -150 150 -154 q 221 -142 206 -146 q 238 -138 236 -138 l 238 -138 z"},"z":{"ha":1440,"x_min":-3,"x_max":1399,"o":"m 512 819 l 456 819 l 228 821 l 146 821 l 146 1196 l 1399 1196 q 1395 1193 1398 1193 l 1395 1193 l 1282 1011 q 917 370 1038 590 l 917 370 l 1106 370 l 1325 369 l 1325 -1 l 145 -1 q 58 -4 145 -1 l 58 -4 q 11 -1 29 -4 l 11 -1 l 12 -2 q 4 0 9 -2 q -3 1 -1 1 l -3 1 q 136 222 8 25 q 310 493 264 418 l 310 493 l 512 819 z"},"{":{"ha":1032,"x_min":54,"x_max":930,"o":"m 690 1532 l 818 1534 l 897 1531 l 905 1531 l 930 1508 l 929 1345 l 929 1262 q 930 1219 929 1262 l 930 1219 q 911 1163 930 1163 l 911 1163 l 892 1164 l 844 1164 q 759 1139 786 1164 q 726 1045 731 1114 l 726 1045 l 723 965 q 721 801 721 911 l 721 801 q 663 678 721 730 q 520 597 604 626 l 520 597 l 605 565 q 698 475 675 532 q 720 295 720 418 l 720 295 l 720 259 l 718 203 l 718 185 q 739 68 718 96 q 791 32 759 40 q 875 23 822 23 l 875 23 l 889 23 q 918 18 914 23 l 918 18 l 918 -4 l 917 -16 l 917 -96 l 918 -129 q 905 -325 918 -311 l 905 -325 l 721 -317 q 449 -288 537 -317 q 315 -202 361 -260 q 265 -66 269 -145 q 261 73 261 13 q 260 169 260 133 q 259 242 260 204 q 257 300 258 280 q 250 342 255 320 l 250 342 q 219 391 241 374 q 144 416 197 407 l 144 416 l 109 420 q 60 427 60 426 l 60 427 q 54 669 54 574 q 66 776 54 764 l 66 776 q 257 886 247 778 l 257 886 l 255 1155 l 254 1163 l 254 1188 q 516 1518 254 1472 l 516 1518 q 690 1532 587 1530 l 690 1532 z"},"|":{"ha":492,"x_min":88,"x_max":407,"o":"m 388 1557 l 388 1557 l 385 1500 l 389 1159 q 402 280 395 611 l 402 280 l 407 -60 q 293 -84 396 -84 l 293 -84 l 219 -84 q 111 -79 140 -84 l 111 -79 l 100 -67 q 88 -56 98 -66 l 88 -56 q 99 817 88 284 l 99 817 l 102 965 q 109 1519 104 1046 l 109 1519 l 109 1526 l 108 1534 l 108 1547 q 112 1570 108 1565 l 112 1570 q 251 1571 159 1571 q 387 1570 343 1571 l 387 1570 q 388 1557 388 1569 z"},"}":{"ha":1035,"x_min":100,"x_max":974,"o":"m 239 1512 l 258 1512 q 265 1513 260 1512 l 265 1513 l 363 1513 q 614 1476 539 1513 l 614 1476 q 776 1128 766 1402 l 776 1128 l 776 1082 l 770 894 q 912 774 770 784 l 912 774 q 963 772 933 772 l 963 772 l 967 773 q 974 760 974 771 l 974 760 l 974 641 l 973 599 l 973 471 l 974 427 q 916 414 965 416 q 840 406 867 412 l 840 406 q 776 314 776 390 l 776 314 q 778 260 776 291 l 778 260 l 781 192 q 785 48 785 110 q 773 -78 785 -15 q 736 -184 760 -141 l 736 -184 q 613 -301 689 -271 q 444 -332 537 -332 l 444 -332 l 398 -332 l 382 -331 l 256 -332 l 227 -334 l 161 -334 l 136 -333 q 124 -334 128 -333 l 124 -334 q 119 -325 121 -330 q 114 -318 116 -321 q 108 -311 111 -315 l 108 -311 l 108 -312 l 100 -302 l 103 -147 l 102 -103 q 119 31 102 24 l 119 31 l 174 31 q 274 56 240 31 q 307 158 307 81 l 307 158 l 304 304 q 351 498 308 439 q 525 601 393 556 l 525 601 q 357 696 401 639 q 312 865 312 752 l 312 865 l 315 1039 q 280 1143 315 1115 q 146 1170 245 1170 l 146 1170 q 114 1174 114 1170 l 114 1174 l 116 1315 l 116 1375 l 114 1439 q 122 1515 114 1496 l 122 1515 q 205 1513 152 1513 l 205 1513 l 232 1513 l 239 1512 z"},"~":{"ha":1303,"x_min":138,"x_max":1176,"o":"m 1056 745 l 1056 745 q 1050 766 1052 753 l 1050 766 l 1060 770 l 1070 760 l 1080 761 q 1137 652 1098 761 q 1176 516 1176 543 q 1175 485 1176 489 l 1175 485 l 1175 480 q 1044 344 1112 392 q 891 295 976 295 q 690 352 806 295 l 690 352 q 675 358 681 354 l 675 358 l 651 370 q 459 433 525 433 q 354 402 392 433 q 280 305 316 371 l 280 305 l 211 315 l 195 358 q 191 369 195 359 q 184 386 186 379 l 184 386 l 185 385 q 138 563 138 510 l 138 563 q 140 568 138 566 l 140 568 q 427 772 257 772 l 427 772 q 548 752 500 772 q 651 706 596 731 l 651 706 l 684 688 q 700 681 698 681 l 700 681 q 875 616 830 616 l 875 616 q 1056 745 970 616 z"}," ":{"ha":721,"x_min":0,"x_max":0,"o":""},"¡":{"ha":784,"x_min":77,"x_max":700,"o":"m 235 696 l 235 696 l 297 695 l 464 695 q 592 681 573 695 q 612 625 610 667 q 620 545 614 582 l 620 545 l 628 488 q 692 -253 673 21 l 692 -253 l 698 -343 q 700 -385 700 -367 l 700 -385 q 620 -405 691 -404 l 620 -405 l 611 -406 l 99 -415 l 79 -400 q 77 -397 78 -398 l 77 -397 l 90 -259 q 109 -53 94 -170 q 146 368 124 63 q 189 692 167 673 l 189 692 q 235 696 192 696 z m 424 1226 l 593 1226 l 648 1225 q 659 1007 659 1203 l 659 1007 l 659 888 q 508 870 645 870 l 508 870 l 472 871 l 385 871 l 154 864 q 129 893 138 880 l 129 893 l 134 1047 l 135 1070 l 135 1085 q 143 1224 135 1224 l 143 1224 l 212 1224 l 424 1226 z m 660 890 l 660 890 l 659 888 q 660 890 659 889 z"},"¢":{"ha":1497,"x_min":143,"x_max":1380,"o":"m 934 1322 l 934 1315 l 929 1095 l 938 1085 q 1228 974 1116 1075 q 1360 673 1340 872 l 1360 673 q 1249 667 1348 667 l 1249 667 l 1216 668 l 1158 668 l 942 665 q 896 672 910 665 l 896 672 l 896 675 q 854 818 896 788 l 854 818 q 798 833 832 833 l 798 833 q 655 522 655 829 l 655 522 q 661 404 655 446 l 661 404 l 661 397 q 775 222 661 222 l 775 222 q 893 292 862 222 l 893 292 q 917 365 907 324 l 917 365 l 923 389 q 1368 386 1078 386 l 1368 386 q 1380 371 1376 386 l 1380 371 q 1314 151 1368 214 l 1314 151 q 1177 33 1265 77 q 953 -53 1089 -12 l 953 -53 q 958 -194 958 -141 l 958 -194 q 955 -270 958 -256 q 936 -286 952 -284 l 936 -286 l 865 -286 q 648 -281 740 -286 l 648 -281 l 623 -252 l 626 -60 q 341 55 412 -6 l 341 55 q 171 341 185 186 l 171 341 q 143 536 143 448 l 143 536 q 630 1088 143 945 l 630 1088 l 630 1143 l 628 1317 q 774 1330 628 1330 q 934 1322 920 1330 l 934 1322 z"},"£":{"ha":1440,"x_min":12,"x_max":1440,"o":"m 1079 392 l 1135 392 l 1407 399 q 1422 348 1422 394 l 1422 348 l 1422 318 l 1426 15 q 1408 -21 1424 -12 q 1362 -30 1392 -30 l 1362 -30 l 1324 -30 l 1303 -31 l 1088 -31 l 1035 -30 q 446 -35 682 -30 l 446 -35 l 410 -37 q 341 -39 362 -39 l 341 -39 l 288 -39 l 260 -38 l 164 -38 q 69 -36 102 -38 l 69 -36 l 51 -13 l 50 5 l 50 25 l 45 271 q 62 365 45 346 l 62 365 l 204 375 q 207 540 207 522 l 207 540 l 207 569 l 208 610 l 125 610 l 105 611 l 76 611 l 63 610 q 12 628 12 610 l 12 628 l 13 708 l 13 746 l 14 784 l 14 799 l 12 854 q 24 905 12 893 l 24 905 l 65 904 l 106 904 l 212 903 q 210 1033 210 969 l 210 1033 q 280 1328 210 1202 l 280 1328 q 515 1506 360 1444 q 843 1567 669 1567 l 843 1567 q 1385 1335 1232 1567 l 1385 1335 q 1440 1094 1440 1269 l 1440 1094 q 1432 1069 1440 1074 l 1432 1069 q 1012 1074 1066 1072 q 944 1084 958 1075 q 928 1106 930 1093 l 928 1106 q 903 1159 923 1129 q 837 1188 883 1188 l 837 1188 q 735 1029 735 1180 l 735 1029 q 738 948 735 981 l 738 948 l 738 942 q 740 895 740 922 l 740 895 l 991 900 q 1044 893 1035 900 l 1044 893 l 1047 641 q 1033 619 1047 619 q 1011 620 1019 619 l 1011 620 l 953 623 q 847 624 933 624 q 753 609 761 624 q 742 497 744 593 l 742 497 l 739 388 q 1079 392 890 392 l 1079 392 z"},"¤":{"ha":1478,"x_min":221,"x_max":1381,"o":"m 812 60 l 767 59 q 634 79 668 72 q 536 113 600 85 q 420 184 472 140 l 420 184 l 349 108 q 268 38 288 38 l 268 38 q 248 50 263 38 l 248 50 q 221 61 236 52 l 221 61 q 310 180 256 123 l 310 180 l 367 240 q 305 353 324 294 l 305 353 l 306 353 l 294 386 q 255 516 265 455 l 255 516 l 249 626 q 284 845 251 729 q 392 1038 316 960 l 392 1038 l 339 1093 q 222 1223 222 1212 q 243 1247 222 1233 q 272 1263 263 1261 l 272 1263 l 442 1081 q 760 1183 587 1183 l 760 1183 q 1108 1071 987 1183 l 1108 1071 l 1131 1052 l 1331 1262 q 1380 1225 1335 1261 l 1380 1225 q 1327 1159 1378 1212 q 1257 1087 1275 1105 q 1231 1061 1238 1069 l 1231 1061 l 1232 1061 l 1179 1004 q 1295 585 1295 851 l 1295 585 q 1206 269 1295 411 l 1206 269 l 1291 180 q 1381 60 1351 117 l 1381 60 q 1356 49 1370 52 l 1356 49 l 1339 39 l 1334 38 q 1258 101 1316 38 l 1258 101 q 1252 108 1254 106 l 1252 108 l 1156 210 q 997 103 1081 135 q 812 60 912 70 l 812 60 z m 1331 1262 l 1329 1263 l 1333 1265 l 1331 1262 z m 273 1262 l 270 1265 l 277 1262 l 273 1262 z m 733 300 l 733 300 l 742 301 l 767 301 q 905 320 867 301 l 905 320 q 1049 586 1049 394 l 1049 586 q 978 878 1049 805 l 978 878 q 884 933 934 922 q 769 944 833 944 l 769 944 l 734 944 q 495 765 548 944 l 495 765 q 478 604 478 708 l 478 604 q 639 329 478 398 l 639 329 q 733 300 675 300 z"},"¥":{"ha":1456,"x_min":-29,"x_max":1513,"o":"m 1306 818 l 1319 818 l 1333 819 q 1345 770 1345 813 l 1345 770 l 1346 674 q 1333 591 1346 597 l 1333 591 l 1072 591 l 1026 621 q 1036 380 1026 522 l 1036 380 q 1234 390 1153 390 q 1334 379 1315 390 q 1352 339 1352 368 l 1352 339 q 1350 300 1352 339 l 1350 300 l 1350 206 q 1341 159 1350 169 q 1303 149 1331 149 l 1303 149 l 1236 150 l 1203 150 l 1169 151 q 1027 147 1109 151 l 1027 147 l 1026 61 l 1027 18 q 1003 -36 1027 -32 l 1003 -36 l 819 -37 l 728 -37 l 635 -38 l 616 -38 q 610 -37 615 -38 l 610 -37 l 461 -34 q 438 -4 458 -29 l 438 -4 l 438 -1 q 439 22 438 13 l 439 22 l 439 35 l 440 56 l 438 109 l 438 145 l 219 139 q 127 162 130 139 l 127 162 l 127 252 l 128 284 l 125 341 q 160 389 125 389 l 160 389 l 193 388 l 225 388 l 362 386 l 411 386 l 452 392 q 392 590 452 590 l 392 590 q 143 585 305 585 l 143 585 q 129 674 129 594 l 129 674 l 129 699 l 131 782 q 159 815 131 812 l 159 815 q 182 816 169 816 l 182 816 l 207 816 l 250 814 l 283 814 l 266 916 l 143 1168 q 98 1268 131 1193 q 28 1399 64 1343 l 28 1399 l 23 1410 q -29 1523 -29 1497 l -29 1523 q 152 1531 -29 1531 l 152 1531 l 226 1531 l 374 1534 q 557 1516 538 1534 l 557 1516 q 581 1429 562 1478 q 605 1364 600 1379 l 605 1364 l 643 1246 l 642 1246 l 671 1154 q 690 1099 675 1141 q 710 1035 704 1057 l 710 1035 l 735 955 l 762 856 q 891 1274 873 1214 l 891 1274 l 947 1460 q 1000 1516 961 1503 q 1146 1529 1039 1529 l 1146 1529 l 1291 1527 l 1330 1527 l 1360 1528 l 1389 1528 l 1443 1529 q 1513 1519 1505 1529 l 1513 1519 q 1456 1401 1492 1481 q 1397 1280 1419 1320 l 1397 1280 l 1314 1111 q 1233 905 1272 1008 l 1233 905 l 1199 820 q 1274 817 1250 817 q 1306 818 1297 817 l 1306 818 z m 1342 604 l 1362 602 l 1342 600 l 1342 604 z"},"¦":{"ha":494,"x_min":100,"x_max":396,"o":"m 389 1557 l 389 1557 l 386 1500 l 390 1159 l 396 795 q 290 769 386 769 l 290 769 l 216 769 q 189 767 216 769 l 189 767 q 177 767 183 767 l 177 767 q 113 783 120 767 l 113 783 l 100 797 l 110 1519 l 110 1526 l 109 1534 l 109 1547 q 113 1570 109 1565 l 113 1570 q 253 1571 160 1571 q 388 1570 345 1571 l 388 1570 q 389 1557 389 1569 z m 388 489 l 389 477 l 388 442 q 390 420 388 425 l 390 420 l 390 6 l 392 -10 l 396 -348 q 290 -373 386 -373 l 290 -373 l 216 -373 l 189 -375 q 177 -375 183 -375 l 177 -375 q 113 -359 120 -375 l 113 -359 l 100 -345 l 110 440 l 109 449 l 109 467 q 195 494 109 494 q 389 491 281 494 l 389 491 q 388 489 388 490 l 388 489 z"},"§":{"ha":1819,"x_min":200,"x_max":1363,"o":"m 253 299 l 253 299 q 592 226 472 226 l 592 226 q 648 241 621 226 q 675 287 675 255 l 675 287 q 552 376 675 330 l 552 376 q 447 418 541 381 q 306 489 353 455 l 306 489 l 307 489 q 200 715 200 582 l 200 715 q 264 884 200 803 q 438 1003 327 964 l 438 1003 q 314 1108 360 1044 q 265 1244 268 1171 l 265 1244 q 445 1504 289 1427 l 445 1504 q 765 1559 580 1559 q 1229 1515 950 1559 l 1229 1515 l 1230 1327 l 1231 1262 q 1227 1242 1231 1246 l 1227 1242 q 960 1281 1053 1281 q 866 1236 866 1281 q 1013 1144 866 1191 l 1013 1144 l 1077 1123 l 1076 1124 l 1102 1115 q 1285 989 1219 1068 q 1363 820 1351 910 l 1363 820 q 1341 675 1360 713 l 1341 675 q 1136 476 1291 556 l 1136 476 q 1240 371 1201 432 q 1279 243 1279 310 q 1247 118 1279 176 l 1247 118 q 1070 -24 1192 19 q 828 -68 947 -68 l 828 -68 q 260 -21 515 -68 l 260 -21 l 236 7 q 233 193 233 86 q 253 299 233 299 z m 638 843 l 638 843 l 653 830 l 638 842 q 618 776 618 810 q 655 706 618 741 q 767 644 692 671 q 870 616 842 616 q 935 639 898 616 q 971 698 971 662 q 894 769 971 733 q 746 821 816 804 q 670 838 676 838 q 663 838 664 838 l 663 838 l 708 883 q 638 843 665 883 z m 1341 672 l 1341 675 l 1341 672 z"},"¨":{"ha":659,"x_min":-108,"x_max":837,"o":"m 586 1810 l 586 1810 l 756 1813 q 820 1805 817 1813 l 820 1805 q 827 1463 825 1653 l 827 1463 q 824 1453 824 1457 l 824 1453 l 817 1454 l 484 1440 l 458 1469 q 464 1678 458 1554 q 482 1813 470 1801 l 482 1813 q 586 1810 537 1810 z m 458 1469 l 458 1468 l 458 1469 z m 813 1438 l 823 1452 l 837 1451 q 823 1434 837 1434 l 823 1434 q 813 1438 817 1434 l 813 1438 z m 253 1773 l 253 1741 l 255 1643 l 255 1612 q 256 1456 255 1503 l 256 1456 q 175 1445 246 1445 l 175 1445 l 154 1446 l 103 1446 l -84 1439 l -108 1474 q -86 1813 -108 1788 l -86 1813 q 67 1812 -50 1812 q 247 1809 183 1811 l 247 1809 q 254 1784 254 1807 l 254 1784 l 253 1773 z"},"©":{"ha":1646,"x_min":12,"x_max":1655,"o":"m 1475 241 l 1475 242 q 824 -66 1209 -66 l 824 -66 q 399 60 622 -66 l 399 60 l 399 59 q 48 567 146 217 l 48 567 q 12 745 24 655 l 12 745 q 236 1306 26 1084 l 236 1306 q 512 1494 351 1429 q 830 1558 672 1558 q 1137 1494 988 1558 q 1397 1320 1286 1430 q 1578 1057 1508 1210 q 1655 733 1647 904 l 1655 733 q 1605 470 1652 599 q 1475 241 1558 340 l 1475 241 z m 843 1356 l 843 1356 l 829 1356 q 590 1304 704 1356 q 393 1162 476 1252 q 275 983 309 1072 q 223 758 241 893 l 223 758 q 305 456 223 598 q 525 227 386 313 q 804 141 664 141 q 1056 190 943 141 q 1252 323 1168 239 q 1386 526 1335 407 q 1436 771 1436 645 q 1388 1004 1436 897 q 1258 1187 1339 1111 q 1069 1309 1177 1263 q 843 1356 960 1354 z m 1077 650 l 1157 650 l 1171 651 l 1184 651 q 1237 631 1230 651 l 1237 631 q 1102 391 1204 487 q 871 294 1000 294 l 871 294 q 484 500 606 294 l 484 500 q 412 757 416 615 l 412 757 q 487 985 420 882 q 654 1144 554 1088 q 862 1200 753 1200 l 862 1200 q 1104 1114 1013 1200 q 1226 882 1194 1027 l 1226 882 q 1179 873 1222 873 l 1179 873 l 1156 874 l 1007 874 l 999 882 q 851 996 962 996 l 851 996 q 670 830 707 996 l 670 830 q 661 748 661 790 l 661 748 q 706 584 661 652 q 835 516 750 516 q 943 558 920 516 l 943 558 q 1004 648 980 625 l 1004 648 q 1077 650 1031 650 l 1077 650 z m 1226 882 l 1227 883 l 1227 881 l 1226 882 z"},"ª":{"ha":845,"x_min":64,"x_max":792,"o":"m 540 1249 l 540 1311 q 442 1457 540 1457 q 311 1399 343 1457 l 311 1399 q 205 1398 275 1399 q 98 1397 134 1397 l 98 1397 q 433 1513 148 1513 l 433 1513 l 489 1513 q 756 1448 666 1513 l 756 1448 q 792 1327 792 1407 l 792 1327 l 791 1217 l 791 938 q 784 937 789 938 l 784 937 l 776 938 l 758 938 q 654 940 724 938 l 654 940 l 648 940 q 550 942 582 942 l 550 942 l 548 963 q 547 967 547 966 l 547 967 l 547 1022 q 292 924 406 924 l 292 924 q 64 1077 64 924 l 64 1077 q 381 1252 64 1252 l 381 1252 q 540 1249 472 1252 l 540 1249 z m 539 1235 l 514 1235 q 295 1113 295 1235 l 295 1113 q 330 1030 295 1056 q 419 1003 365 1003 q 502 1025 472 1003 q 540 1103 531 1047 l 540 1103 l 540 1134 l 541 1183 l 539 1217 l 539 1235 z"},"«":{"ha":1335,"x_min":1,"x_max":1384,"o":"m 1038 1043 l 1255 1046 l 1326 1044 l 1354 1044 q 1384 1035 1381 1044 l 1384 1035 l 1305 863 q 1145 526 1209 653 l 1145 526 l 1160 490 l 1160 484 q 1263 248 1250 275 l 1263 248 l 1291 188 q 1380 -10 1333 98 l 1380 -10 q 1321 -24 1374 -24 l 1321 -24 l 1305 -23 l 1264 -23 l 1195 -24 l 991 -24 q 956 -14 972 -24 l 956 -14 q 828 187 946 2 l 828 187 l 830 187 l 793 243 q 633 500 708 372 l 633 500 l 635 516 q 806 790 691 608 q 960 1037 920 972 l 960 1037 q 1016 1043 969 1043 l 1016 1043 l 1038 1043 z m 1183 487 l 1183 487 l 1184 481 l 1164 481 l 1162 498 q 1183 487 1183 498 z m 484 1044 l 579 1044 l 611 1045 l 742 1045 l 751 1042 q 753 1043 752 1042 l 753 1043 q 695 907 750 1005 l 695 907 l 670 862 q 662 845 668 857 q 654 827 656 833 l 654 827 l 515 521 q 640 241 558 417 q 752 -8 721 64 l 752 -8 q 614 -19 743 -19 l 614 -19 l 350 -25 q 340 -14 342 -25 l 340 -14 l 302 42 q 1 498 271 87 l 1 498 q 64 630 5 544 l 64 630 q 88 666 79 652 q 114 704 97 679 l 114 704 l 148 752 q 197 825 191 814 l 197 825 l 196 825 l 333 1038 q 347 1046 335 1040 l 347 1046 l 350 1046 q 484 1044 442 1044 l 484 1044 z"},"¬":{"ha":1283,"x_min":103,"x_max":1213,"o":"m 1191 227 l 1144 227 l 1128 228 q 915 223 1033 228 l 915 223 l 885 257 l 885 617 l 113 620 q 108 638 108 624 l 108 638 l 111 811 l 111 834 l 110 859 l 110 910 q 1189 922 110 910 l 1189 922 q 1208 916 1206 918 l 1208 916 l 1211 581 q 1213 248 1213 357 l 1213 248 q 1191 227 1208 227 l 1191 227 z m 103 911 l 103 911 l 111 916 q 110 910 110 912 l 110 910 q 103 911 108 911 z"},"®":{"ha":1710,"x_min":56,"x_max":1698,"o":"m 401 79 l 402 79 q 56 746 96 279 l 56 746 q 248 1284 70 1074 l 248 1284 q 438 1443 334 1385 l 438 1443 q 870 1558 644 1558 l 870 1558 q 1178 1494 1030 1558 q 1438 1321 1326 1430 q 1620 1059 1549 1212 q 1698 733 1690 905 l 1698 733 q 1633 431 1694 577 q 1468 177 1572 285 l 1468 177 q 1201 -1 1353 63 q 907 -66 1048 -66 l 907 -66 q 401 79 626 -66 l 401 79 z m 1338 1153 l 1338 1153 q 876 1351 1140 1351 l 876 1351 q 627 1313 734 1351 q 431 1175 520 1274 l 431 1175 q 316 985 350 1076 q 282 769 282 894 q 323 534 282 643 q 437 341 363 424 q 620 208 510 257 q 882 159 730 159 q 1171 240 1033 159 q 1385 464 1308 320 q 1462 801 1462 607 q 1338 1153 1462 994 z m 614 1118 l 620 1118 l 884 1125 q 1080 1077 1003 1125 q 1156 934 1156 1029 l 1156 934 q 1052 748 1156 798 l 1052 748 q 964 727 1007 727 l 964 727 l 1070 526 q 1098 480 1081 513 l 1098 480 l 1144 402 l 1144 392 q 1024 387 1096 387 l 1024 387 q 959 522 999 432 q 899 650 919 611 l 899 650 l 866 713 l 729 713 l 729 616 q 727 498 729 575 q 724 392 724 421 l 724 392 q 693 393 715 393 l 693 393 l 638 393 q 616 394 638 393 l 616 394 l 616 906 q 614 1043 614 998 l 614 1043 l 614 1118 z m 744 379 l 744 379 l 724 379 l 724 392 q 744 379 744 391 z m 1144 392 l 1145 392 l 1145 392 q 1154 394 1151 394 l 1154 394 l 1144 383 l 1144 392 z m 1018 387 l 1024 387 l 1028 380 l 1018 387 z m 728 964 l 728 808 l 902 804 q 1010 826 973 804 q 1047 904 1047 847 q 1026 991 1047 960 l 1026 991 q 967 1024 1005 1017 q 863 1031 928 1031 q 729 1024 798 1031 l 729 1024 l 728 964 z"},"¯":{"ha":678,"x_min":-117,"x_max":800,"o":"m -116 1301 l -116 1358 l -117 1379 q -99 1480 -117 1441 l -99 1480 q 576 1454 319 1454 l 576 1454 l 643 1454 l 795 1458 q 799 1430 799 1453 l 799 1430 l 798 1417 l 798 1345 q 799 1287 798 1303 l 799 1287 l 799 1261 l 800 1233 q 769 1208 800 1208 l 769 1208 l 739 1208 l 727 1209 l 591 1207 l 566 1206 l 540 1206 q 389 1202 457 1206 l 389 1202 l 120 1199 q -96 1195 -24 1195 l -96 1195 l -117 1219 l -117 1283 l -116 1301 z"},"°":{"ha":878,"x_min":124,"x_max":748,"o":"m 748 1265 l 748 1265 l 748 1251 q 660 1046 746 1138 q 455 954 574 954 q 236 1028 336 954 l 236 1028 q 156 1127 187 1064 q 124 1270 125 1190 l 124 1270 q 229 1483 148 1398 q 437 1568 310 1568 q 656 1482 564 1568 q 748 1265 748 1396 z"},"±":{"ha":1266,"x_min":91,"x_max":1189,"o":"m 385 669 l 385 669 l 187 666 l 141 666 q 98 679 98 666 l 98 679 l 98 760 l 97 788 l 97 957 q 257 972 97 972 l 257 972 l 281 972 l 307 973 l 484 976 l 484 1148 q 489 1190 484 1177 q 520 1202 494 1202 l 520 1202 l 542 1201 l 748 1201 l 761 1202 q 800 1191 794 1202 l 800 1191 l 799 1180 l 796 967 l 976 967 l 1032 966 l 1182 966 q 1189 939 1189 962 l 1189 939 l 1186 703 l 1187 694 q 1181 676 1187 676 l 1181 676 l 790 676 l 789 570 q 791 503 791 528 l 791 503 l 791 478 q 792 453 791 453 l 792 453 l 753 453 l 737 454 l 515 451 l 503 451 q 494 665 496 540 l 494 665 q 385 669 436 669 z m 478 454 l 499 455 l 504 446 q 485 439 492 439 q 478 454 478 439 l 478 454 z m 94 149 l 94 163 l 92 212 q 116 289 92 271 l 116 289 l 140 286 q 507 273 306 273 l 507 273 l 675 274 l 760 274 l 844 275 q 1182 266 1067 275 l 1182 266 q 1186 181 1186 262 l 1186 181 l 1185 153 l 1185 -18 q 1156 -25 1181 -25 l 1156 -25 l 1147 -24 l 453 -32 l 360 -32 l 225 -34 l 164 -34 q 112 -35 127 -34 l 112 -35 l 91 -6 l 94 149 z"},"²":{"ha":1160,"x_min":129,"x_max":1073,"o":"m 1073 148 l 1073 148 l 1069 10 l 1069 -3 q 1061 -16 1069 -15 l 1061 -16 l 1008 -15 q 639 -10 790 -10 q 147 -23 487 -10 l 147 -23 l 140 -15 q 129 48 129 -6 l 129 48 l 132 254 q 168 284 132 260 l 168 284 l 382 428 q 553 561 486 501 l 553 561 q 670 754 670 666 l 670 754 q 647 816 670 793 q 587 838 623 838 q 531 823 551 838 q 506 789 511 807 q 496 749 501 770 q 484 720 491 727 l 484 720 q 420 719 459 719 l 420 719 l 241 719 l 208 720 l 149 720 q 129 722 133 720 l 129 722 q 150 851 133 794 q 212 956 166 908 q 351 1044 258 1004 q 568 1083 444 1083 q 772 1065 691 1083 q 919 1009 853 1046 q 1024 909 985 972 q 1062 775 1062 846 q 1042 646 1062 703 l 1042 646 q 918 464 1005 544 q 712 308 830 383 l 712 308 l 713 309 q 651 253 697 299 l 651 253 l 1008 258 q 1060 230 1046 258 q 1073 148 1073 202 z"},"³":{"ha":1227,"x_min":133,"x_max":1088,"o":"m 552 425 l 552 425 l 498 424 q 475 438 482 424 q 468 488 468 451 l 468 488 q 471 581 468 545 q 488 617 473 617 l 488 617 l 501 616 l 545 616 q 651 647 613 616 q 689 736 689 677 l 689 736 q 600 846 689 846 l 600 846 q 543 831 563 846 q 518 797 522 816 l 518 797 q 493 723 505 735 l 493 723 q 223 727 346 723 l 223 727 l 186 727 q 150 733 156 727 l 150 733 q 155 785 152 742 q 167 853 157 828 l 167 853 q 288 1012 213 966 q 454 1071 362 1058 q 638 1084 546 1084 q 798 1066 730 1084 q 927 1013 866 1047 q 1027 919 988 978 q 1065 799 1065 860 l 1065 799 q 997 636 1065 688 q 829 553 929 584 l 829 553 q 1028 450 968 510 q 1088 299 1088 390 l 1088 299 q 719 -37 1088 11 l 719 -37 q 563 -43 654 -43 q 374 -14 472 -43 q 206 83 275 14 l 206 83 q 133 306 138 143 l 133 306 q 134 309 133 309 l 134 309 l 456 313 l 480 314 q 487 308 485 314 l 487 308 q 518 224 493 252 q 595 196 542 196 q 674 225 647 196 q 700 292 700 253 l 700 292 q 552 425 700 425 z m 168 857 l 168 857 l 169 859 q 168 857 169 858 z"},"´":{"ha":641,"x_min":45,"x_max":750,"o":"m 308 1413 l 125 1410 l 109 1409 l 60 1409 l 45 1438 l 213 1724 q 262 1794 256 1787 l 262 1794 l 332 1794 l 750 1784 l 750 1781 q 619 1634 710 1735 q 485 1483 528 1532 q 411 1424 442 1434 q 308 1413 379 1414 l 308 1413 z"},"µ":{"ha":1358,"x_min":74,"x_max":1319,"o":"m 1250 -19 l 1156 -19 l 1104 -20 l 971 -20 q 806 -16 879 -20 l 806 -16 q 795 72 795 -7 l 795 72 l 795 93 l 761 99 l 744 67 q 625 -48 682 -48 l 625 -48 q 585 -37 621 -48 l 585 -37 l 585 -119 l 589 -416 l 583 -416 l 467 -422 q 324 -427 385 -427 l 324 -427 l 272 -427 l 253 -426 l 147 -426 l 138 -427 q 85 -425 91 -427 l 85 -425 q 92 -401 90 -410 l 92 -401 l 86 -64 q 79 610 79 330 l 79 610 l 76 825 l 76 894 l 74 1033 q 83 1060 74 1052 l 83 1060 q 247 1061 138 1061 l 247 1061 l 276 1060 l 590 1060 q 610 1032 602 1055 l 610 1032 q 607 915 607 991 l 607 915 l 603 560 l 602 543 l 602 525 l 600 456 q 622 311 600 348 q 679 274 643 274 l 679 274 q 759 319 743 274 q 775 429 775 364 l 775 429 l 774 497 l 774 514 l 777 642 q 778 783 778 688 l 778 783 l 778 1044 q 857 1052 778 1052 q 949 1049 936 1052 l 949 1049 l 968 1049 l 1299 1055 q 1312 1029 1308 1051 l 1312 1029 l 1313 945 l 1303 302 q 1305 284 1303 288 q 1306 279 1306 280 l 1306 279 l 1307 280 l 1313 139 l 1319 131 q 1311 -7 1311 -5 l 1311 -7 q 1271 -20 1304 -20 l 1271 -20 l 1260 -20 l 1250 -19 z m 592 -416 l 592 -416 l 609 -422 q 611 -434 611 -428 q 600 -440 611 -440 q 588 -432 588 -440 q 592 -416 588 -424 z"},"¶":{"ha":1323,"x_min":33,"x_max":1261,"o":"m 810 1303 l 810 1303 q 795 317 795 1123 l 795 317 l 795 227 l 796 139 l 796 -31 l 562 -34 q 503 -25 503 -34 l 503 -25 l 503 174 l 506 799 q 33 1158 49 820 l 33 1158 q 208 1437 47 1352 l 208 1437 q 603 1511 348 1511 l 603 1511 l 626 1509 l 725 1509 l 736 1511 l 930 1515 q 1230 1519 1130 1519 l 1230 1519 q 1260 1477 1260 1519 l 1260 1477 l 1260 1430 l 1261 1415 l 1260 1399 l 1256 1037 q 1255 782 1255 965 q 1252 500 1254 598 l 1252 500 l 1243 -25 q 1244 -31 1243 -26 l 1244 -31 q 1216 -47 1240 -44 q 1129 -51 1192 -51 l 1129 -51 l 955 -48 q 927 -14 948 -48 l 927 -14 l 927 -3 l 926 12 l 926 46 q 933 548 926 151 l 933 548 l 944 1285 l 881 1290 q 810 1303 855 1292 z m 796 -31 l 796 -31 l 797 -31 q 798 -32 798 -31 l 798 -32 q 796 -31 796 -32 z"},"·":{"ha":791,"x_min":130,"x_max":663,"o":"m 393 779 l 393 779 l 404 779 q 425 777 409 779 l 425 777 l 437 777 q 594 696 524 777 q 663 510 663 615 q 587 324 663 404 q 400 244 511 244 q 215 321 289 244 q 130 503 140 397 l 130 503 q 155 592 140 529 q 209 697 170 654 l 209 697 l 208 697 q 393 779 280 779 z"},"¸":{"ha":605,"x_min":4,"x_max":614,"o":"m 242 -1 l 247 -1 l 255 -2 l 272 -2 l 410 -4 q 421 -15 421 -6 q 415 -36 421 -25 q 392 -71 408 -47 q 362 -121 376 -95 l 362 -121 q 548 -171 482 -121 q 614 -302 614 -221 l 614 -302 q 520 -473 614 -411 q 311 -535 426 -535 q 100 -516 196 -535 q 4 -469 4 -497 l 4 -469 q 33 -398 4 -448 l 33 -398 l 46 -369 q 52 -351 46 -365 q 69 -331 58 -337 l 69 -331 q 97 -342 77 -334 l 97 -342 q 243 -378 186 -378 l 243 -378 q 353 -315 353 -378 l 353 -315 q 275 -271 353 -271 l 275 -271 q 243 -279 267 -274 l 243 -279 l 221 -286 q 186 -270 210 -286 l 186 -270 l 164 -256 l 165 -256 q 121 -197 121 -231 l 121 -197 q 227 -7 173 -106 l 227 -7 q 242 -1 231 -3 l 242 -1 z m 214 -288 l 221 -286 l 221 -306 l 216 -307 l 214 -288 z"},"¹":{"ha":1030,"x_min":161,"x_max":792,"o":"m 785 1018 l 785 938 l 784 897 l 784 774 q 787 420 784 600 l 787 420 l 792 -14 q 708 -22 783 -22 l 708 -22 l 686 -21 l 489 -21 q 437 -22 489 -21 l 437 -22 l 427 -22 l 409 -23 l 400 -22 l 388 -7 l 388 -8 q 383 14 383 0 l 383 14 q 391 692 383 342 l 391 692 q 164 573 270 610 l 164 573 q 161 574 161 573 l 161 574 l 161 861 l 254 906 q 262 909 257 909 l 262 909 l 281 918 q 482 1055 436 990 l 482 1055 q 698 1052 621 1052 q 784 1053 774 1052 l 784 1053 q 785 1018 785 1048 l 785 1018 z"},"º":{"ha":938,"x_min":-17,"x_max":959,"o":"m -17 1215 l -17 1215 l -17 1225 q 279 1540 23 1469 l 279 1540 q 440 1559 350 1559 l 440 1559 q 781 1490 635 1559 l 781 1490 q 959 1223 947 1413 l 959 1223 q 620 888 939 955 l 620 888 q 440 870 532 870 l 440 870 q 138 946 266 870 q -17 1215 9 1021 z"},"»":{"ha":1332,"x_min":8,"x_max":1345,"o":"m 915 -21 l 915 -21 l 828 -19 l 809 -19 q 669 -22 757 -22 l 669 -22 l 639 -22 q 600 -19 602 -22 l 600 -19 l 819 516 l 804 549 l 809 554 l 602 1034 q 601 1040 601 1035 q 662 1045 601 1045 l 662 1045 l 881 1045 l 981 1048 q 1047 1005 1019 1048 l 1047 1005 l 1047 1006 q 1061 980 1055 990 l 1061 980 l 1238 696 l 1237 696 l 1266 649 q 1345 520 1345 536 q 1340 492 1345 504 q 1324 462 1335 479 q 1305 431 1313 444 q 1280 395 1296 418 q 1258 363 1264 372 l 1258 363 l 1236 331 q 1128 159 1196 273 q 1022 -12 1059 44 l 1022 -12 q 915 -21 1005 -21 z m 229 507 l 11 1028 l 9 1043 q 97 1052 9 1052 q 418 1046 184 1052 l 418 1046 q 419 1041 418 1044 l 419 1041 l 579 787 q 658 657 603 748 q 744 515 712 565 l 744 515 l 741 512 q 635 335 692 429 l 635 335 l 636 335 q 543 183 596 272 l 543 183 l 431 -6 q 352 -15 416 -15 l 352 -15 l 320 -15 l 255 -16 q 85 -23 161 -23 q 8 -15 8 -23 l 8 -15 q 58 110 8 14 l 58 110 l 115 242 q 163 352 156 337 l 163 352 l 229 507 z m 781 559 l 801 559 l 804 549 l 773 517 l 781 559 z m 433 -6 l 447 -20 l 444 -23 l 430 -9 l 433 -6 z m 744 520 l 746 516 l 745 516 l 744 520 z m 744 515 l 745 516 l 744 515 z"},"¼":{"ha":2592,"x_min":109,"x_max":2525,"o":"m 733 1643 l 733 1563 l 732 1522 l 732 1399 q 735 1045 732 1225 l 735 1045 l 740 611 q 656 603 731 603 l 656 603 l 634 604 l 437 604 q 385 603 437 604 l 385 603 l 375 603 l 357 602 l 348 603 l 336 618 l 336 617 q 331 639 331 625 l 331 639 q 339 1317 331 967 l 339 1317 q 112 1198 218 1235 l 112 1198 q 109 1199 109 1198 l 109 1199 l 109 1486 l 202 1531 q 210 1534 205 1534 l 210 1534 l 229 1543 q 430 1680 384 1615 l 430 1680 q 646 1677 570 1677 q 732 1678 722 1677 l 732 1678 q 733 1643 733 1673 l 733 1643 z m 1527 1572 l 1553 1572 l 1563 1573 q 1605 1562 1605 1573 l 1605 1562 q 1570 1439 1590 1495 l 1570 1439 l 1541 1362 q 1361 828 1452 1104 l 1361 828 l 1339 765 q 1241 474 1327 731 q 1104 88 1154 217 l 1104 88 l 1086 41 l 1088 41 q 1014 -54 1059 -39 l 1014 -54 q 951 -63 989 -62 l 951 -63 l 908 -63 q 800 -68 870 -68 l 800 -68 l 749 -68 q 721 -7 728 -25 l 721 -7 q 749 71 743 65 l 749 71 l 809 236 q 1274 1483 984 717 l 1274 1483 l 1308 1570 q 1388 1575 1325 1575 l 1388 1575 l 1527 1572 z m 2406 433 l 2451 433 l 2467 434 q 2494 430 2487 434 q 2503 408 2501 426 l 2503 408 q 2525 410 2515 410 l 2525 410 l 2501 386 l 2506 215 q 2502 146 2506 163 q 2481 128 2497 128 l 2481 128 l 2440 128 l 2425 127 l 2379 127 q 2381 7 2381 41 q 2377 -37 2381 -27 q 2355 -49 2372 -47 l 2355 -49 q 2159 -47 2261 -47 q 1976 -52 2056 -47 l 1976 -52 l 1949 -22 l 1952 110 l 1952 135 q 1914 150 1952 150 q 1811 130 1875 150 l 1811 130 l 1628 128 l 1533 126 q 1506 126 1533 126 l 1506 126 q 1480 129 1484 126 q 1472 134 1476 132 q 1466 139 1468 136 q 1461 145 1463 141 q 1455 153 1458 149 l 1455 153 q 1460 413 1455 337 l 1460 413 q 1560 618 1505 528 q 1644 753 1615 708 q 1685 815 1673 798 q 1699 835 1697 832 l 1699 835 l 1699 834 l 1840 1056 q 1879 1058 1848 1057 q 1925 1060 1910 1058 l 1925 1060 l 1991 1062 q 2211 1067 2081 1067 l 2211 1067 l 2356 1067 l 2379 1062 l 2381 1052 l 2379 1053 l 2379 1016 l 2374 626 q 2375 544 2374 568 l 2375 544 l 2375 539 l 2374 526 l 2374 514 q 2373 489 2373 507 l 2373 489 q 2406 433 2373 433 l 2406 433 z m 1871 634 l 1757 430 l 1776 393 l 1788 393 l 1982 396 q 2003 421 1998 405 l 2003 421 l 2002 435 l 2002 484 l 2004 594 q 1974 803 2004 796 l 1974 803 q 1960 791 1963 797 l 1960 791 l 1907 698 q 1871 634 1886 661 l 1871 634 z"},"½":{"ha":2601,"x_min":109,"x_max":2398,"o":"m 733 1643 l 733 1563 l 732 1522 l 732 1399 q 735 1045 732 1225 l 735 1045 l 740 611 q 656 603 731 603 l 656 603 l 634 604 l 437 604 q 385 603 437 604 l 385 603 l 375 603 l 357 602 l 348 603 l 336 618 l 336 617 q 331 639 331 625 l 331 639 q 339 1317 331 967 l 339 1317 q 112 1198 218 1235 l 112 1198 q 109 1199 109 1198 l 109 1199 l 109 1486 l 202 1531 q 210 1534 205 1534 l 210 1534 l 229 1543 q 430 1680 384 1615 l 430 1680 q 646 1677 570 1677 q 732 1678 722 1677 l 732 1678 q 733 1643 733 1673 l 733 1643 z m 1527 1572 l 1553 1572 l 1563 1573 q 1605 1562 1605 1573 l 1605 1562 q 1570 1439 1590 1495 l 1570 1439 l 1541 1362 q 1361 828 1452 1104 l 1361 828 l 1339 765 q 1241 474 1327 731 q 1104 88 1154 217 l 1104 88 l 1086 41 l 1088 41 q 1014 -54 1059 -39 l 1014 -54 q 951 -63 989 -62 l 951 -63 l 908 -63 q 800 -68 870 -68 l 800 -68 l 749 -68 q 721 -7 728 -25 l 721 -7 q 749 71 743 65 l 749 71 l 809 236 q 1274 1483 984 717 l 1274 1483 l 1308 1570 q 1388 1575 1325 1575 l 1388 1575 l 1527 1572 z m 2398 141 l 2398 141 l 2394 3 l 2394 -10 q 2386 -23 2394 -22 l 2386 -23 l 2333 -22 q 1964 -17 2116 -17 q 1472 -30 1812 -17 l 1472 -30 l 1465 -22 q 1454 41 1454 -13 l 1454 41 l 1457 247 q 1486 272 1457 253 q 1522 296 1515 291 q 1541 309 1529 301 l 1541 309 l 1707 421 q 1878 554 1811 494 l 1878 554 q 1995 747 1995 659 l 1995 747 q 1972 809 1995 786 q 1912 831 1948 831 q 1856 816 1876 831 q 1831 782 1836 800 q 1821 742 1826 763 q 1809 713 1816 720 l 1809 713 q 1745 712 1784 712 l 1745 712 l 1566 712 l 1533 713 l 1474 713 q 1454 715 1458 713 l 1454 715 q 1475 844 1458 787 q 1537 949 1491 901 q 1676 1037 1583 997 q 1893 1076 1769 1076 q 2097 1058 2016 1076 q 2244 1002 2178 1039 q 2349 902 2310 965 q 2387 768 2387 839 q 2366 639 2387 696 l 2366 639 q 2243 457 2330 537 q 2037 301 2155 376 l 2037 301 l 2038 302 q 1976 246 2022 292 l 1976 246 l 2333 251 q 2385 223 2371 251 q 2398 141 2398 195 z"},"¾":{"ha":2588,"x_min":82,"x_max":2551,"o":"m 501 1050 l 448 1049 q 417 1100 417 1049 l 417 1100 q 420 1206 417 1170 q 437 1242 422 1242 l 437 1242 l 450 1241 l 494 1241 q 600 1272 562 1241 q 638 1360 638 1302 l 638 1360 q 549 1471 638 1471 l 549 1471 q 492 1456 512 1471 q 467 1422 471 1441 l 467 1422 q 442 1348 454 1360 l 442 1348 q 172 1352 295 1348 l 172 1352 l 135 1352 q 99 1358 105 1352 l 99 1358 q 104 1410 101 1367 q 116 1478 106 1453 l 116 1478 q 237 1637 162 1591 q 403 1696 311 1683 q 587 1709 495 1709 q 747 1691 679 1709 q 876 1638 815 1672 q 976 1544 937 1603 q 1014 1424 1014 1485 l 1014 1424 q 946 1261 1014 1313 q 778 1178 878 1209 l 778 1178 q 977 1075 917 1135 q 1037 924 1037 1015 l 1037 924 q 668 588 1037 636 l 668 588 q 512 582 603 582 q 323 611 421 582 q 155 708 224 639 l 155 708 q 82 931 87 768 l 82 931 q 83 934 82 934 l 83 934 l 405 938 l 429 939 q 436 933 434 939 l 436 933 q 467 849 442 877 q 544 821 491 821 q 623 850 596 821 q 649 917 649 878 l 649 917 q 501 1050 649 1050 l 501 1050 z m 117 1482 l 117 1482 l 118 1484 q 117 1482 118 1483 z m 1668 1572 l 1694 1572 l 1704 1573 q 1746 1562 1746 1573 l 1746 1562 q 1711 1439 1731 1495 l 1711 1439 l 1682 1362 q 1502 828 1593 1104 l 1502 828 l 1480 765 q 1382 474 1468 731 q 1245 88 1295 217 l 1245 88 l 1227 41 l 1229 41 q 1154 -54 1200 -39 l 1154 -54 q 1092 -63 1130 -62 l 1092 -63 l 1049 -63 q 941 -68 1011 -68 l 941 -68 l 890 -68 q 862 -7 869 -25 l 862 -7 q 890 71 884 65 l 890 71 l 950 236 q 1415 1483 1125 717 l 1415 1483 l 1449 1570 q 1529 1575 1466 1575 l 1529 1575 l 1668 1572 z m 2432 433 l 2477 433 l 2493 434 q 2520 430 2513 434 q 2529 408 2527 426 l 2529 408 q 2551 410 2541 410 l 2551 410 l 2527 386 l 2532 215 q 2528 146 2532 163 q 2507 128 2523 128 l 2507 128 l 2466 128 l 2451 127 l 2405 127 q 2407 7 2407 41 q 2403 -37 2407 -27 q 2381 -49 2398 -47 l 2381 -49 q 2185 -47 2287 -47 q 2002 -52 2082 -47 l 2002 -52 l 1975 -22 l 1978 110 l 1978 135 q 1940 150 1978 150 q 1837 130 1901 150 l 1837 130 l 1654 128 l 1559 126 l 1532 126 q 1506 129 1510 126 q 1498 134 1502 132 q 1492 139 1494 136 q 1487 145 1489 141 q 1481 153 1484 149 l 1481 153 q 1486 413 1481 337 l 1486 413 q 1586 618 1531 528 q 1670 753 1641 708 q 1711 815 1699 798 q 1725 835 1723 832 l 1725 835 l 1725 834 l 1866 1056 q 1905 1058 1874 1057 q 1951 1060 1936 1058 l 1951 1060 l 2017 1062 q 2237 1067 2107 1067 l 2237 1067 l 2382 1067 l 2405 1062 l 2407 1052 l 2405 1053 l 2405 1016 l 2400 626 q 2401 544 2400 568 l 2401 544 l 2401 539 l 2400 526 l 2400 514 q 2399 489 2399 507 l 2399 489 q 2432 433 2399 433 l 2432 433 z m 1897 634 l 1783 430 l 1802 393 l 1814 393 l 2008 396 q 2029 421 2024 405 l 2029 421 l 2028 435 l 2028 484 l 2030 594 q 2000 803 2030 796 l 2000 803 q 1986 791 1989 797 l 1986 791 l 1933 698 q 1897 634 1912 661 l 1897 634 z"},"¿":{"ha":1121,"x_min":52,"x_max":1105,"o":"m 451 851 l 451 851 l 441 946 q 448 951 444 949 l 448 951 l 449 951 q 469 953 457 953 l 469 953 l 589 955 l 627 954 q 852 960 645 954 l 852 960 l 954 963 q 965 847 965 953 l 965 847 l 965 838 q 912 662 965 733 l 912 662 q 843 584 881 619 q 767 511 805 548 l 767 511 q 659 337 677 424 l 659 337 q 705 264 668 282 q 797 245 741 245 l 797 245 l 801 246 q 1072 306 936 250 l 1072 306 l 1105 278 l 1105 263 q 1103 -94 1103 25 l 1103 -94 q 685 -185 1103 -168 l 685 -185 q 285 -111 446 -185 l 285 -111 l 240 -88 l 241 -89 q 115 33 155 -34 l 115 33 l 102 57 q 73 160 85 94 q 52 246 61 226 l 52 246 q 114 450 58 372 l 114 450 q 292 636 181 551 l 292 636 q 368 698 332 666 l 368 698 q 451 851 447 766 z m 449 1213 l 450 1226 l 447 1318 l 447 1473 q 879 1490 462 1473 l 879 1490 l 949 1493 q 971 1450 971 1462 l 971 1450 l 971 1380 l 970 1361 l 970 1259 l 971 1236 q 953 1117 971 1140 l 953 1117 l 868 1120 q 629 1129 759 1126 q 474 1139 499 1131 q 449 1188 449 1147 l 449 1188 l 449 1213 z m 447 1495 l 447 1495 l 447 1475 l 419 1473 q 447 1495 441 1495 z"},"À":{"ha":1639,"x_min":-38,"x_max":1697,"o":"m 1697 -11 l 1697 -11 q 1642 -24 1696 -24 l 1642 -24 l 1550 -24 l 1488 -25 l 1427 -25 l 1330 -26 q 1089 -19 1185 -26 l 1089 -19 q 1082 -7 1086 -18 l 1082 -7 l 1077 14 q 1030 213 1068 117 l 1030 213 l 602 209 q 576 108 598 192 q 543 -19 554 24 l 543 -19 q 448 -29 533 -29 l 448 -29 l 423 -28 l 365 -28 l 105 -34 l 75 -34 l 47 -35 l -23 -35 q -38 -17 -30 -28 l -38 -17 q 233 841 62 329 l 233 841 l 256 912 l 255 912 l 282 995 q 357 1217 295 1035 q 434 1452 418 1399 q 452 1507 449 1505 l 452 1507 l 618 1507 l 973 1512 l 1069 1507 l 1148 1512 q 1208 1488 1208 1512 l 1208 1488 q 1475 685 1308 1209 q 1663 96 1642 161 l 1663 96 l 1677 46 q 1697 -11 1684 19 z m 648 535 l 707 535 l 748 534 l 987 535 q 964 710 972 654 l 964 710 l 926 881 q 864 1151 866 1146 q 861 1161 862 1156 q 858 1167 859 1165 q 856 1172 857 1168 q 853 1178 854 1176 q 849 1182 851 1179 l 849 1182 q 820 1203 842 1194 l 820 1203 q 659 601 793 1197 l 659 601 l 648 535 z m 1118 1657 l 800 1657 l 791 1653 q 755 1697 789 1655 l 755 1697 l 755 1696 l 724 1734 q 552 1925 635 1841 q 469 2033 469 2008 l 469 2033 q 478 2046 469 2038 l 478 2046 q 918 2028 683 2028 l 918 2028 l 948 2028 l 954 2029 q 1058 1876 976 2013 q 1159 1710 1139 1738 q 1179 1669 1179 1681 q 1118 1657 1179 1657 l 1118 1657 z"},"Á":{"ha":1639,"x_min":-38,"x_max":1697,"o":"m 1697 -11 l 1697 -11 q 1642 -24 1696 -24 l 1642 -24 l 1550 -24 l 1488 -25 l 1427 -25 l 1330 -26 q 1089 -19 1185 -26 l 1089 -19 q 1082 -7 1086 -18 l 1082 -7 l 1077 14 q 1030 213 1068 117 l 1030 213 l 602 209 q 576 108 598 192 q 543 -19 554 24 l 543 -19 q 448 -29 533 -29 l 448 -29 l 423 -28 l 365 -28 l 105 -34 l 75 -34 l 47 -35 l -23 -35 q -38 -17 -30 -28 l -38 -17 q 233 841 62 329 l 233 841 l 256 912 l 255 912 l 282 995 q 357 1217 295 1035 q 434 1452 418 1399 q 452 1507 449 1505 l 452 1507 l 618 1507 l 973 1512 l 1069 1507 l 1148 1512 q 1208 1488 1208 1512 l 1208 1488 q 1475 685 1308 1209 q 1663 96 1642 161 l 1663 96 l 1677 46 q 1697 -11 1684 19 z m 648 535 l 707 535 l 748 534 l 987 535 q 964 710 972 654 l 964 710 l 926 881 q 864 1151 866 1146 q 861 1161 862 1156 q 858 1167 859 1165 q 856 1172 857 1168 q 853 1178 854 1176 q 849 1182 851 1179 l 849 1182 q 820 1203 842 1194 l 820 1203 q 659 601 793 1197 l 659 601 l 648 535 z m 740 1665 l 557 1662 l 541 1661 l 492 1661 l 477 1690 l 645 1976 q 694 2046 688 2039 l 694 2046 l 764 2046 l 1182 2036 l 1182 2033 q 1051 1886 1142 1987 q 917 1735 960 1784 q 843 1676 874 1686 q 740 1665 811 1666 l 740 1665 z"},"Â":{"ha":1639,"x_min":-38,"x_max":1697,"o":"m 1697 -11 l 1697 -11 q 1642 -24 1696 -24 l 1642 -24 l 1550 -24 l 1488 -25 l 1427 -25 l 1330 -26 q 1089 -19 1185 -26 l 1089 -19 q 1082 -7 1086 -18 l 1082 -7 l 1077 14 q 1030 213 1068 117 l 1030 213 l 602 209 q 576 108 598 192 q 543 -19 554 24 l 543 -19 q 448 -29 533 -29 l 448 -29 l 423 -28 l 365 -28 l 105 -34 l 75 -34 l 47 -35 l -23 -35 q -38 -17 -30 -28 l -38 -17 q 233 841 62 329 l 233 841 l 256 912 l 255 912 l 282 995 q 357 1217 295 1035 q 434 1452 418 1399 q 452 1507 449 1505 l 452 1507 l 618 1507 l 973 1512 l 1069 1507 l 1148 1512 q 1208 1488 1208 1512 l 1208 1488 q 1475 685 1308 1209 q 1663 96 1642 161 l 1663 96 l 1677 46 q 1697 -11 1684 19 z m 648 535 l 707 535 l 748 534 l 987 535 q 964 710 972 654 l 964 710 l 926 881 q 864 1151 866 1146 q 861 1161 862 1156 q 858 1167 859 1165 q 856 1172 857 1168 q 853 1178 854 1176 q 849 1182 851 1179 l 849 1182 q 820 1203 842 1194 l 820 1203 q 659 601 793 1197 l 659 601 l 648 535 z m 1280 1692 l 1218 1692 l 923 1685 q 867 1756 892 1703 l 867 1756 q 859 1771 861 1768 l 859 1771 l 829 1831 q 790 1781 813 1816 q 749 1721 767 1746 q 720 1696 731 1696 l 720 1696 l 442 1696 l 393 1693 q 336 1705 336 1693 l 336 1705 q 337 1711 336 1707 l 337 1711 q 518 1964 405 1816 l 518 1964 l 540 1999 q 612 2049 565 2040 q 881 2061 659 2057 l 881 2061 l 1058 2064 q 1093 2030 1076 2055 q 1115 1999 1110 2005 q 1129 1979 1120 1992 q 1141 1961 1137 1966 l 1141 1961 l 1141 1962 l 1203 1870 q 1250 1805 1215 1852 l 1250 1805 l 1270 1777 q 1285 1755 1275 1769 l 1285 1755 l 1302 1733 q 1318 1702 1318 1712 q 1291 1691 1318 1691 l 1291 1691 l 1280 1692 z"},"Ã":{"ha":1639,"x_min":-38,"x_max":1697,"o":"m 1697 -11 l 1697 -11 q 1642 -24 1696 -24 l 1642 -24 l 1550 -24 l 1488 -25 l 1427 -25 l 1330 -26 q 1089 -19 1185 -26 l 1089 -19 q 1082 -7 1086 -18 l 1082 -7 l 1077 14 q 1030 213 1068 117 l 1030 213 l 602 209 q 576 108 598 192 q 543 -19 554 24 l 543 -19 q 448 -29 533 -29 l 448 -29 l 423 -28 l 365 -28 l 105 -34 l 75 -34 l 47 -35 l -23 -35 q -38 -17 -30 -28 l -38 -17 q 233 841 62 329 l 233 841 l 256 912 l 255 912 l 282 995 q 357 1217 295 1035 q 434 1452 418 1399 q 452 1507 449 1505 l 452 1507 l 618 1507 l 973 1512 l 1069 1507 l 1148 1512 q 1208 1488 1208 1512 l 1208 1488 q 1475 685 1308 1209 q 1663 96 1642 161 l 1663 96 l 1677 46 q 1697 -11 1684 19 z m 648 535 l 707 535 l 748 534 l 987 535 q 964 710 972 654 l 964 710 l 926 881 q 864 1151 866 1146 q 861 1161 862 1156 q 858 1167 859 1165 q 856 1172 857 1168 q 853 1178 854 1176 q 849 1182 851 1179 l 849 1182 q 820 1203 842 1194 l 820 1203 q 659 601 793 1197 l 659 601 l 648 535 z m 1003 2025 l 1003 2025 l 1026 2044 l 1279 2037 q 1292 2022 1282 2036 l 1292 2022 q 1008 1678 1270 1678 l 1008 1678 q 866 1699 954 1678 l 866 1699 l 808 1717 q 678 1750 702 1750 q 643 1746 653 1750 q 630 1729 632 1741 q 626 1704 628 1717 q 392 1690 624 1690 l 392 1690 l 365 1690 q 359 1708 359 1696 l 359 1708 q 436 1965 359 1880 q 655 2049 513 2049 l 655 2049 q 841 2012 708 2049 l 841 2012 l 841 2013 q 928 1987 871 2002 l 928 1987 l 958 1981 q 972 1971 962 1981 l 972 1971 l 997 1999 q 1003 2025 1002 2016 z m 980 2012 l 964 2019 l 973 2029 l 980 2012 z"},"Ä":{"ha":1639,"x_min":-38,"x_max":1697,"o":"m 1697 -11 l 1697 -11 q 1642 -24 1696 -24 l 1642 -24 l 1550 -24 l 1488 -25 l 1427 -25 l 1330 -26 q 1089 -19 1185 -26 l 1089 -19 q 1082 -7 1086 -18 l 1082 -7 l 1077 14 q 1030 213 1068 117 l 1030 213 l 602 209 q 576 108 598 192 q 543 -19 554 24 l 543 -19 q 448 -29 533 -29 l 448 -29 l 423 -28 l 365 -28 l 105 -34 l 75 -34 l 47 -35 l -23 -35 q -38 -17 -30 -28 l -38 -17 q 233 841 62 329 l 233 841 l 256 912 l 255 912 l 282 995 q 357 1217 295 1035 q 434 1452 418 1399 q 452 1507 449 1505 l 452 1507 l 618 1507 l 973 1512 l 1069 1507 l 1148 1512 q 1208 1488 1208 1512 l 1208 1488 q 1475 685 1308 1209 q 1663 96 1642 161 l 1663 96 l 1677 46 q 1697 -11 1684 19 z m 648 535 l 707 535 l 748 534 l 987 535 q 964 710 972 654 l 964 710 l 926 881 q 864 1151 866 1146 q 861 1161 862 1156 q 858 1167 859 1165 q 856 1172 857 1168 q 853 1178 854 1176 q 849 1182 851 1179 l 849 1182 q 820 1203 842 1194 l 820 1203 q 659 601 793 1197 l 659 601 l 648 535 z m 1084 2037 l 1084 2037 l 1254 2040 q 1318 2032 1315 2040 l 1318 2032 q 1325 1690 1323 1880 l 1325 1690 q 1322 1680 1322 1684 l 1322 1680 l 1315 1681 l 982 1667 l 956 1696 q 962 1905 956 1781 q 980 2040 968 2028 l 980 2040 q 1084 2037 1035 2037 z m 956 1696 l 956 1695 l 956 1696 z m 1311 1665 l 1321 1679 l 1335 1678 q 1321 1661 1335 1661 l 1321 1661 q 1311 1665 1315 1661 l 1311 1665 z m 751 2000 l 751 1968 l 753 1870 l 753 1839 q 754 1683 753 1730 l 754 1683 q 673 1672 744 1672 l 673 1672 l 652 1673 l 601 1673 l 414 1666 l 390 1701 q 412 2040 390 2015 l 412 2040 q 565 2039 448 2039 q 745 2036 681 2038 l 745 2036 q 752 2011 752 2034 l 752 2011 l 751 2000 z"},"Å":{"ha":1639,"x_min":-38,"x_max":1697,"o":"m 1697 -11 l 1697 -11 q 1642 -24 1696 -24 l 1642 -24 l 1550 -24 l 1488 -25 l 1427 -25 l 1330 -26 q 1089 -19 1185 -26 l 1089 -19 q 1082 -7 1086 -18 l 1082 -7 l 1077 14 q 1030 213 1068 117 l 1030 213 l 602 209 q 576 108 598 192 q 543 -19 554 24 l 543 -19 q 448 -29 533 -29 l 448 -29 l 423 -28 l 365 -28 l 105 -34 l 75 -34 l 47 -35 l -23 -35 q -38 -17 -30 -28 l -38 -17 q 233 841 62 329 l 233 841 l 256 912 l 255 912 l 282 995 q 357 1217 295 1035 q 434 1452 418 1399 q 452 1507 449 1505 l 452 1507 l 618 1507 l 973 1512 l 1069 1507 l 1148 1512 q 1208 1488 1208 1512 l 1208 1488 q 1475 685 1308 1209 q 1663 96 1642 161 l 1663 96 l 1677 46 q 1697 -11 1684 19 z m 648 535 l 707 535 l 748 534 l 987 535 q 964 710 972 654 l 964 710 l 926 881 q 864 1151 866 1146 q 861 1161 862 1156 q 858 1167 859 1165 q 856 1172 857 1168 q 853 1178 854 1176 q 849 1182 851 1179 l 849 1182 q 820 1203 842 1194 l 820 1203 q 659 601 793 1197 l 659 601 l 648 535 z m 815 2232 q 1027 2151 939 2232 q 1115 1950 1115 2069 q 1030 1748 1115 1830 q 832 1666 944 1666 l 832 1666 q 567 1844 651 1666 l 567 1844 q 539 1931 539 1903 q 542 1979 539 1958 q 565 2049 545 2000 q 618 2140 584 2098 l 618 2140 q 815 2232 691 2232 z m 960 1950 q 920 2049 960 2013 q 828 2085 880 2085 q 736 2053 776 2085 q 685 1963 696 2020 l 685 1963 q 731 1855 685 1894 q 830 1815 776 1815 q 922 1851 883 1815 q 960 1950 960 1886 z"},"Æ":{"ha":2383,"x_min":-42,"x_max":2336,"o":"m 2326 -14 l 2326 -14 l 1994 -11 q 1693 -16 1856 -11 l 1693 -16 q 1597 -24 1676 -24 l 1597 -24 l 1546 -24 q 1462 -26 1500 -26 l 1462 -26 l 1422 -25 l 1273 -27 q 1085 -19 1186 -26 l 1085 -19 q 1078 -7 1082 -18 l 1078 -7 l 1072 15 q 967 213 1041 213 l 967 213 q 966 213 966 213 l 966 213 l 597 209 q 568 95 588 172 q 539 -19 548 18 l 539 -19 q 443 -29 528 -29 l 443 -29 l 420 -28 l 361 -28 l 101 -34 l 70 -34 l 43 -35 l -27 -35 q -42 -17 -34 -28 l -42 -17 q 214 793 42 273 q 415 1409 385 1312 q 447 1507 445 1505 l 447 1507 l 614 1507 l 969 1512 l 1065 1507 l 1144 1512 q 1177 1508 1164 1512 l 1177 1508 q 1870 1516 1639 1516 l 1870 1516 q 1884 1505 1879 1511 l 1884 1505 l 1936 1327 q 1993 1121 1981 1168 l 1993 1121 q 1942 1115 1987 1115 l 1942 1115 l 1935 1115 q 1421 1123 1687 1115 l 1421 1123 q 1462 918 1442 996 l 1462 918 l 1758 925 q 1916 927 1840 927 q 2007 897 1991 927 l 2007 897 l 2014 865 q 2060 720 2027 817 l 2060 720 l 2059 720 l 2099 583 q 1625 568 1808 568 l 1625 568 l 1568 568 l 1624 377 l 2158 394 q 2226 377 2208 394 l 2226 377 l 2307 99 q 2323 52 2309 90 q 2336 1 2336 14 q 2326 -14 2336 -12 z m 2102 574 l 2099 583 l 2106 584 l 2110 581 q 2102 577 2102 581 l 2102 577 l 2102 574 z m 1265 -45 l 1278 -29 l 1284 -34 l 1270 -49 l 1265 -45 z m 664 535 l 703 535 l 744 534 q 982 595 977 534 l 982 595 q 972 662 982 624 q 960 710 962 699 l 960 710 l 922 881 q 862 1146 899 975 l 862 1146 l 858 1155 q 856 1164 858 1160 q 852 1172 853 1168 q 849 1178 850 1176 q 845 1182 847 1179 l 845 1182 q 816 1203 838 1194 l 816 1203 q 736 1061 774 1199 q 666 781 697 922 q 625 601 635 640 l 625 601 l 664 535 z"},"Ç":{"ha":1556,"x_min":49,"x_max":1538,"o":"m 49 797 l 49 797 q 129 1140 73 1025 l 129 1140 q 448 1455 236 1362 l 448 1455 q 859 1538 637 1538 l 859 1538 q 1402 1334 1231 1538 l 1402 1334 q 1521 1033 1505 1213 l 1521 1033 l 1530 939 q 1315 923 1513 923 l 1315 923 l 1156 925 l 1143 925 l 1056 927 l 1032 926 l 1012 926 q 970 1008 984 926 q 926 1117 955 1090 q 857 1143 896 1143 q 789 1129 818 1143 q 740 1096 759 1115 q 708 1040 721 1076 l 708 1040 q 679 909 684 978 q 674 753 674 839 l 674 753 l 674 729 l 670 628 q 826 346 670 352 l 826 346 q 882 360 866 346 l 882 360 q 957 513 925 398 l 957 513 q 974 552 964 537 l 974 552 l 1012 552 l 1058 551 l 1220 551 l 1269 552 l 1364 551 l 1422 551 l 1481 550 l 1521 550 q 1538 529 1533 549 l 1538 529 l 1535 496 q 1480 282 1526 378 l 1480 282 q 1213 21 1395 106 q 812 -65 1030 -65 l 812 -65 q 240 160 431 -65 q 49 797 49 385 z m 718 -1 l 723 -1 l 731 -2 l 748 -2 l 886 -4 q 897 -15 897 -6 q 891 -36 897 -25 q 868 -71 884 -47 q 838 -121 852 -95 l 838 -121 q 1024 -171 958 -121 q 1090 -302 1090 -221 l 1090 -302 q 996 -473 1090 -411 q 787 -535 902 -535 q 576 -516 672 -535 q 480 -469 480 -497 l 480 -469 q 509 -398 480 -448 l 509 -398 l 522 -369 q 528 -351 522 -365 q 545 -331 534 -337 l 545 -331 q 573 -342 553 -334 l 573 -342 q 719 -378 662 -378 l 719 -378 q 829 -315 829 -378 l 829 -315 q 751 -271 829 -271 l 751 -271 q 719 -279 743 -274 l 719 -279 l 697 -286 q 662 -270 686 -286 l 662 -270 l 640 -256 l 641 -256 q 597 -197 597 -231 l 597 -197 q 703 -7 649 -106 l 703 -7 q 718 -1 707 -3 l 718 -1 z m 690 -288 l 697 -286 l 697 -306 l 692 -307 l 690 -288 z"},"È":{"ha":1306,"x_min":107,"x_max":1294,"o":"m 113 1093 l 114 1238 l 109 1501 q 116 1498 110 1501 l 116 1498 q 1261 1512 876 1511 l 1261 1512 q 1267 1506 1265 1510 l 1267 1506 l 1267 1224 q 1265 1157 1267 1183 l 1265 1157 q 1206 1141 1260 1141 l 1206 1141 l 1199 1141 q 695 1149 957 1141 l 695 1149 q 693 1117 695 1140 q 689 1084 690 1094 l 689 1084 l 684 1046 q 677 914 679 1008 l 677 914 l 987 921 q 1103 923 1067 923 l 1103 923 l 1119 923 q 1199 920 1180 923 q 1218 899 1218 916 l 1218 899 l 1217 891 l 1217 867 l 1222 610 l 1221 609 l 1221 610 q 735 595 917 595 l 735 595 l 688 595 l 688 353 l 1231 370 q 1288 357 1276 370 l 1288 357 q 1287 283 1287 331 l 1287 283 l 1294 11 q 1272 -18 1294 -14 l 1272 -18 l 940 -15 q 550 -22 842 -15 l 550 -22 l 386 -26 q 128 -32 212 -32 l 128 -32 l 125 -30 l 126 -30 q 107 -11 116 -20 l 107 -11 l 107 24 l 113 1093 z m 908 1685 l 590 1685 l 581 1681 q 545 1725 579 1683 l 545 1725 l 545 1724 l 514 1762 q 342 1953 425 1869 q 259 2061 259 2036 l 259 2061 q 268 2074 259 2066 l 268 2074 q 708 2056 473 2056 l 708 2056 l 738 2056 l 744 2057 q 848 1904 766 2041 q 949 1738 929 1766 q 969 1697 969 1709 q 908 1685 969 1685 l 908 1685 z"},"É":{"ha":1306,"x_min":107,"x_max":1294,"o":"m 113 1093 l 114 1238 l 109 1501 q 116 1498 110 1501 l 116 1498 q 1261 1512 876 1511 l 1261 1512 q 1267 1506 1265 1510 l 1267 1506 l 1267 1224 q 1265 1157 1267 1183 l 1265 1157 q 1206 1141 1260 1141 l 1206 1141 l 1199 1141 q 695 1149 957 1141 l 695 1149 q 693 1117 695 1140 q 689 1084 690 1094 l 689 1084 l 684 1046 q 677 914 679 1008 l 677 914 l 987 921 q 1103 923 1067 923 l 1103 923 l 1119 923 q 1199 920 1180 923 q 1218 899 1218 916 l 1218 899 l 1217 891 l 1217 867 l 1222 610 l 1221 609 l 1221 610 q 735 595 917 595 l 735 595 l 688 595 l 688 353 l 1231 370 q 1288 357 1276 370 l 1288 357 q 1287 283 1287 331 l 1287 283 l 1294 11 q 1272 -18 1294 -14 l 1272 -18 l 940 -15 q 550 -22 842 -15 l 550 -22 l 386 -26 q 128 -32 212 -32 l 128 -32 l 125 -30 l 126 -30 q 107 -11 116 -20 l 107 -11 l 107 24 l 113 1093 z m 580 1876 l 397 1873 l 381 1872 l 332 1872 l 317 1901 l 485 2187 q 534 2257 528 2250 l 534 2257 l 604 2257 l 1022 2247 l 1022 2244 q 891 2097 982 2198 q 757 1946 800 1995 q 683 1887 714 1897 q 580 1876 651 1877 l 580 1876 z"},"Ê":{"ha":1306,"x_min":107,"x_max":1294,"o":"m 113 1093 l 114 1238 l 109 1501 q 116 1498 110 1501 l 116 1498 q 1261 1512 876 1511 l 1261 1512 q 1267 1506 1265 1510 l 1267 1506 l 1267 1224 q 1265 1157 1267 1183 l 1265 1157 q 1206 1141 1260 1141 l 1206 1141 l 1199 1141 q 695 1149 957 1141 l 695 1149 q 693 1117 695 1140 q 689 1084 690 1094 l 689 1084 l 684 1046 q 677 914 679 1008 l 677 914 l 987 921 q 1103 923 1067 923 l 1103 923 l 1119 923 q 1199 920 1180 923 q 1218 899 1218 916 l 1218 899 l 1217 891 l 1217 867 l 1222 610 l 1221 609 l 1221 610 q 735 595 917 595 l 735 595 l 688 595 l 688 353 l 1231 370 q 1288 357 1276 370 l 1288 357 q 1287 283 1287 331 l 1287 283 l 1294 11 q 1272 -18 1294 -14 l 1272 -18 l 940 -15 q 550 -22 842 -15 l 550 -22 l 386 -26 q 128 -32 212 -32 l 128 -32 l 125 -30 l 126 -30 q 107 -11 116 -20 l 107 -11 l 107 24 l 113 1093 z m 1141 1680 l 1079 1680 l 784 1673 q 728 1744 753 1691 l 728 1744 q 720 1759 722 1756 l 720 1759 l 690 1819 q 651 1769 674 1804 q 610 1709 628 1734 q 581 1684 592 1684 l 581 1684 l 303 1684 l 254 1681 q 197 1693 197 1681 l 197 1693 q 198 1699 197 1695 l 198 1699 q 379 1952 266 1804 l 379 1952 l 401 1987 q 473 2037 426 2028 q 742 2049 520 2045 l 742 2049 l 919 2052 q 954 2018 937 2043 q 976 1987 971 1993 q 990 1967 981 1980 q 1002 1949 998 1954 l 1002 1949 l 1002 1950 l 1064 1858 q 1111 1793 1076 1840 l 1111 1793 l 1131 1765 q 1146 1743 1136 1757 l 1146 1743 l 1163 1721 q 1179 1690 1179 1700 q 1152 1679 1179 1679 l 1152 1679 l 1141 1680 z"},"Ë":{"ha":1306,"x_min":107,"x_max":1294,"o":"m 113 1093 l 114 1238 l 109 1501 q 116 1498 110 1501 l 116 1498 q 1261 1512 876 1511 l 1261 1512 q 1267 1506 1265 1510 l 1267 1506 l 1267 1224 q 1265 1157 1267 1183 l 1265 1157 q 1206 1141 1260 1141 l 1206 1141 l 1199 1141 q 695 1149 957 1141 l 695 1149 q 693 1117 695 1140 q 689 1084 690 1094 l 689 1084 l 684 1046 q 677 914 679 1008 l 677 914 l 987 921 q 1103 923 1067 923 l 1103 923 l 1119 923 q 1199 920 1180 923 q 1218 899 1218 916 l 1218 899 l 1217 891 l 1217 867 l 1222 610 l 1221 609 l 1221 610 q 735 595 917 595 l 735 595 l 688 595 l 688 353 l 1231 370 q 1288 357 1276 370 l 1288 357 q 1287 283 1287 331 l 1287 283 l 1294 11 q 1272 -18 1294 -14 l 1272 -18 l 940 -15 q 550 -22 842 -15 l 550 -22 l 386 -26 q 128 -32 212 -32 l 128 -32 l 125 -30 l 126 -30 q 107 -11 116 -20 l 107 -11 l 107 24 l 113 1093 z m 920 2040 l 920 2040 l 1090 2043 q 1154 2035 1151 2043 l 1154 2035 q 1161 1693 1159 1883 l 1161 1693 q 1158 1683 1158 1687 l 1158 1683 l 1151 1684 l 818 1670 l 792 1699 q 798 1908 792 1784 q 816 2043 804 2031 l 816 2043 q 920 2040 871 2040 z m 792 1699 l 792 1698 l 792 1699 z m 1147 1668 l 1157 1682 l 1171 1681 q 1157 1664 1171 1664 l 1157 1664 q 1147 1668 1151 1664 l 1147 1668 z m 587 2003 l 587 1971 l 589 1873 l 589 1842 q 590 1686 589 1733 l 590 1686 q 509 1675 580 1675 l 509 1675 l 488 1676 l 437 1676 l 250 1669 q 226 1704 229 1700 l 226 1704 q 248 2043 226 2018 l 248 2043 q 401 2042 284 2042 q 581 2039 517 2041 l 581 2039 q 588 2014 588 2037 l 588 2014 l 587 2003 z"},"Ì":{"ha":829,"x_min":50,"x_max":760,"o":"m 95 -3 l 98 107 q 109 389 98 310 l 109 389 q 121 1266 109 824 l 121 1266 q 118 1393 118 1329 l 118 1393 l 118 1426 q 114 1481 114 1457 q 119 1512 114 1505 l 119 1512 q 494 1499 333 1499 q 715 1505 655 1499 l 715 1505 q 718 1488 717 1502 l 718 1488 l 711 1488 l 711 1126 l 718 312 q 721 297 718 303 l 721 297 l 721 295 q 724 282 724 289 l 724 282 l 732 -9 q 714 -26 727 -20 l 714 -26 l 680 -26 l 120 -35 q 94 -20 110 -30 l 94 -20 l 95 -3 z m 499 2053 l 529 2053 l 535 2054 q 639 1901 557 2038 q 740 1735 720 1763 q 760 1694 760 1706 q 699 1682 760 1682 l 699 1682 l 381 1682 l 375 1680 q 372 1678 374 1680 l 372 1678 q 336 1722 370 1680 l 336 1722 l 336 1721 l 305 1759 q 133 1950 216 1866 q 50 2058 50 2033 l 50 2058 q 59 2071 50 2064 l 59 2071 q 499 2053 264 2053 l 499 2053 z"},"Í":{"ha":832,"x_min":98,"x_max":881,"o":"m 99 -3 l 102 107 q 113 389 102 310 l 113 389 q 125 1266 113 824 l 125 1266 q 122 1393 122 1329 l 122 1393 l 122 1426 q 118 1481 118 1457 q 123 1512 118 1505 l 123 1512 q 498 1499 337 1499 q 719 1505 659 1499 l 719 1505 q 722 1488 721 1502 l 722 1488 l 715 1488 l 715 1126 l 722 312 q 725 297 722 303 l 725 297 l 725 295 q 728 282 728 289 l 728 282 l 736 -9 q 718 -26 731 -20 l 718 -26 l 684 -26 l 124 -35 q 98 -20 114 -30 l 98 -20 l 99 -3 z m 439 1674 l 256 1671 l 240 1670 l 191 1670 l 176 1699 l 344 1985 q 393 2055 387 2048 l 393 2055 l 463 2055 l 881 2045 l 881 2042 q 750 1895 841 1996 q 616 1744 659 1793 q 542 1685 573 1695 q 439 1674 510 1675 l 439 1674 z"},"Î":{"ha":843,"x_min":-4,"x_max":978,"o":"m 97 -3 l 100 107 q 111 389 100 310 l 111 389 q 123 1266 111 824 l 123 1266 q 120 1393 120 1329 l 120 1393 l 120 1426 q 116 1481 116 1457 q 121 1512 116 1505 l 121 1512 q 496 1499 335 1499 q 717 1505 657 1499 l 717 1505 q 720 1488 719 1502 l 720 1488 l 713 1488 l 713 1126 l 720 312 q 723 297 720 303 l 723 297 l 723 295 q 726 282 726 289 l 726 282 l 734 -9 q 716 -26 729 -20 l 716 -26 l 682 -26 l 122 -35 q 96 -20 112 -30 l 96 -20 l 97 -3 z m 940 1683 l 878 1683 l 583 1676 q 526 1748 552 1694 l 526 1748 q 519 1762 521 1759 l 519 1762 l 489 1822 q 450 1772 473 1807 q 409 1712 427 1737 q 380 1687 391 1687 l 380 1687 l 102 1687 l 53 1684 q -4 1696 -4 1684 l -4 1696 q -3 1702 -4 1698 l -3 1702 q 178 1955 65 1807 l 178 1955 l 200 1990 q 272 2040 225 2031 q 541 2052 319 2048 l 541 2052 l 718 2055 q 753 2021 736 2046 q 775 1990 770 1996 q 789 1970 780 1983 q 801 1952 797 1957 l 801 1952 l 801 1953 l 863 1861 q 910 1796 875 1843 l 910 1796 l 930 1768 q 946 1746 935 1760 l 946 1746 l 962 1724 q 978 1693 978 1703 q 951 1682 978 1682 l 951 1682 l 940 1683 z"},"Ï":{"ha":829,"x_min":4,"x_max":949,"o":"m 91 -3 l 94 107 q 105 389 94 310 l 105 389 q 117 1266 105 824 l 117 1266 q 114 1393 114 1329 l 114 1393 l 114 1426 q 110 1481 110 1457 q 115 1512 110 1505 l 115 1512 q 490 1499 329 1499 q 711 1505 651 1499 l 711 1505 q 714 1488 713 1502 l 714 1488 l 707 1488 l 707 1126 l 714 312 q 717 297 714 303 l 717 297 l 717 295 q 720 282 720 289 l 720 282 l 728 -9 q 710 -26 723 -20 l 710 -26 l 676 -26 l 116 -35 q 90 -20 106 -30 l 90 -20 l 91 -3 z m 698 2047 l 698 2047 l 868 2050 q 932 2042 929 2050 l 932 2042 q 939 1700 937 1890 l 939 1700 q 936 1690 936 1694 l 936 1690 l 929 1691 l 596 1677 l 570 1706 q 576 1915 570 1791 q 594 2050 582 2038 l 594 2050 q 698 2047 649 2047 z m 570 1706 l 570 1705 l 570 1706 z m 925 1675 l 935 1689 l 949 1688 q 935 1671 949 1671 l 935 1671 q 925 1675 929 1671 l 925 1675 z m 365 2010 l 365 1978 l 367 1880 l 367 1849 q 368 1693 367 1740 l 368 1693 q 287 1682 358 1682 l 287 1682 l 266 1683 l 215 1683 l 28 1676 q 4 1711 7 1707 l 4 1711 q 26 2050 4 2025 l 26 2050 q 179 2049 62 2049 q 359 2046 295 2048 l 359 2046 q 366 2021 366 2044 l 366 2021 l 365 2010 z"},"Ð":{"ha":1645,"x_min":-51,"x_max":1622,"o":"m 397 1512 l 513 1512 l 698 1515 q 1385 1353 1191 1515 l 1385 1353 l 1394 1346 l 1393 1346 q 1601 960 1547 1207 l 1601 960 q 1622 738 1622 864 q 1582 486 1622 612 l 1582 486 q 1316 114 1509 249 q 879 -23 1123 -21 l 879 -23 l 875 -27 l 850 -27 l 586 -24 q 133 -33 405 -24 l 133 -33 q 112 45 112 0 l 112 45 l 113 88 l 113 244 l 115 466 l 115 634 q -27 633 90 633 l -27 633 q -51 648 -32 635 l -51 648 l -50 662 l -50 678 l -48 760 l -48 771 l -50 812 q -35 857 -50 857 l -35 857 l 114 857 q 113 1020 113 904 l 113 1020 l 113 1184 l 114 1207 l 114 1493 q 224 1507 114 1501 q 397 1512 333 1512 l 397 1512 z m 649 646 l 652 467 l 651 400 q 695 288 651 294 l 695 288 q 854 302 799 290 l 854 302 q 1053 781 1053 371 l 1053 781 q 1032 1010 1053 950 l 1032 1010 q 929 1173 993 1126 l 929 1173 q 829 1210 875 1207 q 744 1214 783 1213 q 685 1216 704 1215 l 685 1216 q 661 1177 667 1190 l 661 1177 l 641 1140 l 641 1083 q 643 893 641 1005 l 643 893 l 643 858 l 693 858 l 735 857 l 801 857 q 817 756 817 844 l 817 756 l 816 728 l 816 676 q 788 645 816 645 l 788 645 l 770 646 l 649 646 z"},"Ñ":{"ha":1727,"x_min":90,"x_max":1629,"o":"m 1627 700 l 1627 700 l 1626 633 l 1626 263 l 1628 87 l 1628 37 l 1629 -10 q 1580 -18 1623 -18 l 1580 -18 l 1554 -18 l 1240 -22 q 942 -21 1040 -22 l 942 -21 q 833 270 927 -5 l 833 270 l 642 777 l 606 772 l 605 670 l 605 399 l 609 128 l 609 16 q 589 -31 609 -29 l 589 -31 q 400 -28 490 -28 l 400 -28 l 369 -28 l 218 -32 l 198 -32 l 126 -34 l 123 -32 q 90 13 90 -1 l 90 13 l 90 31 l 91 51 l 96 441 q 108 1412 96 1083 l 108 1412 l 110 1495 q 799 1511 110 1504 l 799 1511 q 817 1467 805 1507 l 817 1467 l 817 1470 l 823 1450 q 1003 964 897 1238 q 1111 683 1109 689 l 1111 683 l 1145 685 l 1149 1500 q 1295 1508 1149 1508 l 1295 1508 l 1546 1503 l 1620 1503 q 1627 700 1627 1172 z m 1044 2214 l 1044 2214 l 1067 2233 l 1320 2226 q 1333 2211 1323 2225 l 1333 2211 q 1049 1867 1311 1867 l 1049 1867 q 907 1888 994 1867 l 907 1888 l 849 1906 q 719 1939 743 1939 q 684 1935 694 1939 q 671 1918 673 1930 q 667 1893 669 1906 q 433 1879 665 1879 l 433 1879 l 406 1879 q 400 1897 400 1885 l 400 1897 q 477 2154 400 2069 q 696 2238 554 2238 l 696 2238 q 882 2201 749 2238 l 882 2201 l 882 2202 q 969 2176 912 2191 l 969 2176 l 999 2170 q 1013 2160 1003 2170 l 1013 2160 l 1038 2188 q 1044 2214 1043 2205 z m 1021 2201 l 1005 2208 l 1014 2218 l 1021 2201 z"},"Ò":{"ha":1645,"x_min":35,"x_max":1608,"o":"m 614 811 l 610 760 q 609 755 610 759 l 609 755 l 609 752 q 605 658 605 710 q 614 548 605 606 q 642 432 622 490 q 702 338 661 374 l 702 338 q 801 300 746 300 q 893 316 855 300 q 956 355 930 331 q 1000 420 981 379 l 1000 420 q 1048 758 1048 529 l 1048 758 q 995 1085 1048 991 q 833 1178 941 1178 l 833 1178 q 739 1152 779 1178 q 678 1098 698 1126 q 636 979 657 1070 q 614 811 614 888 l 614 811 z m 35 752 l 35 752 l 37 774 q 69 996 49 899 q 134 1176 89 1092 l 134 1176 q 433 1457 241 1361 q 846 1552 624 1552 q 1248 1463 1067 1552 l 1248 1463 q 1417 1329 1356 1410 l 1417 1329 q 1571 1060 1534 1183 q 1608 776 1608 937 l 1608 776 q 1460 230 1608 418 l 1460 230 l 1414 169 q 1151 3 1321 61 q 814 -58 981 -56 l 814 -58 q 345 62 528 -58 l 345 62 q 35 752 35 263 z m 1045 1697 l 727 1697 l 718 1693 q 682 1737 716 1695 l 682 1737 l 682 1736 l 651 1774 q 479 1965 562 1881 q 396 2073 396 2048 l 396 2073 q 405 2086 396 2078 l 405 2086 q 845 2068 610 2068 l 845 2068 l 875 2068 l 881 2069 q 985 1916 903 2053 q 1086 1750 1066 1778 q 1106 1709 1106 1721 q 1045 1697 1106 1697 l 1045 1697 z"},"Ó":{"ha":1645,"x_min":35,"x_max":1608,"o":"m 614 811 l 610 760 q 609 755 610 759 l 609 755 l 609 752 q 605 658 605 710 q 614 548 605 606 q 642 432 622 490 q 702 338 661 374 l 702 338 q 801 300 746 300 q 893 316 855 300 q 956 355 930 331 q 1000 420 981 379 l 1000 420 q 1048 758 1048 529 l 1048 758 q 995 1085 1048 991 q 833 1178 941 1178 l 833 1178 q 739 1152 779 1178 q 678 1098 698 1126 q 636 979 657 1070 q 614 811 614 888 l 614 811 z m 35 752 l 35 752 l 37 774 q 69 996 49 899 q 134 1176 89 1092 l 134 1176 q 433 1457 241 1361 q 846 1552 624 1552 q 1248 1463 1067 1552 l 1248 1463 q 1417 1329 1356 1410 l 1417 1329 q 1571 1060 1534 1183 q 1608 776 1608 937 l 1608 776 q 1460 230 1608 418 l 1460 230 l 1414 169 q 1151 3 1321 61 q 814 -58 981 -56 l 814 -58 q 345 62 528 -58 l 345 62 q 35 752 35 263 z m 726 1684 l 543 1681 l 527 1680 l 478 1680 l 463 1709 l 631 1995 q 680 2065 674 2058 l 680 2065 l 750 2065 l 1168 2055 l 1168 2052 q 1037 1905 1128 2006 q 903 1754 946 1803 q 829 1695 860 1705 q 726 1684 797 1685 l 726 1684 z"},"Ô":{"ha":1645,"x_min":35,"x_max":1608,"o":"m 614 811 l 610 760 q 609 755 610 759 l 609 755 l 609 752 q 605 658 605 710 q 614 548 605 606 q 642 432 622 490 q 702 338 661 374 l 702 338 q 801 300 746 300 q 893 316 855 300 q 956 355 930 331 q 1000 420 981 379 l 1000 420 q 1048 758 1048 529 l 1048 758 q 995 1085 1048 991 q 833 1178 941 1178 l 833 1178 q 739 1152 779 1178 q 678 1098 698 1126 q 636 979 657 1070 q 614 811 614 888 l 614 811 z m 35 752 l 35 752 l 37 774 q 69 996 49 899 q 134 1176 89 1092 l 134 1176 q 433 1457 241 1361 q 846 1552 624 1552 q 1248 1463 1067 1552 l 1248 1463 q 1417 1329 1356 1410 l 1417 1329 q 1571 1060 1534 1183 q 1608 776 1608 937 l 1608 776 q 1460 230 1608 418 l 1460 230 l 1414 169 q 1151 3 1321 61 q 814 -58 981 -56 l 814 -58 q 345 62 528 -58 l 345 62 q 35 752 35 263 z m 1292 1689 l 1230 1689 l 935 1682 q 879 1753 904 1700 l 879 1753 q 871 1768 873 1765 l 871 1768 l 841 1828 q 802 1778 825 1813 q 761 1718 779 1743 q 732 1693 743 1693 l 732 1693 l 454 1693 l 405 1690 q 348 1702 348 1690 l 348 1702 q 349 1708 348 1704 l 349 1708 q 530 1961 417 1813 l 530 1961 l 552 1996 q 624 2046 577 2037 q 893 2058 671 2054 l 893 2058 l 1070 2061 q 1105 2027 1088 2052 q 1127 1996 1122 2002 q 1141 1976 1132 1989 q 1153 1958 1149 1963 l 1153 1958 l 1153 1959 l 1215 1867 q 1262 1802 1227 1849 l 1262 1802 l 1282 1774 q 1297 1752 1287 1766 l 1297 1752 l 1314 1730 q 1330 1699 1330 1709 q 1303 1688 1330 1688 l 1303 1688 l 1292 1689 z"},"Õ":{"ha":1645,"x_min":35,"x_max":1608,"o":"m 614 811 l 610 760 q 609 755 610 759 l 609 755 l 609 752 q 605 658 605 710 q 614 548 605 606 q 642 432 622 490 q 702 338 661 374 l 702 338 q 801 300 746 300 q 893 316 855 300 q 956 355 930 331 q 1000 420 981 379 l 1000 420 q 1048 758 1048 529 l 1048 758 q 995 1085 1048 991 q 833 1178 941 1178 l 833 1178 q 739 1152 779 1178 q 678 1098 698 1126 q 636 979 657 1070 q 614 811 614 888 l 614 811 z m 35 752 l 35 752 l 37 774 q 69 996 49 899 q 134 1176 89 1092 l 134 1176 q 433 1457 241 1361 q 846 1552 624 1552 q 1248 1463 1067 1552 l 1248 1463 q 1417 1329 1356 1410 l 1417 1329 q 1571 1060 1534 1183 q 1608 776 1608 937 l 1608 776 q 1460 230 1608 418 l 1460 230 l 1414 169 q 1151 3 1321 61 q 814 -58 981 -56 l 814 -58 q 345 62 528 -58 l 345 62 q 35 752 35 263 z m 995 2025 l 995 2025 l 1018 2044 l 1271 2037 q 1284 2022 1274 2036 l 1284 2022 q 1000 1678 1262 1678 l 1000 1678 q 858 1699 946 1678 l 858 1699 l 800 1717 q 670 1750 694 1750 q 635 1746 645 1750 q 622 1729 624 1741 q 618 1704 620 1717 q 384 1690 616 1690 l 384 1690 l 357 1690 q 351 1708 351 1696 l 351 1708 q 428 1965 351 1880 q 647 2049 505 2049 l 647 2049 q 833 2012 700 2049 l 833 2012 l 833 2013 q 920 1987 863 2002 l 920 1987 l 950 1981 q 964 1971 954 1981 l 964 1971 l 989 1999 q 995 2025 994 2016 z m 972 2012 l 956 2019 l 965 2029 l 972 2012 z"},"Ö":{"ha":1645,"x_min":35,"x_max":1608,"o":"m 614 811 l 610 760 q 609 755 610 759 l 609 755 l 609 752 q 605 658 605 710 q 614 548 605 606 q 642 432 622 490 q 702 338 661 374 l 702 338 q 801 300 746 300 q 893 316 855 300 q 956 355 930 331 q 1000 420 981 379 l 1000 420 q 1048 758 1048 529 l 1048 758 q 995 1085 1048 991 q 833 1178 941 1178 l 833 1178 q 739 1152 779 1178 q 678 1098 698 1126 q 636 979 657 1070 q 614 811 614 888 l 614 811 z m 35 752 l 35 752 l 37 774 q 69 996 49 899 q 134 1176 89 1092 l 134 1176 q 433 1457 241 1361 q 846 1552 624 1552 q 1248 1463 1067 1552 l 1248 1463 q 1417 1329 1356 1410 l 1417 1329 q 1571 1060 1534 1183 q 1608 776 1608 937 l 1608 776 q 1460 230 1608 418 l 1460 230 l 1414 169 q 1151 3 1321 61 q 814 -58 981 -56 l 814 -58 q 345 62 528 -58 l 345 62 q 35 752 35 263 z m 1084 2273 l 1084 2273 l 1254 2276 q 1318 2268 1315 2276 l 1318 2268 q 1325 1926 1323 2116 l 1325 1926 q 1322 1916 1322 1920 l 1322 1916 l 1315 1917 l 982 1903 l 956 1932 q 962 2141 956 2017 q 980 2276 968 2264 l 980 2276 q 1084 2273 1035 2273 z m 956 1932 l 956 1931 l 956 1932 z m 1311 1901 l 1321 1915 l 1335 1914 q 1321 1897 1335 1897 l 1321 1897 q 1311 1901 1315 1897 l 1311 1901 z m 751 2236 l 751 2204 l 753 2106 l 753 2075 q 754 1919 753 1966 l 754 1919 q 673 1908 744 1908 l 673 1908 l 652 1909 l 601 1909 l 414 1902 l 390 1937 q 412 2276 390 2251 l 412 2276 q 565 2275 448 2275 q 745 2272 681 2274 l 745 2272 q 752 2247 752 2270 l 752 2247 l 751 2236 z"},"×":{"ha":1283,"x_min":166,"x_max":1138,"o":"m 972 87 l 973 87 l 939 53 l 663 320 q 570 225 629 281 q 493 150 511 168 l 493 150 l 393 51 l 383 48 q 336 82 368 51 q 295 120 304 113 l 295 120 l 266 150 q 235 179 250 166 q 209 203 220 192 q 182 230 198 213 q 166 256 166 247 q 202 301 166 264 q 297 396 237 338 q 371 468 356 453 l 371 468 l 435 533 q 210 765 353 622 l 210 765 l 190 782 q 168 816 168 800 q 225 880 168 831 l 225 880 l 286 941 q 315 971 297 952 l 315 971 q 383 1023 364 1023 l 383 1023 l 479 925 q 658 745 555 846 l 658 745 l 930 1019 q 934 1021 933 1021 l 934 1021 q 1064 895 950 1021 l 1064 895 l 1108 850 q 1138 816 1135 823 l 1138 816 q 1123 804 1132 810 l 1123 804 l 1047 729 q 855 540 932 620 l 855 540 q 1083 316 955 444 l 1083 316 l 1103 297 q 1135 256 1135 267 q 1028 141 1135 244 l 1028 141 l 989 104 q 981 96 986 101 q 972 87 975 91 l 972 87 z m 939 53 l 939 53 l 937 52 q 939 53 939 52 z"},"Ø":{"ha":1645,"x_min":35,"x_max":1608,"o":"m 35 752 l 35 752 l 37 774 q 69 996 49 899 q 134 1176 89 1092 l 134 1176 q 433 1457 241 1361 q 849 1552 624 1552 q 1268 1451 1073 1552 l 1268 1451 l 1387 1638 q 1384 1632 1384 1634 l 1384 1632 q 1411 1623 1387 1632 q 1434 1608 1434 1614 l 1434 1608 q 1320 1420 1434 1588 l 1320 1420 q 1539 1139 1469 1310 q 1608 776 1608 968 l 1608 776 q 1460 230 1608 418 l 1460 230 l 1414 169 q 1151 2 1321 61 l 1151 2 q 789 -57 978 -57 q 429 14 599 -57 l 429 14 l 388 -54 q 286 -184 312 -179 l 286 -184 l 267 -178 q 247 -171 263 -178 l 247 -171 l 279 -90 l 364 46 l 351 58 q 35 752 35 263 z m 614 811 l 610 760 q 609 755 610 759 l 609 755 l 609 752 q 605 646 605 710 q 627 456 605 582 l 627 456 l 1010 1052 q 833 1178 947 1178 l 833 1178 q 739 1152 779 1178 q 678 1098 698 1126 q 636 979 657 1070 q 614 811 614 888 l 614 811 z m 1037 969 l 1037 969 l 666 380 q 802 299 720 304 l 802 299 q 997 414 945 299 q 1048 788 1048 529 l 1048 788 q 1037 969 1048 847 z"},"Ù":{"ha":1615,"x_min":104,"x_max":1553,"o":"m 1545 834 l 1546 775 l 1543 494 q 1502 266 1543 365 q 1392 106 1460 167 l 1392 106 q 845 -62 1207 -62 q 282 114 483 -62 l 282 114 q 163 273 211 175 q 104 493 114 370 l 104 493 q 109 1266 109 911 l 109 1266 q 104 1371 104 1266 q 113 1501 104 1476 l 113 1501 l 134 1501 q 535 1509 281 1509 l 535 1509 q 601 1504 553 1505 q 666 1501 648 1503 l 666 1501 l 697 1497 q 706 952 704 1299 l 706 952 l 700 550 q 816 350 700 350 l 816 350 q 899 393 865 350 q 934 490 932 436 l 934 490 l 938 500 l 941 837 l 942 867 q 936 1315 942 1099 l 936 1315 l 934 1388 q 932 1467 932 1432 q 943 1515 932 1502 l 943 1515 q 1525 1512 1329 1515 l 1525 1512 q 1543 1499 1532 1505 l 1543 1499 l 1542 1499 l 1553 1492 q 1545 1006 1545 1303 l 1545 1006 l 1545 834 z m 1070 1682 l 752 1682 l 743 1678 q 707 1722 741 1680 l 707 1722 l 707 1721 l 676 1759 q 504 1950 587 1866 q 421 2058 421 2033 l 421 2058 q 430 2071 421 2063 l 430 2071 q 870 2053 635 2053 l 870 2053 l 900 2053 l 906 2054 q 1010 1901 928 2038 q 1111 1735 1091 1763 q 1131 1694 1131 1706 q 1070 1682 1131 1682 l 1070 1682 z"},"Ú":{"ha":1615,"x_min":104,"x_max":1553,"o":"m 1545 834 l 1546 775 l 1543 494 q 1502 266 1543 365 q 1392 106 1460 167 l 1392 106 q 845 -62 1207 -62 q 282 114 483 -62 l 282 114 q 163 273 211 175 q 104 493 114 370 l 104 493 q 109 1266 109 911 l 109 1266 q 104 1371 104 1266 q 113 1501 104 1476 l 113 1501 l 134 1501 q 535 1509 281 1509 l 535 1509 q 601 1504 553 1505 q 666 1501 648 1503 l 666 1501 l 697 1497 q 706 952 704 1299 l 706 952 l 700 550 q 816 350 700 350 l 816 350 q 899 393 865 350 q 934 490 932 436 l 934 490 l 938 500 l 941 837 l 942 867 q 936 1315 942 1099 l 936 1315 l 934 1388 q 932 1467 932 1432 q 943 1515 932 1502 l 943 1515 q 1525 1512 1329 1515 l 1525 1512 q 1543 1499 1532 1505 l 1543 1499 l 1542 1499 l 1553 1492 q 1545 1006 1545 1303 l 1545 1006 l 1545 834 z m 741 1677 l 558 1674 l 542 1673 l 493 1673 l 478 1702 l 646 1988 q 695 2058 689 2051 l 695 2058 l 765 2058 l 1183 2048 l 1183 2045 q 1052 1898 1143 1999 q 918 1747 961 1796 q 844 1688 875 1698 q 741 1677 812 1678 l 741 1677 z"},"Û":{"ha":1615,"x_min":104,"x_max":1553,"o":"m 1545 834 l 1546 775 l 1543 494 q 1502 266 1543 365 q 1392 106 1460 167 l 1392 106 q 845 -62 1207 -62 q 282 114 483 -62 l 282 114 q 163 273 211 175 q 104 493 114 370 l 104 493 q 109 1266 109 911 l 109 1266 q 104 1371 104 1266 q 113 1501 104 1476 l 113 1501 l 134 1501 q 535 1509 281 1509 l 535 1509 q 601 1504 553 1505 q 666 1501 648 1503 l 666 1501 l 697 1497 q 706 952 704 1299 l 706 952 l 700 550 q 816 350 700 350 l 816 350 q 899 393 865 350 q 934 490 932 436 l 934 490 l 938 500 l 941 837 l 942 867 q 936 1315 942 1099 l 936 1315 l 934 1388 q 932 1467 932 1432 q 943 1515 932 1502 l 943 1515 q 1525 1512 1329 1515 l 1525 1512 q 1543 1499 1532 1505 l 1543 1499 l 1542 1499 l 1553 1492 q 1545 1006 1545 1303 l 1545 1006 l 1545 834 z m 1281 1683 l 1219 1683 l 924 1676 q 868 1747 893 1694 l 868 1747 q 860 1762 862 1759 l 860 1762 l 830 1822 q 791 1772 814 1807 q 750 1712 768 1737 q 721 1687 732 1687 l 721 1687 l 443 1687 l 394 1684 q 337 1696 337 1684 l 337 1696 q 338 1702 337 1698 l 338 1702 q 519 1955 406 1807 l 519 1955 l 541 1990 q 613 2040 566 2031 q 882 2052 660 2048 l 882 2052 l 1059 2055 q 1094 2021 1077 2046 q 1116 1990 1111 1996 q 1130 1970 1121 1983 q 1142 1952 1138 1957 l 1142 1952 l 1142 1953 l 1204 1861 q 1251 1796 1216 1843 l 1251 1796 l 1271 1768 q 1286 1746 1276 1760 l 1286 1746 l 1303 1724 q 1319 1693 1319 1703 q 1292 1682 1319 1682 l 1292 1682 l 1281 1683 z"},"Ü":{"ha":1615,"x_min":104,"x_max":1553,"o":"m 1545 834 l 1546 775 l 1543 494 q 1502 266 1543 365 q 1392 106 1460 167 l 1392 106 q 845 -62 1207 -62 q 282 114 483 -62 l 282 114 q 163 273 211 175 q 104 493 114 370 l 104 493 q 109 1266 109 911 l 109 1266 q 104 1371 104 1266 q 113 1501 104 1476 l 113 1501 l 134 1501 q 535 1509 281 1509 l 535 1509 q 601 1504 553 1505 q 666 1501 648 1503 l 666 1501 l 697 1497 q 706 952 704 1299 l 706 952 l 700 550 q 816 350 700 350 l 816 350 q 899 393 865 350 q 934 490 932 436 l 934 490 l 938 500 l 941 837 l 942 867 q 936 1315 942 1099 l 936 1315 l 934 1388 q 932 1467 932 1432 q 943 1515 932 1502 l 943 1515 q 1525 1512 1329 1515 l 1525 1512 q 1543 1499 1532 1505 l 1543 1499 l 1542 1499 l 1553 1492 q 1545 1006 1545 1303 l 1545 1006 l 1545 834 z m 1073 2273 l 1073 2273 l 1243 2276 q 1307 2268 1304 2276 l 1307 2268 q 1314 1926 1312 2116 l 1314 1926 q 1311 1916 1311 1920 l 1311 1916 l 1304 1917 l 971 1903 l 945 1932 q 951 2141 945 2017 q 969 2276 957 2264 l 969 2276 q 1073 2273 1024 2273 z m 945 1932 l 945 1931 l 945 1932 z m 1300 1901 l 1310 1915 l 1324 1914 q 1310 1897 1324 1897 l 1310 1897 q 1300 1901 1304 1897 l 1300 1901 z m 740 2236 l 740 2204 l 742 2106 l 742 2075 q 743 1919 742 1966 l 743 1919 q 662 1908 733 1908 l 662 1908 l 641 1909 l 590 1909 l 403 1902 l 379 1937 q 401 2276 379 2251 l 401 2276 q 554 2275 437 2275 q 734 2272 670 2274 l 734 2272 q 741 2247 741 2270 l 741 2247 l 740 2236 z"},"Ý":{"ha":1524,"x_min":-33,"x_max":1578,"o":"m 1357 1507 l 1530 1507 l 1563 1508 q 1578 1483 1573 1503 l 1578 1483 l 1548 1424 l 1548 1425 l 1483 1300 q 1293 937 1336 1028 l 1293 937 l 1259 872 q 1072 498 1204 766 l 1072 498 q 1070 396 1070 464 l 1070 396 l 1070 -17 q 1050 -33 1065 -33 l 1050 -33 l 477 -37 q 455 27 455 -9 l 455 27 l 457 152 l 457 181 l 458 211 l 459 284 q 352 732 459 493 l 352 732 q 285 873 329 782 l 285 873 l 136 1171 q 104 1232 130 1182 q 47 1340 78 1282 l 47 1340 l 47 1339 q -33 1501 -33 1461 l -33 1501 q -1 1506 -33 1506 l -1 1506 l 256 1506 q 577 1503 469 1506 l 577 1503 q 744 1022 609 1497 l 744 1022 l 789 863 q 1004 1501 891 1135 l 1004 1501 q 1152 1509 1005 1509 l 1152 1509 l 1280 1509 q 1357 1507 1326 1509 l 1357 1507 z m 728 1649 l 545 1646 l 529 1645 l 480 1645 l 465 1674 l 633 1960 q 682 2030 676 2023 l 682 2030 l 752 2030 l 1170 2020 l 1170 2017 q 1039 1870 1130 1971 q 905 1719 948 1768 q 831 1660 862 1670 q 728 1649 799 1650 l 728 1649 z"},"Þ":{"ha":1527,"x_min":117,"x_max":1531,"o":"m 722 1594 l 722 1513 l 721 1483 l 724 1377 q 990 1367 897 1375 l 990 1367 l 997 1367 q 1040 1369 1031 1369 l 1040 1369 q 1382 1242 1240 1369 l 1382 1242 q 1491 1086 1451 1181 q 1531 888 1531 990 q 1511 714 1531 786 q 1456 590 1490 641 l 1456 590 q 945 356 1323 390 l 945 356 l 729 347 q 719 106 726 290 l 719 106 l 720 75 l 720 -7 q 706 -25 717 -22 l 706 -25 l 134 -34 q 117 120 117 14 l 117 120 l 117 527 l 119 938 l 118 1358 q 119 1361 119 1360 l 119 1361 l 119 1468 q 136 1622 119 1573 l 136 1622 l 708 1613 q 722 1594 719 1610 l 722 1594 z m 696 699 l 737 640 q 1007 875 1007 650 l 1007 875 q 890 1048 1007 1012 l 890 1048 q 739 1069 825 1069 l 739 1069 l 686 1069 q 696 699 696 1006 l 696 699 z"},"ß":{"ha":1559,"x_min":72,"x_max":1606,"o":"m 1407 682 l 1407 683 q 1606 353 1606 561 l 1606 353 q 1488 63 1606 162 l 1488 63 q 1086 -66 1334 -66 q 725 32 838 -66 l 725 32 l 722 31 q 631 213 661 91 l 631 213 l 593 211 l 593 140 q 597 -18 593 -14 l 597 -18 q 448 -22 530 -22 l 448 -22 l 111 -18 l 78 -18 l 73 721 q 76 1052 73 935 l 76 1052 q 174 1383 84 1291 l 174 1383 q 421 1517 274 1469 q 717 1565 567 1565 q 1011 1537 866 1565 l 1011 1537 q 1416 1317 1327 1501 l 1416 1317 q 1443 1170 1443 1260 q 1379 1003 1443 1080 l 1379 1003 q 1296 925 1365 988 q 1226 830 1226 862 q 1265 768 1226 797 q 1352 713 1304 738 q 1407 682 1400 688 l 1407 682 z m 799 1014 l 799 1014 l 798 1014 l 830 1037 q 882 1077 863 1061 q 920 1121 901 1092 q 939 1178 939 1149 l 939 1178 q 811 1286 939 1286 q 636 1194 682 1286 l 636 1194 q 596 1009 598 1117 l 596 1009 l 592 1000 q 593 678 593 895 l 593 678 l 593 313 l 639 358 l 1001 361 q 1021 321 1024 358 l 1021 321 q 1020 308 1020 314 l 1020 308 q 1067 251 1020 251 l 1067 251 q 1084 254 1074 251 l 1084 254 l 1104 255 q 1120 317 1120 297 l 1120 317 q 1082 396 1120 363 q 995 457 1043 429 l 995 457 q 922 509 972 476 l 922 509 q 761 639 829 572 q 693 812 693 705 q 799 1014 693 919 z m 723 30 l 720 30 l 727 15 l 713 0 l 696 12 l 713 32 l 722 31 l 723 30 z m 78 -20 l 77 -22 q 76 -19 77 -19 l 76 -19 l 72 -19 q 78 -18 74 -18 l 78 -18 l 78 -20 z"},"à":{"ha":1575,"x_min":35,"x_max":1514,"o":"m 518 657 l 564 664 l 574 663 l 598 663 q 651 668 632 663 l 651 668 l 705 675 q 871 749 843 685 l 871 749 q 885 830 885 781 l 885 830 q 879 868 879 840 q 851 927 879 896 q 783 958 822 958 l 783 958 l 778 958 q 682 795 682 958 l 682 795 q 666 789 677 787 q 610 791 654 791 l 610 791 l 94 791 q 130 940 99 860 l 130 940 q 359 1162 189 1094 q 695 1235 528 1229 l 695 1235 l 755 1238 l 787 1241 q 799 1238 793 1241 l 799 1238 l 812 1238 l 857 1240 q 920 1233 871 1240 l 920 1233 l 949 1229 q 971 1228 956 1228 q 1034 1222 986 1228 q 1154 1187 1082 1215 l 1154 1187 q 1450 819 1398 1091 l 1450 819 q 1472 564 1472 704 l 1472 564 q 1479 522 1479 541 l 1479 522 l 1474 453 l 1474 337 q 1475 320 1475 335 l 1475 320 l 1473 252 l 1473 243 q 1476 229 1476 238 l 1476 229 l 1475 220 l 1475 199 q 1504 19 1475 104 l 1504 19 l 1514 -3 l 1062 -3 l 1026 -2 q 965 -3 986 -2 l 965 -3 q 904 161 933 57 l 904 161 q 860 100 891 134 q 813 65 828 65 l 813 65 q 588 -17 665 -7 l 588 -17 q 466 -36 474 -36 q 457 -36 457 -36 l 457 -36 q 96 130 218 -36 l 96 130 q 35 327 35 215 l 35 327 q 261 625 35 570 l 261 625 q 485 654 319 639 l 485 654 l 518 657 z m 892 402 l 892 432 l 893 464 q 885 560 893 514 l 885 560 q 821 533 863 548 q 754 508 779 518 q 709 471 729 497 q 688 398 688 444 q 718 314 688 352 q 782 276 747 276 l 782 276 q 889 330 857 276 l 889 330 l 891 340 l 892 402 z m 1085 1430 l 767 1430 l 758 1426 q 722 1470 756 1428 l 722 1470 l 722 1469 l 691 1507 q 519 1698 602 1614 q 436 1806 436 1781 l 436 1806 q 445 1819 436 1811 l 445 1819 q 885 1801 650 1801 l 885 1801 l 915 1801 l 921 1802 q 1025 1649 943 1786 q 1126 1483 1106 1511 q 1146 1442 1146 1454 q 1085 1430 1146 1430 l 1085 1430 z"},"á":{"ha":1575,"x_min":35,"x_max":1514,"o":"m 1476 229 l 1476 229 l 1475 220 l 1475 199 q 1504 19 1475 104 l 1504 19 l 1514 -3 l 1062 -3 l 1026 -2 q 965 -3 986 -2 l 965 -3 q 904 161 933 57 l 904 161 q 860 100 891 134 q 813 65 828 65 l 813 65 q 588 -17 666 -7 l 588 -17 q 466 -36 474 -36 q 457 -36 457 -36 l 457 -36 q 96 130 218 -36 l 96 130 q 35 327 35 215 l 35 327 q 261 625 35 570 l 261 625 q 485 654 319 639 l 485 654 l 518 657 l 564 664 l 574 663 l 598 663 q 651 668 632 663 l 651 668 l 705 675 q 871 749 843 685 l 871 749 q 885 830 885 781 l 885 830 q 879 868 879 840 q 851 927 879 896 q 783 958 822 958 l 783 958 l 778 958 q 682 795 682 958 l 682 795 q 666 789 677 787 q 610 791 654 791 l 610 791 l 94 791 q 130 940 99 862 l 130 940 q 359 1162 189 1094 q 695 1235 528 1229 l 695 1235 l 755 1238 l 787 1241 q 799 1238 793 1241 l 799 1238 l 812 1238 l 857 1240 q 920 1233 871 1240 l 920 1233 l 949 1229 q 971 1228 956 1228 q 1034 1222 986 1228 q 1154 1187 1082 1215 q 1275 1122 1225 1159 q 1360 1033 1324 1085 l 1360 1033 q 1450 820 1428 935 q 1472 564 1472 704 l 1472 564 q 1479 522 1479 541 l 1479 522 l 1474 453 l 1474 337 q 1475 320 1475 335 l 1475 320 l 1473 252 l 1473 243 q 1476 229 1476 238 z m 892 402 l 892 432 l 893 464 q 885 560 893 514 l 885 560 q 821 533 863 548 q 754 508 779 518 q 709 471 729 497 q 688 398 688 444 q 718 314 688 352 q 782 276 747 276 l 782 276 q 889 330 857 276 l 889 330 l 891 340 l 892 402 z m 708 1413 l 525 1410 l 509 1409 l 460 1409 l 445 1438 l 613 1724 q 662 1794 656 1787 l 662 1794 l 732 1794 l 1150 1784 l 1150 1781 q 1019 1634 1110 1735 q 885 1483 928 1532 q 811 1424 842 1434 q 708 1413 779 1414 l 708 1413 z"},"â":{"ha":1575,"x_min":35,"x_max":1514,"o":"m 518 657 l 564 664 l 574 663 l 598 663 q 651 668 632 663 l 651 668 l 705 675 q 871 749 843 685 l 871 749 q 885 830 885 781 l 885 830 q 879 868 879 840 q 851 927 879 896 q 783 958 822 958 l 783 958 l 778 958 q 682 795 682 958 l 682 795 q 666 789 677 787 q 610 791 654 791 l 610 791 l 94 791 q 130 940 99 860 l 130 940 q 359 1162 189 1094 q 695 1235 528 1229 l 695 1235 l 755 1238 l 787 1241 q 799 1238 793 1241 l 799 1238 l 812 1238 l 857 1240 q 920 1233 871 1240 l 920 1233 l 949 1229 q 971 1228 956 1228 q 1034 1222 986 1228 q 1154 1187 1082 1215 l 1154 1187 q 1450 819 1398 1091 l 1450 819 q 1472 564 1472 704 l 1472 564 q 1479 522 1479 541 l 1479 522 l 1474 453 l 1474 337 q 1475 320 1475 335 l 1475 320 l 1473 252 l 1473 243 q 1476 229 1476 238 l 1476 229 l 1475 220 l 1475 199 q 1504 19 1475 104 l 1504 19 l 1514 -3 l 1062 -3 l 1026 -2 q 965 -3 986 -2 l 965 -3 q 904 161 933 57 l 904 161 q 860 100 891 134 q 813 65 828 65 l 813 65 q 588 -17 665 -7 l 588 -17 q 466 -36 474 -36 q 457 -36 457 -36 l 457 -36 q 96 130 218 -36 l 96 130 q 35 327 35 215 l 35 327 q 261 625 35 570 l 261 625 q 485 654 319 639 l 485 654 l 518 657 z m 892 402 l 892 432 l 893 464 q 885 560 893 514 l 885 560 q 821 533 863 548 q 754 508 779 518 q 709 471 729 497 q 688 398 688 444 q 718 314 688 352 q 782 276 747 276 l 782 276 q 889 330 857 276 l 889 330 l 891 340 l 892 402 z m 1247 1406 l 1185 1406 l 890 1399 q 834 1470 859 1417 l 834 1470 q 826 1485 828 1482 l 826 1485 l 796 1545 q 757 1495 780 1530 q 716 1435 734 1460 q 687 1410 698 1410 l 687 1410 l 409 1410 l 360 1407 q 303 1419 303 1407 l 303 1419 q 304 1425 303 1421 l 304 1425 q 485 1678 372 1530 l 485 1678 l 507 1713 q 579 1763 532 1754 q 848 1775 626 1771 l 848 1775 l 1025 1778 q 1060 1744 1043 1769 q 1082 1713 1077 1719 q 1096 1693 1087 1706 q 1108 1675 1104 1680 l 1108 1675 l 1108 1676 l 1170 1584 q 1217 1519 1182 1566 l 1217 1519 l 1237 1491 q 1252 1469 1242 1483 l 1252 1469 l 1269 1447 q 1285 1416 1285 1426 q 1258 1405 1285 1405 l 1258 1405 l 1247 1406 z"},"ã":{"ha":1575,"x_min":35,"x_max":1514,"o":"m 1476 229 l 1476 229 l 1475 220 l 1475 199 q 1504 19 1475 104 l 1504 19 l 1514 -3 l 1062 -3 l 1026 -2 q 965 -3 986 -2 l 965 -3 q 904 161 933 57 l 904 161 q 860 100 891 134 q 813 65 828 65 l 813 65 q 588 -17 666 -7 l 588 -17 q 466 -36 474 -36 q 457 -36 457 -36 l 457 -36 q 96 130 218 -36 l 96 130 q 35 327 35 215 l 35 327 q 261 625 35 570 l 261 625 q 485 654 319 639 l 485 654 l 518 657 l 564 664 l 574 663 l 598 663 q 651 668 632 663 l 651 668 l 705 675 q 871 749 843 685 l 871 749 q 885 830 885 781 l 885 830 q 879 868 879 840 q 851 927 879 896 q 783 958 822 958 l 783 958 l 778 958 q 682 795 682 958 l 682 795 q 666 789 677 787 q 610 791 654 791 l 610 791 l 94 791 q 130 940 99 862 l 130 940 q 359 1162 189 1094 q 695 1235 528 1229 l 695 1235 l 755 1238 l 787 1241 q 799 1238 793 1241 l 799 1238 l 812 1238 l 857 1240 q 920 1233 871 1240 l 920 1233 l 949 1229 q 971 1228 956 1228 q 1034 1222 986 1228 q 1154 1187 1082 1215 q 1275 1122 1225 1159 q 1360 1033 1324 1085 l 1360 1033 q 1450 820 1428 935 q 1472 564 1472 704 l 1472 564 q 1479 522 1479 541 l 1479 522 l 1474 453 l 1474 337 q 1475 320 1475 335 l 1475 320 l 1473 252 l 1473 243 q 1476 229 1476 238 z m 892 402 l 892 432 l 893 464 q 885 560 893 514 l 885 560 q 821 533 863 548 q 754 508 779 518 q 709 471 729 497 q 688 398 688 444 q 718 314 688 352 q 782 276 747 276 l 782 276 q 889 330 857 276 l 889 330 l 891 340 l 892 402 z m 971 1751 l 971 1751 l 994 1770 l 1247 1763 q 1260 1748 1250 1762 l 1260 1748 q 976 1404 1238 1404 l 976 1404 q 834 1425 922 1404 l 834 1425 l 776 1443 q 646 1476 670 1476 q 611 1472 621 1476 q 598 1455 600 1467 q 594 1430 596 1443 q 360 1416 592 1416 l 360 1416 l 333 1416 q 327 1434 327 1422 l 327 1434 q 404 1691 327 1606 q 623 1775 481 1775 l 623 1775 q 809 1738 676 1775 l 809 1738 l 809 1739 q 896 1713 839 1728 l 896 1713 l 926 1707 q 940 1697 930 1707 l 940 1697 l 965 1725 q 971 1751 970 1742 z m 948 1738 l 932 1745 l 941 1755 l 948 1738 z"},"ä":{"ha":1575,"x_min":35,"x_max":1514,"o":"m 518 657 l 564 664 l 574 663 l 598 663 q 651 668 632 663 l 651 668 l 705 675 q 871 749 843 685 l 871 749 q 885 830 885 781 l 885 830 q 879 868 879 840 q 851 927 879 896 q 783 958 822 958 l 783 958 l 778 958 q 682 795 682 958 l 682 795 q 666 789 677 787 q 610 791 654 791 l 610 791 l 94 791 q 130 940 99 860 l 130 940 q 359 1162 189 1094 q 695 1235 528 1229 l 695 1235 l 755 1238 l 787 1241 q 799 1238 793 1241 l 799 1238 l 812 1238 l 857 1240 q 920 1233 871 1240 l 920 1233 l 949 1229 q 971 1228 956 1228 q 1034 1222 986 1228 q 1154 1187 1082 1215 l 1154 1187 q 1450 819 1398 1091 l 1450 819 q 1472 564 1472 704 l 1472 564 q 1479 522 1479 541 l 1479 522 l 1474 453 l 1474 337 q 1475 320 1475 335 l 1475 320 l 1473 252 l 1473 243 q 1476 229 1476 238 l 1476 229 l 1475 220 l 1475 199 q 1504 19 1475 104 l 1504 19 l 1514 -3 l 1062 -3 l 1026 -2 q 965 -3 986 -2 l 965 -3 q 904 161 933 57 l 904 161 q 860 100 891 134 q 813 65 828 65 l 813 65 q 588 -17 665 -7 l 588 -17 q 466 -36 474 -36 q 457 -36 457 -36 l 457 -36 q 96 130 218 -36 l 96 130 q 35 327 35 215 l 35 327 q 261 625 35 570 l 261 625 q 485 654 319 639 l 485 654 l 518 657 z m 892 402 l 892 432 l 893 464 q 885 560 893 514 l 885 560 q 821 533 863 548 q 754 508 779 518 q 709 471 729 497 q 688 398 688 444 q 718 314 688 352 q 782 276 747 276 l 782 276 q 889 330 857 276 l 889 330 l 891 340 l 892 402 z m 1021 1810 l 1021 1810 l 1191 1813 q 1255 1805 1252 1813 l 1255 1805 q 1262 1463 1260 1653 l 1262 1463 q 1259 1453 1259 1457 l 1259 1453 l 1252 1454 l 919 1440 l 893 1469 q 899 1678 893 1554 q 917 1813 905 1801 l 917 1813 q 1021 1810 972 1810 z m 893 1469 l 893 1468 l 893 1469 z m 1248 1438 l 1258 1452 l 1272 1451 q 1258 1434 1272 1434 l 1258 1434 q 1248 1438 1252 1434 l 1248 1438 z m 688 1773 l 688 1741 l 690 1643 l 690 1612 q 691 1456 690 1503 l 691 1456 q 610 1445 681 1445 l 610 1445 l 589 1446 l 538 1446 l 351 1439 l 327 1474 q 349 1813 327 1788 l 349 1813 q 502 1812 385 1812 q 682 1809 618 1811 l 682 1809 q 689 1784 689 1807 l 689 1784 l 688 1773 z"},"å":{"ha":1575,"x_min":35,"x_max":1514,"o":"m 1476 229 l 1476 229 l 1475 220 l 1475 199 q 1504 19 1475 104 l 1504 19 l 1514 -3 l 1062 -3 l 1026 -2 q 965 -3 986 -2 l 965 -3 q 904 161 933 57 l 904 161 q 860 100 891 134 q 813 65 828 65 l 813 65 q 588 -17 666 -7 l 588 -17 q 466 -36 474 -36 q 457 -36 457 -36 l 457 -36 q 96 130 218 -36 l 96 130 q 35 327 35 215 l 35 327 q 261 625 35 570 l 261 625 q 485 654 319 639 l 485 654 l 518 657 l 564 664 l 574 663 l 598 663 q 651 668 632 663 l 651 668 l 705 675 q 871 749 843 685 l 871 749 q 885 830 885 781 l 885 830 q 879 868 879 840 q 851 927 879 896 q 783 958 822 958 l 783 958 l 778 958 q 682 795 682 958 l 682 795 q 666 789 677 787 q 610 791 654 791 l 610 791 l 94 791 q 130 940 99 862 l 130 940 q 359 1162 189 1094 q 695 1235 528 1229 l 695 1235 l 755 1238 l 787 1241 q 799 1238 793 1241 l 799 1238 l 812 1238 l 857 1240 q 920 1233 871 1240 l 920 1233 l 949 1229 q 971 1228 956 1228 q 1034 1222 986 1228 q 1154 1187 1082 1215 q 1275 1122 1225 1159 q 1360 1033 1324 1085 l 1360 1033 q 1450 820 1428 935 q 1472 564 1472 704 l 1472 564 q 1479 522 1479 541 l 1479 522 l 1474 453 l 1474 337 q 1475 320 1475 335 l 1475 320 l 1473 252 l 1473 243 q 1476 229 1476 238 z m 892 402 l 892 432 l 893 464 q 885 560 893 514 l 885 560 q 821 533 863 548 q 754 508 779 518 q 709 471 729 497 q 688 398 688 444 q 718 314 688 352 q 782 276 747 276 l 782 276 q 889 330 857 276 l 889 330 l 891 340 l 892 402 z m 783 1977 q 995 1896 907 1977 q 1083 1695 1083 1814 q 998 1493 1083 1575 q 800 1411 912 1411 l 800 1411 q 535 1588 619 1411 l 535 1588 q 504 1689 512 1637 l 504 1689 q 509 1718 505 1690 q 533 1794 513 1745 q 586 1885 552 1843 l 586 1885 q 783 1977 659 1977 z m 928 1695 q 888 1794 928 1758 q 796 1830 848 1830 q 704 1798 744 1830 q 653 1708 664 1765 l 653 1708 q 699 1600 653 1639 q 798 1560 744 1560 q 890 1596 851 1560 q 928 1695 928 1631 z"},"æ":{"ha":2100,"x_min":-64,"x_max":2072,"o":"m 1480 1034 l 1438 1033 q 1246 1042 1399 1033 l 1246 1042 q 1252 996 1246 1015 q 1257 972 1257 977 l 1257 972 l 1279 884 l 1297 883 l 1343 883 l 1716 889 q 1748 881 1739 889 q 1760 853 1756 872 q 1768 824 1763 833 l 1768 824 l 1779 785 q 1787 766 1784 777 q 1792 749 1789 755 l 1792 749 l 1807 698 q 1849 571 1816 666 l 1849 571 l 1580 563 l 1470 563 q 1387 566 1453 563 l 1387 566 l 1396 530 q 1401 514 1396 523 l 1401 514 l 1432 407 l 1450 406 l 1465 406 l 1900 416 q 1964 400 1927 416 l 1964 400 l 1986 329 l 1997 301 l 1996 302 l 2050 122 q 2056 109 2051 116 q 2060 93 2060 101 l 2060 93 l 2067 69 q 2072 49 2072 54 q 2063 44 2072 44 l 2063 44 l 2049 44 l 1980 47 l 1930 47 l 1918 48 l 1826 48 l 1818 49 l 1767 49 q 1527 51 1687 49 l 1527 51 q 1491 47 1519 47 l 1491 47 l 1394 47 q 1313 46 1366 46 q 1238 47 1259 46 l 1238 47 l 1150 43 l 1150 47 l 1088 47 l 1034 45 q 968 64 970 45 l 968 64 l 927 217 q 914 253 920 248 q 874 258 907 258 l 874 258 l 540 258 q 515 170 526 217 l 515 170 l 489 59 q 396 42 479 42 l 396 42 l 384 43 l 313 43 q 188 40 269 40 l 188 40 l -21 40 l -29 39 l -45 55 q -47 59 -45 57 l -47 59 l -24 129 q -15 162 -22 136 q 3 208 -9 188 l 3 208 l 2 208 q 66 394 27 278 l 66 394 l 90 473 l 89 473 q 190 774 120 567 q 290 1074 259 980 l 290 1074 l 311 1135 q 396 1386 346 1225 l 396 1386 l 395 1386 l 403 1401 q 511 1400 439 1400 l 511 1400 l 658 1400 q 692 1399 667 1399 l 692 1399 l 793 1399 l 827 1398 l 862 1398 l 941 1397 l 957 1397 q 1049 1392 1006 1397 l 1049 1392 q 1350 1396 1158 1396 l 1350 1396 l 1403 1396 l 1428 1397 l 1624 1397 q 1654 1347 1640 1392 q 1673 1280 1667 1302 q 1682 1250 1679 1258 l 1682 1250 l 1747 1037 q 1731 1030 1739 1030 q 1720 1031 1723 1030 l 1720 1031 l 1706 1031 l 1693 1032 l 1480 1034 z m 594 658 l 594 658 l 585 606 l 590 564 q 650 566 620 564 l 650 566 l 811 561 q 816 562 815 562 l 816 562 l 821 562 q 872 574 861 562 q 882 607 882 585 q 867 684 882 628 l 867 684 l 867 681 l 859 711 q 853 736 853 729 l 853 736 l 825 862 q 815 911 820 884 l 815 911 l 800 989 q 793 1010 798 992 l 793 1010 l 793 1007 l 775 1087 q 738 1132 767 1119 l 738 1132 q 666 972 699 1118 l 666 972 l 657 923 q 651 905 653 913 l 651 905 l 645 882 q 594 658 629 805 z m -46 53 l -46 55 q -42 44 -43 55 q -45 32 -41 33 l -45 32 l -56 5 q -64 27 -64 13 q -59 53 -64 41 l -59 53 l -57 53 l -59 53 q -50 65 -56 59 l -50 65 l -47 59 l -48 56 q -57 53 -48 53 l -57 53 l -46 53 z m 1141 59 l 1150 43 l 1151 33 l 1141 59 z m 1754 1033 l 1754 1033 q 1747 1037 1749 1034 l 1747 1037 q 1752 1038 1749 1038 q 1754 1033 1754 1038 z m 1849 571 l 1850 570 l 1856 570 q 1852 567 1852 569 l 1852 567 l 1852 565 l 1850 570 q 1849 571 1849 570 l 1849 571 z m 400 1401 l 407 1404 l 400 1401 z"},"ç":{"ha":1520,"x_min":0,"x_max":1492,"o":"m 786 -31 l 786 -31 l 706 -36 q 586 -22 645 -36 l 586 -22 q 478 -1 546 -22 l 478 -1 q 138 186 250 53 l 138 186 l 120 207 q 7 508 33 319 l 7 508 l 4 529 q 0 606 0 561 q 17 726 0 650 l 17 726 q 282 1114 80 1007 l 282 1114 l 417 1186 q 791 1240 567 1240 l 791 1240 q 948 1218 876 1240 l 948 1218 l 968 1212 q 967 1213 967 1212 l 967 1213 l 969 1213 q 1420 915 1308 1123 l 1420 915 l 1422 908 q 1489 682 1472 807 l 1489 682 l 1466 690 l 840 690 l 835 727 q 781 880 819 842 l 781 880 l 761 892 q 662 652 673 886 l 662 652 q 659 614 661 620 l 659 614 l 660 582 l 663 524 q 664 509 663 517 l 664 509 l 674 499 l 663 499 q 695 384 668 424 q 748 344 721 344 l 748 344 q 818 406 799 344 q 837 519 837 468 l 837 519 q 1069 523 914 523 l 1069 523 l 1107 523 l 1203 522 l 1299 522 l 1492 521 q 1189 67 1461 200 l 1189 67 q 1134 44 1169 60 l 1134 44 l 1096 26 q 805 -35 937 -35 l 805 -35 q 786 -31 791 -35 z m 699 -1 l 704 -1 l 712 -2 l 729 -2 l 867 -4 q 878 -15 878 -6 q 872 -36 878 -25 q 849 -71 865 -47 q 819 -121 833 -95 l 819 -121 q 1005 -171 939 -121 q 1071 -302 1071 -221 l 1071 -302 q 977 -473 1071 -411 q 768 -535 883 -535 q 557 -516 653 -535 q 461 -469 461 -497 l 461 -469 q 490 -398 461 -448 l 490 -398 l 503 -369 q 509 -351 503 -365 q 526 -331 515 -337 l 526 -331 q 554 -342 534 -334 l 554 -342 q 700 -378 643 -378 l 700 -378 q 810 -315 810 -378 l 810 -315 q 732 -271 810 -271 l 732 -271 q 700 -279 724 -274 l 700 -279 l 678 -286 q 643 -270 667 -286 l 643 -270 l 621 -256 l 622 -256 q 578 -197 578 -231 l 578 -197 q 684 -7 630 -106 l 684 -7 q 699 -1 688 -3 l 699 -1 z m 671 -288 l 678 -286 l 678 -306 l 673 -307 l 671 -288 z"},"è":{"ha":1475,"x_min":-11,"x_max":1427,"o":"m 554 1227 l 553 1226 q 649 1239 598 1239 q 746 1235 700 1239 l 746 1235 l 788 1231 q 940 1208 887 1222 l 940 1208 l 940 1209 l 961 1200 q 1288 1002 1171 1135 l 1288 1002 l 1288 1003 q 1355 907 1315 971 q 1394 817 1394 842 l 1394 817 l 1402 790 l 1407 761 q 1426 649 1426 694 q 1427 580 1426 604 l 1427 580 l 603 580 l 603 547 q 609 499 609 524 q 610 460 609 474 q 612 432 610 445 q 615 410 614 418 q 619 390 615 401 q 624 374 623 378 q 630 358 624 370 q 639 336 635 346 q 652 315 642 325 l 652 315 l 652 316 l 663 295 q 715 265 682 274 l 715 265 q 790 322 770 277 q 822 434 809 367 l 822 434 q 924 444 858 444 l 924 444 l 1052 441 l 1421 441 q 1349 217 1409 319 l 1349 217 l 1350 217 q 1188 76 1298 135 l 1188 76 q 789 -33 877 -33 l 789 -33 q 763 -31 773 -33 l 763 -31 l 740 -31 l 731 -32 l 722 -32 q 702 -30 714 -32 l 702 -30 q 678 -36 692 -36 l 678 -36 l 591 -26 q 563 -29 584 -29 q 450 -2 541 -29 l 450 -2 l 450 -3 l 426 4 l 402 12 q 145 167 252 56 q 8 424 38 277 l 8 424 q -3 479 5 442 q -11 528 -11 515 l -11 528 l -11 576 q -10 602 -11 593 l -10 602 l -10 617 q 116 984 -10 829 q 454 1201 242 1138 l 454 1201 l 478 1208 q 554 1227 531 1217 l 554 1227 z m 722 712 l 852 712 l 873 725 q 841 864 856 833 q 812 916 826 894 l 812 916 q 744 958 786 958 q 671 916 701 958 l 671 916 q 604 708 618 842 l 604 708 q 722 712 668 712 l 722 712 z m 1035 1430 l 717 1430 l 708 1426 q 672 1470 706 1428 l 672 1470 l 672 1469 l 641 1507 q 469 1698 552 1614 q 386 1806 386 1781 l 386 1806 q 395 1819 386 1811 l 395 1819 q 835 1801 600 1801 l 835 1801 l 865 1801 l 871 1802 q 975 1649 893 1786 q 1076 1483 1056 1511 q 1096 1442 1096 1454 q 1035 1430 1096 1430 l 1035 1430 z"},"é":{"ha":1475,"x_min":-11,"x_max":1427,"o":"m 554 1227 l 553 1226 q 649 1239 598 1239 q 746 1235 700 1239 l 746 1235 l 788 1231 q 940 1208 887 1222 l 940 1208 l 940 1209 l 961 1200 q 1288 1002 1171 1135 l 1288 1002 l 1288 1003 q 1355 907 1315 971 q 1394 817 1394 842 l 1394 817 l 1402 790 l 1407 761 q 1426 649 1426 694 q 1427 580 1426 604 l 1427 580 l 603 580 l 603 547 q 609 499 609 524 q 610 460 609 474 q 612 432 610 445 q 615 410 614 418 q 619 390 615 401 q 624 374 623 378 q 630 358 624 370 q 639 336 635 346 q 652 315 642 325 l 652 315 l 652 316 l 663 295 q 715 265 682 274 l 715 265 q 790 322 770 277 q 822 434 809 367 l 822 434 q 924 444 858 444 l 924 444 l 1052 441 l 1421 441 q 1349 217 1409 319 l 1349 217 l 1350 217 q 1188 76 1298 135 l 1188 76 q 789 -33 877 -33 l 789 -33 q 763 -31 773 -33 l 763 -31 l 740 -31 l 731 -32 l 722 -32 q 702 -30 714 -32 l 702 -30 q 678 -36 692 -36 l 678 -36 l 591 -26 q 563 -29 584 -29 q 450 -2 541 -29 l 450 -2 l 450 -3 l 426 4 l 402 12 q 145 167 252 56 q 8 424 38 277 l 8 424 q -3 479 5 442 q -11 528 -11 515 l -11 528 l -11 576 q -10 602 -11 593 l -10 602 l -10 617 q 116 984 -10 829 q 454 1201 242 1138 l 454 1201 l 478 1208 q 554 1227 531 1217 l 554 1227 z m 722 712 l 852 712 l 873 725 q 841 864 856 833 q 812 916 826 894 l 812 916 q 744 958 786 958 q 671 916 701 958 l 671 916 q 604 708 618 842 l 604 708 q 722 712 668 712 l 722 712 z m 658 1413 l 475 1410 l 459 1409 l 410 1409 l 395 1438 l 563 1724 q 612 1794 606 1787 l 612 1794 l 682 1794 l 1100 1784 l 1100 1781 q 969 1634 1060 1735 q 835 1483 878 1532 q 761 1424 792 1434 q 658 1413 729 1414 l 658 1413 z"},"ê":{"ha":1475,"x_min":-11,"x_max":1427,"o":"m 554 1227 l 553 1226 q 649 1239 598 1239 q 746 1235 700 1239 l 746 1235 l 788 1231 q 940 1208 887 1222 l 940 1208 l 940 1209 l 961 1200 q 1288 1002 1171 1135 l 1288 1002 l 1288 1003 q 1355 907 1315 971 q 1394 817 1394 842 l 1394 817 l 1402 790 l 1407 761 q 1426 649 1426 694 q 1427 580 1426 604 l 1427 580 l 603 580 l 603 547 q 609 499 609 524 q 610 460 609 474 q 612 432 610 445 q 615 410 614 418 q 619 390 615 401 q 624 374 623 378 q 630 358 624 370 q 639 336 635 346 q 652 315 642 325 l 652 315 l 652 316 l 663 295 q 715 265 682 274 l 715 265 q 790 322 770 277 q 822 434 809 367 l 822 434 q 924 444 858 444 l 924 444 l 1052 441 l 1421 441 q 1349 217 1409 319 l 1349 217 l 1350 217 q 1188 76 1298 135 l 1188 76 q 789 -33 877 -33 l 789 -33 q 763 -31 773 -33 l 763 -31 l 740 -31 l 731 -32 l 722 -32 q 702 -30 714 -32 l 702 -30 q 678 -36 692 -36 l 678 -36 l 591 -26 q 563 -29 584 -29 q 450 -2 541 -29 l 450 -2 l 450 -3 l 426 4 l 402 12 q 145 167 252 56 q 8 424 38 277 l 8 424 q -3 479 5 442 q -11 528 -11 515 l -11 528 l -11 576 q -10 602 -11 593 l -10 602 l -10 617 q 116 984 -10 829 q 454 1201 242 1138 l 454 1201 l 478 1208 q 554 1227 531 1217 l 554 1227 z m 722 712 l 852 712 l 873 725 q 841 864 856 833 q 812 916 826 894 l 812 916 q 744 958 786 958 q 671 916 701 958 l 671 916 q 604 708 618 842 l 604 708 q 722 712 668 712 l 722 712 z m 1197 1406 l 1135 1406 l 840 1399 q 784 1470 809 1417 l 784 1470 q 776 1485 778 1482 l 776 1485 l 746 1545 q 707 1495 730 1530 q 666 1435 684 1460 q 637 1410 648 1410 l 637 1410 l 359 1410 l 310 1407 q 253 1419 253 1407 l 253 1419 q 254 1425 253 1421 l 254 1425 q 435 1678 322 1530 l 435 1678 l 457 1713 q 529 1763 482 1754 q 798 1775 576 1771 l 798 1775 l 975 1778 q 1010 1744 993 1769 q 1032 1713 1027 1719 q 1046 1693 1037 1706 q 1058 1675 1054 1680 l 1058 1675 l 1058 1676 l 1120 1584 q 1167 1519 1132 1566 l 1167 1519 l 1187 1491 q 1202 1469 1192 1483 l 1202 1469 l 1219 1447 q 1235 1416 1235 1426 q 1208 1405 1235 1405 l 1208 1405 l 1197 1406 z"},"ë":{"ha":1475,"x_min":-11,"x_max":1427,"o":"m 554 1227 l 553 1226 q 649 1239 598 1239 q 746 1235 700 1239 l 746 1235 l 788 1231 q 940 1208 887 1222 l 940 1208 l 940 1209 l 961 1200 q 1288 1002 1171 1135 l 1288 1002 l 1288 1003 q 1355 907 1315 971 q 1394 817 1394 842 l 1394 817 l 1402 790 l 1407 761 q 1426 649 1426 694 q 1427 580 1426 604 l 1427 580 l 603 580 l 603 547 q 609 499 609 524 q 610 460 609 474 q 612 432 610 445 q 615 410 614 418 q 619 390 615 401 q 624 374 623 378 q 630 358 624 370 q 639 336 635 346 q 652 315 642 325 l 652 315 l 652 316 l 663 295 q 715 265 682 274 l 715 265 q 790 322 770 277 q 822 434 809 367 l 822 434 q 924 444 858 444 l 924 444 l 1052 441 l 1421 441 q 1349 217 1409 319 l 1349 217 l 1350 217 q 1188 76 1298 135 l 1188 76 q 789 -33 877 -33 l 789 -33 q 763 -31 773 -33 l 763 -31 l 740 -31 l 731 -32 l 722 -32 q 702 -30 714 -32 l 702 -30 q 678 -36 692 -36 l 678 -36 l 591 -26 q 563 -29 584 -29 q 450 -2 541 -29 l 450 -2 l 450 -3 l 426 4 l 402 12 q 145 167 252 56 q 8 424 38 277 l 8 424 q -3 479 5 442 q -11 528 -11 515 l -11 528 l -11 576 q -10 602 -11 593 l -10 602 l -10 617 q 116 984 -10 829 q 454 1201 242 1138 l 454 1201 l 478 1208 q 554 1227 531 1217 l 554 1227 z m 722 712 l 852 712 l 873 725 q 841 864 856 833 q 812 916 826 894 l 812 916 q 744 958 786 958 q 671 916 701 958 l 671 916 q 604 708 618 842 l 604 708 q 722 712 668 712 l 722 712 z m 971 1810 l 971 1810 l 1141 1813 q 1205 1805 1202 1813 l 1205 1805 q 1212 1463 1210 1653 l 1212 1463 q 1209 1453 1209 1457 l 1209 1453 l 1202 1454 l 869 1440 l 843 1469 q 849 1678 843 1554 q 867 1813 855 1801 l 867 1813 q 971 1810 922 1810 z m 843 1469 l 843 1468 l 843 1469 z m 1198 1438 l 1208 1452 l 1222 1451 q 1208 1434 1222 1434 l 1208 1434 q 1198 1438 1202 1434 l 1198 1438 z m 638 1773 l 638 1741 l 640 1643 l 640 1612 q 641 1456 640 1503 l 641 1456 q 560 1445 631 1445 l 560 1445 l 539 1446 l 488 1446 l 301 1439 q 277 1474 280 1470 l 277 1474 q 299 1813 277 1788 l 299 1813 q 452 1812 335 1812 q 632 1809 568 1811 l 632 1809 q 639 1784 639 1807 l 639 1784 l 638 1773 z"},"ì":{"ha":669,"x_min":-17,"x_max":693,"o":"m 612 344 l 612 313 l 613 304 l 614 154 q 606 33 614 91 q 587 -25 598 -25 l 587 -25 l 293 -25 l 254 -31 q 82 -29 194 -31 l 82 -29 l 63 -13 l 63 0 l 62 21 l 62 66 q 66 393 62 249 l 66 393 l 69 607 l 77 1018 l 77 1046 l 207 1047 l 226 1046 l 294 1046 l 319 1047 l 584 1043 q 590 1044 588 1044 q 591 1039 591 1044 l 591 1039 l 592 976 l 591 938 l 591 862 q 601 592 591 693 l 601 592 l 605 550 q 613 375 611 479 l 613 375 l 613 348 q 612 344 613 347 l 612 344 z m 632 1430 l 314 1430 l 305 1426 q 269 1470 303 1428 l 269 1470 l 269 1469 l 238 1507 q 66 1698 149 1614 q -17 1806 -17 1781 l -17 1806 q -8 1819 -17 1811 l -8 1819 q 432 1801 197 1801 l 432 1801 l 462 1801 l 468 1802 q 572 1649 490 1786 q 673 1483 653 1511 q 693 1442 693 1454 q 632 1430 693 1430 l 632 1430 z"},"í":{"ha":669,"x_min":-8,"x_max":697,"o":"m 612 344 l 612 313 l 613 304 l 614 154 q 606 33 614 91 q 587 -25 598 -25 l 587 -25 l 293 -25 l 254 -31 q 82 -29 194 -31 l 82 -29 l 63 -13 l 63 0 l 62 21 l 62 66 q 66 393 62 249 l 66 393 l 69 607 l 77 1018 l 77 1046 l 207 1047 l 226 1046 l 294 1046 l 319 1047 l 584 1043 q 590 1044 588 1044 q 591 1039 591 1044 l 591 1039 l 592 976 l 591 938 l 591 862 q 601 592 591 693 l 601 592 l 605 550 q 613 375 611 479 l 613 375 l 613 348 q 612 344 613 347 l 612 344 z m 255 1413 l 72 1410 l 56 1409 l 7 1409 l -8 1438 l 160 1724 q 209 1794 203 1787 l 209 1794 l 279 1794 l 697 1784 l 697 1781 q 566 1634 657 1735 q 432 1483 475 1532 q 358 1424 389 1434 q 255 1413 326 1414 l 255 1413 z"},"î":{"ha":669,"x_min":-149,"x_max":833,"o":"m 612 344 l 612 313 l 613 304 l 614 154 q 606 33 614 91 q 587 -25 598 -25 l 587 -25 l 293 -25 l 254 -31 q 82 -29 194 -31 l 82 -29 l 63 -13 l 63 0 l 62 21 l 62 66 q 66 393 62 249 l 66 393 l 69 607 l 77 1018 l 77 1046 l 207 1047 l 226 1046 l 294 1046 l 319 1047 l 584 1043 q 590 1044 588 1044 q 591 1039 591 1044 l 591 1039 l 592 976 l 591 938 l 591 862 q 601 592 591 693 l 601 592 l 605 550 q 613 375 611 479 l 613 375 l 613 348 q 612 344 613 347 l 612 344 z m 795 1406 l 733 1406 l 438 1399 q 382 1470 407 1417 l 382 1470 q 374 1485 376 1482 l 374 1485 l 344 1545 q 305 1495 328 1530 q 264 1435 282 1460 q 235 1410 246 1410 l 235 1410 l -43 1410 l -92 1407 q -149 1419 -149 1407 l -149 1419 q -148 1425 -149 1421 l -148 1425 q 33 1678 -80 1530 l 33 1678 l 55 1713 q 127 1763 80 1754 q 396 1775 174 1771 l 396 1775 l 573 1778 q 608 1744 591 1769 q 630 1713 625 1719 q 644 1693 635 1706 q 656 1675 652 1680 l 656 1675 l 656 1676 l 718 1584 q 765 1519 730 1566 l 765 1519 l 785 1491 q 800 1469 790 1483 l 800 1469 l 817 1447 q 833 1416 833 1426 q 806 1405 833 1405 l 806 1405 l 795 1406 z"},"ï":{"ha":669,"x_min":-126,"x_max":819,"o":"m 612 344 l 612 313 l 613 304 l 614 154 q 606 33 614 91 q 587 -25 598 -25 l 587 -25 l 293 -25 l 254 -31 q 82 -29 194 -31 l 82 -29 l 63 -13 l 63 0 l 62 21 l 62 66 q 66 393 62 249 l 66 393 l 69 607 l 77 1018 l 77 1046 l 207 1047 l 226 1046 l 294 1046 l 319 1047 l 584 1043 q 590 1044 588 1044 q 591 1039 591 1044 l 591 1039 l 592 976 l 591 938 l 591 862 q 601 592 591 693 l 601 592 l 605 550 q 613 375 611 479 l 613 375 l 613 348 q 612 344 613 347 l 612 344 z m 568 1810 l 568 1810 l 738 1813 q 802 1805 799 1813 l 802 1805 q 809 1463 807 1653 l 809 1463 q 806 1453 806 1457 l 806 1453 l 799 1454 l 466 1440 l 440 1469 q 446 1678 440 1554 q 464 1813 452 1801 l 464 1813 q 568 1810 519 1810 z m 440 1469 l 440 1468 l 440 1469 z m 795 1438 l 805 1452 l 819 1451 q 805 1434 819 1434 l 805 1434 q 795 1438 799 1434 l 795 1438 z m 235 1773 l 235 1741 l 237 1643 l 237 1612 q 238 1456 237 1503 l 238 1456 q 157 1445 228 1445 l 157 1445 l 136 1446 l 85 1446 l -102 1439 q -126 1474 -123 1470 l -126 1474 q -104 1813 -126 1788 l -104 1813 q 49 1812 -68 1812 q 229 1809 165 1811 l 229 1809 q 236 1784 236 1807 l 236 1784 l 235 1773 z"},"ð":{"ha":1453,"x_min":-26,"x_max":1429,"o":"m -23 770 l -23 781 l -25 822 q -10 869 -25 869 l -10 869 l 109 869 q 106 916 106 893 l 106 916 l 103 965 l 103 1128 q 95 1331 95 1260 l 95 1331 l 95 1377 l 90 1381 q 100 1384 92 1384 l 100 1384 l 111 1384 q 202 1393 130 1384 q 458 1402 273 1402 l 458 1402 l 592 1402 q 1034 1352 875 1402 q 1270 1199 1193 1302 l 1270 1199 q 1429 728 1429 1003 l 1429 728 q 1146 154 1429 342 l 1146 154 q 805 43 990 51 l 805 43 l 799 46 l 755 44 q 687 42 731 42 q 605 45 642 42 l 605 45 l 494 45 l 470 46 l 121 40 q 105 106 105 71 l 105 106 l 105 243 q 107 493 107 326 l 107 493 l 107 559 l 108 643 q -2 642 77 642 l -2 642 q -26 657 -11 645 l -26 657 l -25 670 l -25 686 l -23 770 z m 596 585 l 596 542 l 595 515 l 595 493 q 626 328 595 345 l 626 328 l 662 328 q 781 359 731 328 q 856 423 831 389 q 899 542 880 456 q 918 731 918 628 l 918 731 l 918 812 q 912 880 915 830 q 890 980 909 930 l 890 980 q 790 1101 856 1071 q 643 1130 724 1130 l 643 1130 l 616 1130 l 605 1093 l 605 1095 l 591 1072 q 592 1035 591 1043 l 592 1035 l 592 1024 l 593 1012 l 593 952 l 591 901 l 591 870 l 640 870 l 658 869 l 714 869 q 727 766 727 869 l 727 766 l 726 737 l 726 684 q 714 656 726 656 l 714 656 q 595 655 628 656 l 595 655 l 595 600 l 596 585 z"},"ñ":{"ha":1460,"x_min":50,"x_max":1399,"o":"m 50 1197 l 316 1196 l 584 1197 q 602 1131 589 1176 q 627 1041 615 1086 l 627 1041 l 646 966 q 695 1078 686 1067 l 695 1078 l 711 1098 q 1021 1240 812 1240 l 1021 1240 q 1210 1181 1120 1240 q 1349 1026 1299 1121 q 1399 824 1399 930 l 1399 824 q 1396 805 1399 812 l 1396 805 l 1396 190 l 1397 -1 l 812 -1 l 810 499 l 814 601 q 733 754 814 754 l 733 754 q 646 609 646 754 l 646 609 q 647 565 646 577 l 647 565 l 647 550 l 648 533 l 648 0 l 350 -1 l 51 -1 l 50 599 l 50 1197 z m 913 1751 l 913 1751 l 936 1770 l 1189 1763 q 1202 1748 1192 1762 l 1202 1748 q 918 1404 1180 1404 l 918 1404 q 776 1425 863 1404 l 776 1425 l 718 1443 q 588 1476 612 1476 q 553 1472 563 1476 q 540 1455 542 1467 q 536 1430 538 1443 q 302 1416 534 1416 l 302 1416 l 275 1416 q 269 1434 269 1422 l 269 1434 q 346 1691 269 1606 q 565 1775 423 1775 l 565 1775 q 751 1738 618 1775 l 751 1738 l 751 1739 q 838 1713 781 1728 l 838 1713 l 868 1707 q 882 1697 872 1707 l 882 1697 l 907 1725 q 913 1751 912 1742 z m 890 1738 l 874 1745 l 883 1755 l 890 1738 z"},"ò":{"ha":1569,"x_min":22,"x_max":1513,"o":"m 1513 605 l 1513 605 q 1511 593 1511 595 l 1511 593 l 1511 585 q 1435 288 1508 420 l 1435 288 l 1436 288 q 1152 48 1334 132 q 792 -36 969 -36 q 499 -1 615 -36 q 283 99 382 33 q 136 226 184 165 l 136 226 q 22 633 22 370 l 22 633 q 25 648 22 642 l 25 648 l 25 664 q 22 672 22 668 l 22 672 l 24 683 l 23 683 q 97 913 42 858 l 97 913 q 111 938 97 924 l 111 938 l 111 937 l 126 961 q 396 1168 244 1112 l 396 1168 l 431 1181 q 616 1229 497 1213 l 616 1229 l 648 1232 q 677 1234 655 1233 q 707 1238 698 1235 l 707 1238 l 750 1237 q 757 1238 753 1238 q 766 1237 761 1238 l 766 1237 l 765 1238 q 783 1235 771 1235 l 783 1235 q 797 1239 787 1239 l 797 1239 q 1166 1150 1014 1239 l 1166 1150 l 1186 1141 q 1513 605 1513 984 z m 891 599 l 891 599 q 834 868 887 798 l 834 868 q 781 897 812 897 q 725 861 749 897 q 687 746 701 824 q 672 608 672 668 q 678 504 672 547 q 694 412 683 460 q 728 331 705 363 q 780 298 751 298 l 780 298 q 891 599 891 298 z m 1082 1430 l 764 1430 l 755 1426 q 719 1470 753 1428 l 719 1470 l 719 1469 l 688 1507 q 516 1698 599 1614 q 433 1806 433 1781 l 433 1806 q 442 1819 433 1811 l 442 1819 q 882 1801 647 1801 l 882 1801 l 912 1801 l 918 1802 q 1022 1649 940 1786 q 1123 1483 1103 1511 q 1143 1442 1143 1454 q 1082 1430 1143 1430 l 1082 1430 z"},"ó":{"ha":1569,"x_min":22,"x_max":1513,"o":"m 1513 605 l 1513 605 q 1511 593 1511 595 l 1511 593 l 1511 585 q 1435 288 1508 420 l 1435 288 l 1436 288 q 1152 48 1334 132 q 792 -36 969 -36 q 499 -1 615 -36 q 283 99 382 33 q 136 226 184 165 l 136 226 q 22 633 22 370 l 22 633 q 25 648 22 642 l 25 648 l 25 664 q 22 672 22 668 l 22 672 l 24 683 l 23 683 q 97 913 42 858 l 97 913 q 111 938 97 924 l 111 938 l 111 937 l 126 961 q 396 1168 244 1112 l 396 1168 l 431 1181 q 616 1229 497 1213 l 616 1229 l 648 1232 q 677 1234 655 1233 q 707 1238 698 1235 l 707 1238 l 750 1237 q 757 1238 753 1238 q 766 1237 761 1238 l 766 1237 l 765 1238 q 783 1235 771 1235 l 783 1235 q 797 1239 787 1239 l 797 1239 q 1166 1150 1014 1239 l 1166 1150 l 1186 1141 q 1513 605 1513 984 z m 891 599 l 891 599 q 834 868 887 798 l 834 868 q 781 897 812 897 q 725 861 749 897 q 687 746 701 824 q 672 608 672 668 q 678 504 672 547 q 694 412 683 460 q 728 331 705 363 q 780 298 751 298 l 780 298 q 891 599 891 298 z m 705 1413 l 522 1410 l 506 1409 l 457 1409 l 442 1438 l 610 1724 q 659 1794 653 1787 l 659 1794 l 729 1794 l 1147 1784 l 1147 1781 q 1016 1634 1107 1735 q 882 1483 925 1532 q 808 1424 839 1434 q 705 1413 776 1414 l 705 1413 z"},"ô":{"ha":1569,"x_min":22,"x_max":1513,"o":"m 1513 605 l 1513 605 q 1511 593 1511 595 l 1511 593 l 1511 585 q 1435 288 1508 420 l 1435 288 l 1436 288 q 1152 48 1334 132 q 792 -36 969 -36 q 499 -1 615 -36 q 283 99 382 33 q 136 226 184 165 l 136 226 q 22 633 22 370 l 22 633 q 25 648 22 642 l 25 648 l 25 664 q 22 672 22 668 l 22 672 l 24 683 l 23 683 q 97 913 42 858 l 97 913 q 111 938 97 924 l 111 938 l 111 937 l 126 961 q 396 1168 244 1112 l 396 1168 l 431 1181 q 616 1229 497 1213 l 616 1229 l 648 1232 q 677 1234 655 1233 q 707 1238 698 1235 l 707 1238 l 750 1237 q 757 1238 753 1238 q 766 1237 761 1238 l 766 1237 l 765 1238 q 783 1235 771 1235 l 783 1235 q 797 1239 787 1239 l 797 1239 q 1166 1150 1014 1239 l 1166 1150 l 1186 1141 q 1513 605 1513 984 z m 891 599 l 891 599 q 834 868 887 798 l 834 868 q 781 897 812 897 q 725 861 749 897 q 687 746 701 824 q 672 608 672 668 q 678 504 672 547 q 694 412 683 460 q 728 331 705 363 q 780 298 751 298 l 780 298 q 891 599 891 298 z m 1244 1406 l 1182 1406 l 887 1399 q 831 1470 856 1417 l 831 1470 q 823 1485 825 1482 l 823 1485 l 793 1545 q 754 1495 777 1530 q 713 1435 731 1460 q 684 1410 695 1410 l 684 1410 l 406 1410 l 357 1407 q 300 1419 300 1407 l 300 1419 q 301 1425 300 1421 l 301 1425 q 482 1678 369 1530 l 482 1678 l 504 1713 q 576 1763 529 1754 q 845 1775 623 1771 l 845 1775 l 1022 1778 q 1057 1744 1040 1769 q 1079 1713 1074 1719 q 1093 1693 1084 1706 q 1105 1675 1101 1680 l 1105 1675 l 1105 1676 l 1167 1584 q 1214 1519 1179 1566 l 1214 1519 l 1234 1491 q 1249 1469 1239 1483 l 1249 1469 l 1266 1447 q 1282 1416 1282 1426 q 1255 1405 1282 1405 l 1255 1405 l 1244 1406 z"},"õ":{"ha":1569,"x_min":22,"x_max":1513,"o":"m 1513 605 l 1513 605 q 1511 593 1511 595 l 1511 593 l 1511 585 q 1435 288 1508 420 l 1435 288 l 1436 288 q 1152 48 1334 132 q 792 -36 969 -36 q 499 -1 615 -36 q 283 99 382 33 q 136 226 184 165 l 136 226 q 22 633 22 370 l 22 633 q 25 648 22 642 l 25 648 l 25 664 q 22 672 22 668 l 22 672 l 24 683 l 23 683 q 97 913 42 858 l 97 913 q 111 938 97 924 l 111 938 l 111 937 l 126 961 q 396 1168 244 1112 l 396 1168 l 431 1181 q 616 1229 497 1213 l 616 1229 l 648 1232 q 677 1234 655 1233 q 707 1238 698 1235 l 707 1238 l 750 1237 q 757 1238 753 1238 q 766 1237 761 1238 l 766 1237 l 765 1238 q 783 1235 771 1235 l 783 1235 q 797 1239 787 1239 l 797 1239 q 1166 1150 1014 1239 l 1166 1150 l 1186 1141 q 1513 605 1513 984 z m 891 599 l 891 599 q 834 868 887 798 l 834 868 q 781 897 812 897 q 725 861 749 897 q 687 746 701 824 q 672 608 672 668 q 678 504 672 547 q 694 412 683 460 q 728 331 705 363 q 780 298 751 298 l 780 298 q 891 599 891 298 z m 968 1751 l 968 1751 l 991 1770 l 1244 1763 q 1257 1748 1247 1762 l 1257 1748 q 973 1404 1235 1404 l 973 1404 q 831 1425 918 1404 l 831 1425 l 773 1443 q 643 1476 667 1476 q 608 1472 618 1476 q 595 1455 597 1467 q 591 1430 593 1443 q 357 1416 589 1416 l 357 1416 l 330 1416 q 324 1434 324 1422 l 324 1434 q 401 1691 324 1606 q 620 1775 478 1775 l 620 1775 q 806 1738 673 1775 l 806 1738 l 806 1739 q 893 1713 836 1728 l 893 1713 l 923 1707 q 937 1697 927 1707 l 937 1697 l 962 1725 q 968 1751 967 1742 z m 945 1738 l 929 1745 l 938 1755 l 945 1738 z"},"ö":{"ha":1569,"x_min":22,"x_max":1513,"o":"m 1513 605 l 1513 605 q 1511 593 1511 595 l 1511 593 l 1511 585 q 1435 288 1508 420 l 1435 288 l 1436 288 q 1152 48 1334 132 q 792 -36 969 -36 q 499 -1 615 -36 q 283 99 382 33 q 136 226 184 165 l 136 226 q 22 633 22 370 l 22 633 q 25 648 22 642 l 25 648 l 25 664 q 22 672 22 668 l 22 672 l 24 683 l 23 683 q 97 913 42 858 l 97 913 q 111 938 97 924 l 111 938 l 111 937 l 126 961 q 396 1168 244 1112 l 396 1168 l 431 1181 q 616 1229 497 1213 l 616 1229 l 648 1232 q 677 1234 655 1233 q 707 1238 698 1235 l 707 1238 l 750 1237 q 757 1238 753 1238 q 766 1237 761 1238 l 766 1237 l 765 1238 q 783 1235 771 1235 l 783 1235 q 797 1239 787 1239 l 797 1239 q 1166 1150 1014 1239 l 1166 1150 l 1186 1141 q 1513 605 1513 984 z m 891 599 l 891 599 q 834 868 887 798 l 834 868 q 781 897 812 897 q 725 861 749 897 q 687 746 701 824 q 672 608 672 668 q 678 504 672 547 q 694 412 683 460 q 728 331 705 363 q 780 298 751 298 l 780 298 q 891 599 891 298 z m 1018 1810 l 1018 1810 l 1188 1813 q 1252 1805 1249 1813 l 1252 1805 q 1259 1463 1257 1653 l 1259 1463 q 1256 1453 1256 1457 l 1256 1453 l 1249 1454 l 916 1440 l 890 1469 q 896 1678 890 1554 q 914 1813 902 1801 l 914 1813 q 1018 1810 969 1810 z m 890 1469 l 890 1468 l 890 1469 z m 1245 1438 l 1255 1452 l 1269 1451 q 1255 1434 1269 1434 l 1255 1434 q 1245 1438 1249 1434 l 1245 1438 z m 685 1773 l 685 1741 l 687 1643 l 687 1612 q 688 1456 687 1503 l 688 1456 q 607 1445 678 1445 l 607 1445 l 586 1446 l 535 1446 l 348 1439 l 324 1474 q 346 1813 324 1788 l 346 1813 q 499 1812 382 1812 q 679 1809 615 1811 l 679 1809 q 686 1784 686 1807 l 686 1784 l 685 1773 z"},"÷":{"ha":1282,"x_min":104,"x_max":1199,"o":"m 199 675 l 892 664 l 1175 666 q 1199 665 1199 666 l 1199 665 l 1190 462 l 1190 416 l 1191 405 q 1159 398 1186 398 l 1159 398 l 1161 399 q 839 393 953 393 l 839 393 l 814 393 q 649 385 751 393 l 649 385 l 395 376 q 120 367 123 367 l 120 367 q 104 423 104 389 l 104 423 q 140 675 104 643 l 140 675 l 199 675 z m 742 0 l 742 0 q 654 -24 704 -24 q 558 12 604 -24 q 511 114 511 48 q 553 225 511 180 q 655 269 595 269 q 761 229 715 269 q 807 115 807 189 q 742 0 806 41 z m 663 1082 q 768 1044 722 1082 q 813 953 813 1006 q 786 862 813 899 l 786 862 q 667 795 736 795 q 558 835 598 795 q 517 939 517 874 q 561 1043 517 1003 q 663 1082 604 1082 z"},"ø":{"ha":1455,"x_min":24,"x_max":1424,"o":"m 273 -153 l 260 -153 l 228 -142 l 247 -62 q 260 -37 251 -54 q 273 -12 269 -21 l 273 -12 l 334 104 l 306 123 q 139 288 213 186 l 139 288 l 139 287 q 27 671 49 430 l 27 671 l 24 732 l 28 754 q 202 1238 59 1072 l 202 1238 l 226 1264 q 372 1360 277 1319 l 372 1360 l 412 1377 q 681 1434 528 1428 l 681 1434 l 685 1434 q 740 1437 719 1434 l 740 1437 q 1024 1389 895 1433 l 1024 1389 l 1163 1646 q 1198 1633 1163 1648 l 1198 1633 l 1230 1618 q 1241 1615 1230 1615 l 1241 1615 l 1247 1612 q 1191 1483 1247 1584 q 1120 1349 1134 1381 l 1120 1349 q 1148 1330 1125 1345 l 1148 1330 q 1257 1236 1229 1273 l 1257 1236 l 1278 1207 q 1424 730 1424 1023 q 1290 267 1424 437 l 1290 267 l 1248 214 q 1003 63 1161 112 q 715 14 845 14 q 441 57 584 14 l 441 57 q 411 -2 430 37 l 411 -2 q 348 -119 373 -78 q 301 -160 323 -160 l 301 -160 l 273 -153 z m 535 480 l 843 1054 q 715 1098 790 1098 q 596 1054 639 1098 q 530 925 553 1009 l 530 925 l 531 925 q 512 774 512 871 l 512 774 l 512 724 q 535 480 512 618 l 535 480 z m 914 963 l 914 963 l 605 367 q 711 339 667 339 q 791 352 755 339 q 851 385 827 365 q 891 437 874 404 l 891 437 q 929 565 921 495 q 937 723 937 634 l 937 723 l 937 761 q 914 963 937 843 z m 1242 1615 l 1241 1615 l 1242 1615 z"},"ù":{"ha":1538,"x_min":54,"x_max":1479,"o":"m 691 1196 l 691 1100 l 689 465 q 762 363 689 363 l 762 363 q 823 471 823 363 l 823 471 l 823 1195 l 1152 1196 l 1478 1196 l 1479 1 l 919 1 l 872 163 q 521 -36 744 -36 l 521 -36 q 198 74 329 -36 l 198 74 l 199 81 q 157 118 182 86 q 119 172 132 149 l 119 172 q 54 519 54 290 l 54 519 l 55 551 l 55 1195 l 373 1195 l 691 1196 z m 1067 1430 l 749 1430 l 740 1426 q 704 1470 738 1428 l 704 1470 l 704 1469 l 673 1507 q 501 1698 584 1614 q 418 1806 418 1781 l 418 1806 q 427 1819 418 1811 l 427 1819 q 867 1801 632 1801 l 867 1801 l 897 1801 l 903 1802 q 1007 1649 925 1786 q 1108 1483 1088 1511 q 1128 1442 1128 1454 q 1067 1430 1128 1430 l 1067 1430 z"},"ú":{"ha":1538,"x_min":54,"x_max":1479,"o":"m 691 1196 l 691 1100 l 689 465 q 762 363 689 363 l 762 363 q 823 471 823 363 l 823 471 l 823 1195 l 1152 1196 l 1478 1196 l 1479 1 l 919 1 l 872 163 q 521 -36 744 -36 l 521 -36 q 198 74 329 -36 l 198 74 l 199 81 q 157 118 182 86 q 119 172 132 149 l 119 172 q 54 519 54 290 l 54 519 l 55 551 l 55 1195 l 373 1195 l 691 1196 z m 689 1413 l 506 1410 l 490 1409 l 441 1409 l 426 1438 l 594 1724 q 643 1794 637 1787 l 643 1794 l 713 1794 l 1131 1784 l 1131 1781 q 1000 1634 1091 1735 q 866 1483 909 1532 q 792 1424 823 1434 q 689 1413 760 1414 l 689 1413 z"},"û":{"ha":1538,"x_min":54,"x_max":1479,"o":"m 691 1196 l 691 1100 l 689 465 q 762 363 689 363 l 762 363 q 823 471 823 363 l 823 471 l 823 1195 l 1152 1196 l 1478 1196 l 1479 1 l 919 1 l 872 163 q 521 -36 744 -36 l 521 -36 q 198 74 329 -36 l 198 74 l 199 81 q 157 118 182 86 q 119 172 132 149 l 119 172 q 54 519 54 290 l 54 519 l 55 551 l 55 1195 l 373 1195 l 691 1196 z m 1229 1406 l 1167 1406 l 872 1399 q 816 1470 841 1417 l 816 1470 q 808 1485 810 1482 l 808 1485 l 778 1545 q 739 1495 762 1530 q 698 1435 716 1460 q 669 1410 680 1410 l 669 1410 l 391 1410 l 342 1407 q 285 1419 285 1407 l 285 1419 q 286 1425 285 1421 l 286 1425 q 467 1678 354 1530 l 467 1678 l 489 1713 q 561 1763 514 1754 q 830 1775 608 1771 l 830 1775 l 1007 1778 q 1042 1744 1025 1769 q 1064 1713 1059 1719 q 1078 1693 1069 1706 q 1090 1675 1086 1680 l 1090 1675 l 1090 1676 l 1152 1584 q 1199 1519 1164 1566 l 1199 1519 l 1219 1491 q 1234 1469 1224 1483 l 1234 1469 l 1251 1447 q 1267 1416 1267 1426 q 1240 1405 1267 1405 l 1240 1405 l 1229 1406 z"},"ü":{"ha":1538,"x_min":54,"x_max":1479,"o":"m 691 1196 l 691 1100 l 689 465 q 762 363 689 363 l 762 363 q 823 471 823 363 l 823 471 l 823 1195 l 1152 1196 l 1478 1196 l 1479 1 l 919 1 l 872 163 q 521 -36 744 -36 l 521 -36 q 198 74 329 -36 l 198 74 l 199 81 q 157 118 182 86 q 119 172 132 149 l 119 172 q 54 519 54 290 l 54 519 l 55 551 l 55 1195 l 373 1195 l 691 1196 z m 1002 1810 l 1002 1810 l 1172 1813 q 1236 1805 1233 1813 l 1236 1805 q 1243 1463 1241 1653 l 1243 1463 q 1240 1453 1240 1457 l 1240 1453 l 1233 1454 l 900 1440 l 874 1469 q 880 1678 874 1554 q 898 1813 886 1801 l 898 1813 q 1002 1810 954 1810 z m 874 1469 l 874 1468 l 874 1469 z m 1229 1438 l 1239 1452 l 1253 1451 q 1239 1434 1253 1434 l 1239 1434 q 1229 1438 1233 1434 l 1229 1438 z m 669 1773 l 669 1741 l 671 1643 l 671 1612 q 672 1456 671 1503 l 672 1456 q 591 1445 662 1445 l 591 1445 l 570 1446 l 519 1446 l 332 1439 q 308 1474 311 1470 l 308 1474 q 330 1813 308 1788 l 330 1813 q 483 1812 366 1812 q 663 1809 599 1811 l 663 1809 q 670 1784 670 1807 l 670 1784 l 669 1773 z"},"ý":{"ha":1403,"x_min":-16,"x_max":1375,"o":"m 238 -138 l 238 -139 q 331 42 331 -107 l 331 42 q 293 219 331 98 l 293 219 l 277 269 q -16 1195 160 644 l -16 1195 l 289 1195 l 590 1196 l 635 937 q 651 815 640 894 q 667 696 662 736 l 667 696 l 764 1196 l 1355 1196 l 1355 1198 l 1375 1196 l 1370 1176 l 1368 1176 l 1104 444 q 1043 272 1063 341 q 998 141 1023 202 q 911 -98 973 80 q 791 -379 848 -277 l 791 -379 q 504 -545 701 -532 l 504 -545 l 410 -546 l 329 -550 q 290 -547 306 -550 l 290 -547 q 269 -549 283 -549 l 269 -549 l 208 -546 l 169 -549 q 144 -547 164 -549 l 144 -547 q 60 -547 102 -547 l 60 -547 l 41 -496 q 39 -480 39 -490 q 40 -467 39 -471 l 40 -467 l 40 -460 l 41 -450 l 41 -336 q 40 -161 41 -218 l 40 -161 q 71 -159 54 -159 q 97 -162 87 -159 l 97 -162 q 134 -159 111 -159 l 134 -159 l 142 -159 q 178 -150 150 -154 q 221 -142 206 -146 q 238 -138 236 -138 l 238 -138 z m 622 1413 l 439 1410 l 423 1409 l 374 1409 l 359 1438 l 527 1724 q 576 1794 570 1787 l 576 1794 l 646 1794 l 1064 1784 l 1064 1781 q 933 1634 1024 1735 q 799 1483 842 1532 q 725 1424 756 1434 q 622 1413 693 1414 l 622 1413 z"},"þ":{"ha":1366,"x_min":101,"x_max":1371,"o":"m 105 451 l 105 714 l 108 1375 l 108 1640 l 101 1745 q 162 1759 107 1759 l 162 1759 l 627 1759 q 630 1725 630 1754 l 630 1725 l 630 1400 l 884 1390 l 900 1390 l 907 1391 l 929 1391 q 1198 1311 1076 1391 l 1198 1311 l 1197 1311 q 1322 1156 1273 1258 q 1371 944 1371 1054 l 1371 944 q 1174 573 1371 733 l 1174 573 q 874 499 1051 510 l 874 499 l 839 497 q 696 490 798 490 l 696 490 l 682 490 q 645 487 667 490 l 645 487 l 645 379 q 654 57 645 196 l 654 57 q 591 42 646 42 l 591 42 l 116 42 q 103 87 107 66 l 103 87 l 103 400 q 105 451 103 433 l 105 451 z m 644 1119 l 628 1119 q 606 1083 620 1111 l 606 1083 l 606 1012 l 602 975 q 593 852 593 892 q 614 774 593 811 l 614 774 l 613 774 q 617 763 613 769 q 620 756 620 757 l 620 756 l 630 766 q 666 763 636 763 l 666 763 q 818 805 744 763 q 892 939 892 846 q 854 1068 892 1032 q 765 1111 816 1103 q 644 1119 713 1119 l 644 1119 z"},"ÿ":{"ha":1403,"x_min":-16,"x_max":1375,"o":"m 238 -138 l 238 -139 q 331 42 331 -107 l 331 42 q 293 219 331 98 l 293 219 l 277 269 q -16 1195 160 644 l -16 1195 l 289 1195 l 590 1196 l 635 937 q 651 815 640 894 q 667 696 662 736 l 667 696 l 764 1196 l 1355 1196 l 1355 1198 l 1375 1196 l 1370 1176 l 1368 1176 l 1104 444 q 1043 272 1063 341 q 998 141 1023 202 q 911 -98 973 80 q 791 -379 848 -277 l 791 -379 q 504 -545 701 -532 l 504 -545 l 410 -546 l 329 -550 q 290 -547 306 -550 l 290 -547 q 269 -549 283 -549 l 269 -549 l 208 -546 l 169 -549 q 144 -547 164 -549 l 144 -547 q 60 -547 102 -547 l 60 -547 l 41 -496 q 39 -480 39 -490 q 40 -467 39 -471 l 40 -467 l 40 -460 l 41 -450 l 41 -336 q 40 -161 41 -218 l 40 -161 q 71 -159 54 -159 q 97 -162 87 -159 l 97 -162 q 134 -159 111 -159 l 134 -159 l 142 -159 q 178 -150 150 -154 q 221 -142 206 -146 q 238 -138 236 -138 l 238 -138 z m 935 1810 l 935 1810 l 1105 1813 q 1169 1805 1166 1813 l 1169 1805 q 1176 1463 1174 1653 l 1176 1463 q 1173 1453 1173 1457 l 1173 1453 l 1166 1454 l 833 1440 l 807 1469 q 813 1678 807 1554 q 831 1813 819 1801 l 831 1813 q 935 1810 887 1810 z m 807 1469 l 807 1468 l 807 1469 z m 1162 1438 l 1172 1452 l 1186 1451 q 1172 1434 1186 1434 l 1172 1434 q 1162 1438 1166 1434 l 1162 1438 z m 602 1773 l 602 1741 l 604 1643 l 604 1612 q 605 1456 604 1503 l 605 1456 q 524 1445 595 1445 l 524 1445 l 503 1446 l 452 1446 l 265 1439 q 241 1474 244 1470 l 241 1474 q 263 1813 241 1788 l 263 1813 q 416 1812 299 1812 q 596 1809 532 1811 l 596 1809 q 603 1784 603 1807 l 603 1784 l 602 1773 z"}}}
